%TF.GenerationSoftware,KiCad,Pcbnew,8.0.1*%
%TF.CreationDate,2024-06-06T13:27:34-04:00*%
%TF.ProjectId,PillPCB,50696c6c-5043-4422-9e6b-696361645f70,rev?*%
%TF.SameCoordinates,Original*%
%TF.FileFunction,Legend,Top*%
%TF.FilePolarity,Positive*%
%FSLAX46Y46*%
G04 Gerber Fmt 4.6, Leading zero omitted, Abs format (unit mm)*
G04 Created by KiCad (PCBNEW 8.0.1) date 2024-06-06 13:27:34*
%MOMM*%
%LPD*%
G01*
G04 APERTURE LIST*
%ADD10C,0.150000*%
%ADD11C,0.125000*%
%ADD12C,0.120000*%
%ADD13C,1.000000*%
%ADD14C,0.100000*%
G04 APERTURE END LIST*
D10*
X120859589Y-94017875D02*
X120859589Y-93017875D01*
X120859589Y-93017875D02*
X121240541Y-93017875D01*
X121240541Y-93017875D02*
X121335779Y-93065494D01*
X121335779Y-93065494D02*
X121383398Y-93113113D01*
X121383398Y-93113113D02*
X121431017Y-93208351D01*
X121431017Y-93208351D02*
X121431017Y-93351208D01*
X121431017Y-93351208D02*
X121383398Y-93446446D01*
X121383398Y-93446446D02*
X121335779Y-93494065D01*
X121335779Y-93494065D02*
X121240541Y-93541684D01*
X121240541Y-93541684D02*
X120859589Y-93541684D01*
X121859589Y-94017875D02*
X121859589Y-93351208D01*
X121859589Y-93017875D02*
X121811970Y-93065494D01*
X121811970Y-93065494D02*
X121859589Y-93113113D01*
X121859589Y-93113113D02*
X121907208Y-93065494D01*
X121907208Y-93065494D02*
X121859589Y-93017875D01*
X121859589Y-93017875D02*
X121859589Y-93113113D01*
X122478636Y-94017875D02*
X122383398Y-93970256D01*
X122383398Y-93970256D02*
X122335779Y-93875017D01*
X122335779Y-93875017D02*
X122335779Y-93017875D01*
X123002446Y-94017875D02*
X122907208Y-93970256D01*
X122907208Y-93970256D02*
X122859589Y-93875017D01*
X122859589Y-93875017D02*
X122859589Y-93017875D01*
X124145304Y-94017875D02*
X124145304Y-93017875D01*
X124145304Y-93017875D02*
X124526256Y-93017875D01*
X124526256Y-93017875D02*
X124621494Y-93065494D01*
X124621494Y-93065494D02*
X124669113Y-93113113D01*
X124669113Y-93113113D02*
X124716732Y-93208351D01*
X124716732Y-93208351D02*
X124716732Y-93351208D01*
X124716732Y-93351208D02*
X124669113Y-93446446D01*
X124669113Y-93446446D02*
X124621494Y-93494065D01*
X124621494Y-93494065D02*
X124526256Y-93541684D01*
X124526256Y-93541684D02*
X124145304Y-93541684D01*
X125716732Y-93922636D02*
X125669113Y-93970256D01*
X125669113Y-93970256D02*
X125526256Y-94017875D01*
X125526256Y-94017875D02*
X125431018Y-94017875D01*
X125431018Y-94017875D02*
X125288161Y-93970256D01*
X125288161Y-93970256D02*
X125192923Y-93875017D01*
X125192923Y-93875017D02*
X125145304Y-93779779D01*
X125145304Y-93779779D02*
X125097685Y-93589303D01*
X125097685Y-93589303D02*
X125097685Y-93446446D01*
X125097685Y-93446446D02*
X125145304Y-93255970D01*
X125145304Y-93255970D02*
X125192923Y-93160732D01*
X125192923Y-93160732D02*
X125288161Y-93065494D01*
X125288161Y-93065494D02*
X125431018Y-93017875D01*
X125431018Y-93017875D02*
X125526256Y-93017875D01*
X125526256Y-93017875D02*
X125669113Y-93065494D01*
X125669113Y-93065494D02*
X125716732Y-93113113D01*
X126478637Y-93494065D02*
X126621494Y-93541684D01*
X126621494Y-93541684D02*
X126669113Y-93589303D01*
X126669113Y-93589303D02*
X126716732Y-93684541D01*
X126716732Y-93684541D02*
X126716732Y-93827398D01*
X126716732Y-93827398D02*
X126669113Y-93922636D01*
X126669113Y-93922636D02*
X126621494Y-93970256D01*
X126621494Y-93970256D02*
X126526256Y-94017875D01*
X126526256Y-94017875D02*
X126145304Y-94017875D01*
X126145304Y-94017875D02*
X126145304Y-93017875D01*
X126145304Y-93017875D02*
X126478637Y-93017875D01*
X126478637Y-93017875D02*
X126573875Y-93065494D01*
X126573875Y-93065494D02*
X126621494Y-93113113D01*
X126621494Y-93113113D02*
X126669113Y-93208351D01*
X126669113Y-93208351D02*
X126669113Y-93303589D01*
X126669113Y-93303589D02*
X126621494Y-93398827D01*
X126621494Y-93398827D02*
X126573875Y-93446446D01*
X126573875Y-93446446D02*
X126478637Y-93494065D01*
X126478637Y-93494065D02*
X126145304Y-93494065D01*
X119288160Y-95342104D02*
X119764350Y-95342104D01*
X119192922Y-95627819D02*
X119526255Y-94627819D01*
X119526255Y-94627819D02*
X119859588Y-95627819D01*
X120192922Y-94961152D02*
X120192922Y-95627819D01*
X120192922Y-95056390D02*
X120240541Y-95008771D01*
X120240541Y-95008771D02*
X120335779Y-94961152D01*
X120335779Y-94961152D02*
X120478636Y-94961152D01*
X120478636Y-94961152D02*
X120573874Y-95008771D01*
X120573874Y-95008771D02*
X120621493Y-95104009D01*
X120621493Y-95104009D02*
X120621493Y-95627819D01*
X121526255Y-95627819D02*
X121526255Y-94627819D01*
X121526255Y-95580200D02*
X121431017Y-95627819D01*
X121431017Y-95627819D02*
X121240541Y-95627819D01*
X121240541Y-95627819D02*
X121145303Y-95580200D01*
X121145303Y-95580200D02*
X121097684Y-95532580D01*
X121097684Y-95532580D02*
X121050065Y-95437342D01*
X121050065Y-95437342D02*
X121050065Y-95151628D01*
X121050065Y-95151628D02*
X121097684Y-95056390D01*
X121097684Y-95056390D02*
X121145303Y-95008771D01*
X121145303Y-95008771D02*
X121240541Y-94961152D01*
X121240541Y-94961152D02*
X121431017Y-94961152D01*
X121431017Y-94961152D02*
X121526255Y-95008771D01*
X122002446Y-95627819D02*
X122002446Y-94961152D01*
X122002446Y-95151628D02*
X122050065Y-95056390D01*
X122050065Y-95056390D02*
X122097684Y-95008771D01*
X122097684Y-95008771D02*
X122192922Y-94961152D01*
X122192922Y-94961152D02*
X122288160Y-94961152D01*
X123002446Y-95580200D02*
X122907208Y-95627819D01*
X122907208Y-95627819D02*
X122716732Y-95627819D01*
X122716732Y-95627819D02*
X122621494Y-95580200D01*
X122621494Y-95580200D02*
X122573875Y-95484961D01*
X122573875Y-95484961D02*
X122573875Y-95104009D01*
X122573875Y-95104009D02*
X122621494Y-95008771D01*
X122621494Y-95008771D02*
X122716732Y-94961152D01*
X122716732Y-94961152D02*
X122907208Y-94961152D01*
X122907208Y-94961152D02*
X123002446Y-95008771D01*
X123002446Y-95008771D02*
X123050065Y-95104009D01*
X123050065Y-95104009D02*
X123050065Y-95199247D01*
X123050065Y-95199247D02*
X122573875Y-95294485D01*
X124907208Y-95723057D02*
X124811970Y-95675438D01*
X124811970Y-95675438D02*
X124716732Y-95580200D01*
X124716732Y-95580200D02*
X124573875Y-95437342D01*
X124573875Y-95437342D02*
X124478637Y-95389723D01*
X124478637Y-95389723D02*
X124383399Y-95389723D01*
X124431018Y-95627819D02*
X124335780Y-95580200D01*
X124335780Y-95580200D02*
X124240542Y-95484961D01*
X124240542Y-95484961D02*
X124192923Y-95294485D01*
X124192923Y-95294485D02*
X124192923Y-94961152D01*
X124192923Y-94961152D02*
X124240542Y-94770676D01*
X124240542Y-94770676D02*
X124335780Y-94675438D01*
X124335780Y-94675438D02*
X124431018Y-94627819D01*
X124431018Y-94627819D02*
X124621494Y-94627819D01*
X124621494Y-94627819D02*
X124716732Y-94675438D01*
X124716732Y-94675438D02*
X124811970Y-94770676D01*
X124811970Y-94770676D02*
X124859589Y-94961152D01*
X124859589Y-94961152D02*
X124859589Y-95294485D01*
X124859589Y-95294485D02*
X124811970Y-95484961D01*
X124811970Y-95484961D02*
X124716732Y-95580200D01*
X124716732Y-95580200D02*
X124621494Y-95627819D01*
X124621494Y-95627819D02*
X124431018Y-95627819D01*
X125335780Y-95580200D02*
X125335780Y-95627819D01*
X125335780Y-95627819D02*
X125288161Y-95723057D01*
X125288161Y-95723057D02*
X125240542Y-95770676D01*
X126478637Y-94723057D02*
X126526256Y-94675438D01*
X126526256Y-94675438D02*
X126621494Y-94627819D01*
X126621494Y-94627819D02*
X126859589Y-94627819D01*
X126859589Y-94627819D02*
X126954827Y-94675438D01*
X126954827Y-94675438D02*
X127002446Y-94723057D01*
X127002446Y-94723057D02*
X127050065Y-94818295D01*
X127050065Y-94818295D02*
X127050065Y-94913533D01*
X127050065Y-94913533D02*
X127002446Y-95056390D01*
X127002446Y-95056390D02*
X126431018Y-95627819D01*
X126431018Y-95627819D02*
X127050065Y-95627819D01*
X127669113Y-94627819D02*
X127764351Y-94627819D01*
X127764351Y-94627819D02*
X127859589Y-94675438D01*
X127859589Y-94675438D02*
X127907208Y-94723057D01*
X127907208Y-94723057D02*
X127954827Y-94818295D01*
X127954827Y-94818295D02*
X128002446Y-95008771D01*
X128002446Y-95008771D02*
X128002446Y-95246866D01*
X128002446Y-95246866D02*
X127954827Y-95437342D01*
X127954827Y-95437342D02*
X127907208Y-95532580D01*
X127907208Y-95532580D02*
X127859589Y-95580200D01*
X127859589Y-95580200D02*
X127764351Y-95627819D01*
X127764351Y-95627819D02*
X127669113Y-95627819D01*
X127669113Y-95627819D02*
X127573875Y-95580200D01*
X127573875Y-95580200D02*
X127526256Y-95532580D01*
X127526256Y-95532580D02*
X127478637Y-95437342D01*
X127478637Y-95437342D02*
X127431018Y-95246866D01*
X127431018Y-95246866D02*
X127431018Y-95008771D01*
X127431018Y-95008771D02*
X127478637Y-94818295D01*
X127478637Y-94818295D02*
X127526256Y-94723057D01*
X127526256Y-94723057D02*
X127573875Y-94675438D01*
X127573875Y-94675438D02*
X127669113Y-94627819D01*
X128383399Y-94723057D02*
X128431018Y-94675438D01*
X128431018Y-94675438D02*
X128526256Y-94627819D01*
X128526256Y-94627819D02*
X128764351Y-94627819D01*
X128764351Y-94627819D02*
X128859589Y-94675438D01*
X128859589Y-94675438D02*
X128907208Y-94723057D01*
X128907208Y-94723057D02*
X128954827Y-94818295D01*
X128954827Y-94818295D02*
X128954827Y-94913533D01*
X128954827Y-94913533D02*
X128907208Y-95056390D01*
X128907208Y-95056390D02*
X128335780Y-95627819D01*
X128335780Y-95627819D02*
X128954827Y-95627819D01*
X129811970Y-94961152D02*
X129811970Y-95627819D01*
X129573875Y-94580200D02*
X129335780Y-95294485D01*
X129335780Y-95294485D02*
X129954827Y-95294485D01*
X67437000Y-104841215D02*
X68453000Y-103251000D01*
X81534000Y-104902000D02*
X76200000Y-104902000D01*
X82677000Y-104902000D02*
X84145000Y-103230000D01*
X81534000Y-104902000D02*
X82677000Y-104902000D01*
X81534000Y-107696000D02*
X81534000Y-104902000D01*
X78994000Y-107696000D02*
X81534000Y-107696000D01*
D11*
X80187474Y-103519119D02*
X80520807Y-104519119D01*
X80520807Y-104519119D02*
X80854140Y-103519119D01*
X81758902Y-104423880D02*
X81711283Y-104471500D01*
X81711283Y-104471500D02*
X81568426Y-104519119D01*
X81568426Y-104519119D02*
X81473188Y-104519119D01*
X81473188Y-104519119D02*
X81330331Y-104471500D01*
X81330331Y-104471500D02*
X81235093Y-104376261D01*
X81235093Y-104376261D02*
X81187474Y-104281023D01*
X81187474Y-104281023D02*
X81139855Y-104090547D01*
X81139855Y-104090547D02*
X81139855Y-103947690D01*
X81139855Y-103947690D02*
X81187474Y-103757214D01*
X81187474Y-103757214D02*
X81235093Y-103661976D01*
X81235093Y-103661976D02*
X81330331Y-103566738D01*
X81330331Y-103566738D02*
X81473188Y-103519119D01*
X81473188Y-103519119D02*
X81568426Y-103519119D01*
X81568426Y-103519119D02*
X81711283Y-103566738D01*
X81711283Y-103566738D02*
X81758902Y-103614357D01*
X82758902Y-104423880D02*
X82711283Y-104471500D01*
X82711283Y-104471500D02*
X82568426Y-104519119D01*
X82568426Y-104519119D02*
X82473188Y-104519119D01*
X82473188Y-104519119D02*
X82330331Y-104471500D01*
X82330331Y-104471500D02*
X82235093Y-104376261D01*
X82235093Y-104376261D02*
X82187474Y-104281023D01*
X82187474Y-104281023D02*
X82139855Y-104090547D01*
X82139855Y-104090547D02*
X82139855Y-103947690D01*
X82139855Y-103947690D02*
X82187474Y-103757214D01*
X82187474Y-103757214D02*
X82235093Y-103661976D01*
X82235093Y-103661976D02*
X82330331Y-103566738D01*
X82330331Y-103566738D02*
X82473188Y-103519119D01*
X82473188Y-103519119D02*
X82568426Y-103519119D01*
X82568426Y-103519119D02*
X82711283Y-103566738D01*
X82711283Y-103566738D02*
X82758902Y-103614357D01*
D10*
X66482801Y-107500085D02*
X63881000Y-107502000D01*
X66481000Y-106172000D02*
X66482801Y-107500085D01*
X65151000Y-104842000D02*
X63881000Y-104842000D01*
X66481000Y-104842000D02*
X67437000Y-104841215D01*
X78994000Y-104902000D02*
X80010000Y-103251000D01*
X78994000Y-107696000D02*
X78994000Y-104902000D01*
X76327000Y-107696000D02*
X78994000Y-107696000D01*
X76327000Y-105283000D02*
X76327000Y-107696000D01*
X75819000Y-103251000D02*
X76327000Y-105283000D01*
X63881000Y-104842000D02*
X64897000Y-103251000D01*
X61281000Y-104842000D02*
X60960000Y-103251000D01*
D11*
X77044140Y-103566738D02*
X76948902Y-103519119D01*
X76948902Y-103519119D02*
X76806045Y-103519119D01*
X76806045Y-103519119D02*
X76663188Y-103566738D01*
X76663188Y-103566738D02*
X76567950Y-103661976D01*
X76567950Y-103661976D02*
X76520331Y-103757214D01*
X76520331Y-103757214D02*
X76472712Y-103947690D01*
X76472712Y-103947690D02*
X76472712Y-104090547D01*
X76472712Y-104090547D02*
X76520331Y-104281023D01*
X76520331Y-104281023D02*
X76567950Y-104376261D01*
X76567950Y-104376261D02*
X76663188Y-104471500D01*
X76663188Y-104471500D02*
X76806045Y-104519119D01*
X76806045Y-104519119D02*
X76901283Y-104519119D01*
X76901283Y-104519119D02*
X77044140Y-104471500D01*
X77044140Y-104471500D02*
X77091759Y-104423880D01*
X77091759Y-104423880D02*
X77091759Y-104090547D01*
X77091759Y-104090547D02*
X76901283Y-104090547D01*
X77520331Y-104519119D02*
X77520331Y-103519119D01*
X77520331Y-103519119D02*
X78091759Y-104519119D01*
X78091759Y-104519119D02*
X78091759Y-103519119D01*
X78567950Y-104519119D02*
X78567950Y-103519119D01*
X78567950Y-103519119D02*
X78806045Y-103519119D01*
X78806045Y-103519119D02*
X78948902Y-103566738D01*
X78948902Y-103566738D02*
X79044140Y-103661976D01*
X79044140Y-103661976D02*
X79091759Y-103757214D01*
X79091759Y-103757214D02*
X79139378Y-103947690D01*
X79139378Y-103947690D02*
X79139378Y-104090547D01*
X79139378Y-104090547D02*
X79091759Y-104281023D01*
X79091759Y-104281023D02*
X79044140Y-104376261D01*
X79044140Y-104376261D02*
X78948902Y-104471500D01*
X78948902Y-104471500D02*
X78806045Y-104519119D01*
X78806045Y-104519119D02*
X78567950Y-104519119D01*
X61931140Y-103566738D02*
X61835902Y-103519119D01*
X61835902Y-103519119D02*
X61693045Y-103519119D01*
X61693045Y-103519119D02*
X61550188Y-103566738D01*
X61550188Y-103566738D02*
X61454950Y-103661976D01*
X61454950Y-103661976D02*
X61407331Y-103757214D01*
X61407331Y-103757214D02*
X61359712Y-103947690D01*
X61359712Y-103947690D02*
X61359712Y-104090547D01*
X61359712Y-104090547D02*
X61407331Y-104281023D01*
X61407331Y-104281023D02*
X61454950Y-104376261D01*
X61454950Y-104376261D02*
X61550188Y-104471500D01*
X61550188Y-104471500D02*
X61693045Y-104519119D01*
X61693045Y-104519119D02*
X61788283Y-104519119D01*
X61788283Y-104519119D02*
X61931140Y-104471500D01*
X61931140Y-104471500D02*
X61978759Y-104423880D01*
X61978759Y-104423880D02*
X61978759Y-104090547D01*
X61978759Y-104090547D02*
X61788283Y-104090547D01*
X62407331Y-104519119D02*
X62407331Y-103519119D01*
X62407331Y-103519119D02*
X62978759Y-104519119D01*
X62978759Y-104519119D02*
X62978759Y-103519119D01*
X63454950Y-104519119D02*
X63454950Y-103519119D01*
X63454950Y-103519119D02*
X63693045Y-103519119D01*
X63693045Y-103519119D02*
X63835902Y-103566738D01*
X63835902Y-103566738D02*
X63931140Y-103661976D01*
X63931140Y-103661976D02*
X63978759Y-103757214D01*
X63978759Y-103757214D02*
X64026378Y-103947690D01*
X64026378Y-103947690D02*
X64026378Y-104090547D01*
X64026378Y-104090547D02*
X63978759Y-104281023D01*
X63978759Y-104281023D02*
X63931140Y-104376261D01*
X63931140Y-104376261D02*
X63835902Y-104471500D01*
X63835902Y-104471500D02*
X63693045Y-104519119D01*
X63693045Y-104519119D02*
X63454950Y-104519119D01*
D10*
X73560000Y-91440000D02*
X78105000Y-91440000D01*
X78105000Y-97980000D01*
X73560000Y-97980000D01*
X73560000Y-91440000D01*
G36*
X77575474Y-96877898D02*
G01*
X77609180Y-96744542D01*
X77659302Y-96759304D01*
X77705560Y-96777333D01*
X77755969Y-96803282D01*
X77800815Y-96833936D01*
X77840096Y-96869296D01*
X77863192Y-96895484D01*
X77892908Y-96937950D01*
X77916475Y-96983835D01*
X77933895Y-97033136D01*
X77945166Y-97085856D01*
X77950289Y-97141992D01*
X77950631Y-97161464D01*
X77949003Y-97210889D01*
X77942752Y-97266278D01*
X77931813Y-97317392D01*
X77916185Y-97364229D01*
X77892027Y-97413468D01*
X77883953Y-97426468D01*
X77851929Y-97468701D01*
X77814202Y-97506283D01*
X77770772Y-97539213D01*
X77721638Y-97567491D01*
X77691001Y-97581562D01*
X77642904Y-97599657D01*
X77593502Y-97614008D01*
X77542795Y-97624615D01*
X77490783Y-97631479D01*
X77437465Y-97634599D01*
X77419403Y-97634807D01*
X77361477Y-97632694D01*
X77306402Y-97626358D01*
X77254178Y-97615796D01*
X77204805Y-97601010D01*
X77158282Y-97581999D01*
X77143408Y-97574723D01*
X77094615Y-97546005D01*
X77051245Y-97512426D01*
X77013298Y-97473984D01*
X76980773Y-97430681D01*
X76964623Y-97403753D01*
X76940735Y-97354082D01*
X76922715Y-97302306D01*
X76910562Y-97248427D01*
X76904276Y-97192445D01*
X76903318Y-97159510D01*
X76906057Y-97104507D01*
X76914274Y-97052887D01*
X76927970Y-97004650D01*
X76950872Y-96952649D01*
X76981231Y-96905253D01*
X77018357Y-96863152D01*
X77061560Y-96827035D01*
X77103429Y-96800840D01*
X77149763Y-96779041D01*
X77200561Y-96761639D01*
X77231580Y-96893041D01*
X77185348Y-96909841D01*
X77139667Y-96932762D01*
X77097399Y-96963292D01*
X77067937Y-96994646D01*
X77040889Y-97039659D01*
X77023859Y-97091351D01*
X77017097Y-97143584D01*
X77016646Y-97162197D01*
X77019334Y-97211142D01*
X77028990Y-97262643D01*
X77045667Y-97309412D01*
X77072822Y-97356370D01*
X77107454Y-97396545D01*
X77148153Y-97429417D01*
X77194918Y-97454986D01*
X77223520Y-97466035D01*
X77271163Y-97479819D01*
X77319569Y-97489665D01*
X77368738Y-97495573D01*
X77418670Y-97497542D01*
X77473833Y-97495754D01*
X77525840Y-97490390D01*
X77574692Y-97481449D01*
X77626658Y-97466851D01*
X77645083Y-97460173D01*
X77690283Y-97438787D01*
X77733871Y-97408559D01*
X77769770Y-97371802D01*
X77789431Y-97343669D01*
X77812572Y-97298132D01*
X77828139Y-97250547D01*
X77836134Y-97200914D01*
X77837302Y-97172455D01*
X77833181Y-97118661D01*
X77820816Y-97069140D01*
X77800208Y-97023894D01*
X77771357Y-96982923D01*
X77734385Y-96947233D01*
X77689413Y-96917832D01*
X77643502Y-96897265D01*
X77591466Y-96881514D01*
X77575474Y-96877898D01*
G37*
G36*
X77670240Y-96635609D02*
G01*
X77653632Y-96512022D01*
X77701915Y-96499536D01*
X77747586Y-96481036D01*
X77790969Y-96452023D01*
X77803353Y-96439727D01*
X77831185Y-96398133D01*
X77846171Y-96350288D01*
X77849026Y-96314918D01*
X77843111Y-96262941D01*
X77825365Y-96216305D01*
X77795789Y-96175013D01*
X77788454Y-96167396D01*
X77747782Y-96135711D01*
X77701480Y-96115761D01*
X77649550Y-96107547D01*
X77638489Y-96107312D01*
X77588147Y-96112750D01*
X77539548Y-96131295D01*
X77498049Y-96162999D01*
X77466483Y-96204834D01*
X77448020Y-96253769D01*
X77442606Y-96304416D01*
X77447949Y-96355058D01*
X77456284Y-96391855D01*
X77339780Y-96377933D01*
X77341001Y-96358149D01*
X77336210Y-96305649D01*
X77321837Y-96256958D01*
X77300457Y-96216000D01*
X77267387Y-96179985D01*
X77219462Y-96157745D01*
X77175404Y-96152741D01*
X77124819Y-96160360D01*
X77078817Y-96185605D01*
X77064518Y-96198903D01*
X77036053Y-96240645D01*
X77022100Y-96291256D01*
X77020554Y-96317605D01*
X77026874Y-96368278D01*
X77047984Y-96415577D01*
X77065495Y-96437773D01*
X77105520Y-96469017D01*
X77153314Y-96489148D01*
X77200317Y-96499566D01*
X77178335Y-96623153D01*
X77126931Y-96610552D01*
X77080856Y-96592412D01*
X77034724Y-96564896D01*
X76995554Y-96530145D01*
X76986849Y-96520327D01*
X76957143Y-96477691D01*
X76935924Y-96430140D01*
X76923193Y-96377674D01*
X76919016Y-96327733D01*
X76918949Y-96320292D01*
X76922384Y-96270112D01*
X76934096Y-96217835D01*
X76954120Y-96168617D01*
X76981360Y-96124796D01*
X77014717Y-96088710D01*
X77050352Y-96062616D01*
X77097029Y-96040141D01*
X77145836Y-96028040D01*
X77179556Y-96025735D01*
X77230449Y-96031499D01*
X77277552Y-96048792D01*
X77298014Y-96060662D01*
X77337688Y-96094643D01*
X77367942Y-96135956D01*
X77382766Y-96164465D01*
X77397980Y-96117350D01*
X77423177Y-96072432D01*
X77457104Y-96035338D01*
X77468984Y-96025735D01*
X77513115Y-95999589D01*
X77563685Y-95983126D01*
X77614705Y-95976589D01*
X77632871Y-95976154D01*
X77689072Y-95980758D01*
X77741417Y-95994573D01*
X77789905Y-96017597D01*
X77834536Y-96049831D01*
X77858307Y-96072385D01*
X77889683Y-96110250D01*
X77918083Y-96158918D01*
X77937648Y-96212424D01*
X77947385Y-96262138D01*
X77950631Y-96315407D01*
X77946903Y-96371279D01*
X77935718Y-96422851D01*
X77917077Y-96470121D01*
X77890979Y-96513091D01*
X77872718Y-96535714D01*
X77836315Y-96570380D01*
X77795494Y-96597871D01*
X77750255Y-96618185D01*
X77700599Y-96631324D01*
X77670240Y-96635609D01*
G37*
G36*
X77950631Y-95916070D02*
G01*
X76903318Y-95624200D01*
X76903318Y-95525281D01*
X77950631Y-95816419D01*
X77950631Y-95916070D01*
G37*
G36*
X77602341Y-95463976D02*
G01*
X77591106Y-95338436D01*
X77641995Y-95329452D01*
X77689874Y-95313332D01*
X77720554Y-95296914D01*
X77758448Y-95264397D01*
X77787775Y-95223862D01*
X77802376Y-95195553D01*
X77820036Y-95146210D01*
X77829729Y-95097895D01*
X77833364Y-95046289D01*
X77833394Y-95040948D01*
X77830710Y-94990665D01*
X77821660Y-94940616D01*
X77810680Y-94906370D01*
X77787365Y-94860876D01*
X77752820Y-94823079D01*
X77747909Y-94819420D01*
X77703351Y-94797122D01*
X77660715Y-94790843D01*
X77610921Y-94799576D01*
X77577428Y-94818443D01*
X77544455Y-94854774D01*
X77520413Y-94901290D01*
X77517344Y-94909057D01*
X77501543Y-94958203D01*
X77487203Y-95011213D01*
X77474127Y-95063182D01*
X77468007Y-95088331D01*
X77455505Y-95137435D01*
X77441266Y-95187344D01*
X77425452Y-95234650D01*
X77404504Y-95282748D01*
X77376005Y-95327955D01*
X77343235Y-95364503D01*
X77309738Y-95390215D01*
X77265499Y-95411796D01*
X77217414Y-95423417D01*
X77183220Y-95425630D01*
X77131538Y-95420522D01*
X77082281Y-95405197D01*
X77039605Y-95382399D01*
X77000927Y-95351363D01*
X76968546Y-95312599D01*
X76942461Y-95266107D01*
X76938000Y-95255881D01*
X76921235Y-95207682D01*
X76909956Y-95156508D01*
X76904164Y-95102358D01*
X76903318Y-95070990D01*
X76905592Y-95016707D01*
X76912416Y-94965721D01*
X76923788Y-94918033D01*
X76939710Y-94873641D01*
X76962767Y-94828686D01*
X76994776Y-94786077D01*
X77033512Y-94751196D01*
X77046444Y-94742239D01*
X77092373Y-94717562D01*
X77141928Y-94701233D01*
X77195108Y-94693252D01*
X77206179Y-94692657D01*
X77215949Y-94820396D01*
X77165292Y-94830069D01*
X77117798Y-94849971D01*
X77076244Y-94882993D01*
X77069891Y-94890250D01*
X77043874Y-94932878D01*
X77028697Y-94980706D01*
X77021759Y-95030745D01*
X77020554Y-95065616D01*
X77022693Y-95115378D01*
X77030375Y-95164578D01*
X77047835Y-95214571D01*
X77065251Y-95241960D01*
X77101200Y-95275596D01*
X77149740Y-95295218D01*
X77172718Y-95297159D01*
X77222543Y-95287328D01*
X77262599Y-95257835D01*
X77289252Y-95211628D01*
X77307326Y-95161436D01*
X77321042Y-95113614D01*
X77334895Y-95057068D01*
X77346199Y-95008798D01*
X77359182Y-94957438D01*
X77373526Y-94906569D01*
X77390697Y-94855489D01*
X77399619Y-94834074D01*
X77424282Y-94788266D01*
X77455719Y-94745934D01*
X77495203Y-94709782D01*
X77502934Y-94704381D01*
X77548172Y-94680463D01*
X77597912Y-94666474D01*
X77647037Y-94662371D01*
X77696659Y-94666879D01*
X77744467Y-94680403D01*
X77790463Y-94702943D01*
X77799445Y-94708533D01*
X77841071Y-94741167D01*
X77876496Y-94781673D01*
X77903076Y-94824857D01*
X77910819Y-94840669D01*
X77930064Y-94890866D01*
X77941883Y-94938341D01*
X77948726Y-94988502D01*
X77950631Y-95034597D01*
X77949197Y-95084334D01*
X77943899Y-95138432D01*
X77934698Y-95188299D01*
X77919402Y-95240109D01*
X77909842Y-95263941D01*
X77886899Y-95307615D01*
X77854993Y-95350800D01*
X77816634Y-95387686D01*
X77787477Y-95408777D01*
X77739752Y-95434374D01*
X77688627Y-95452089D01*
X77640328Y-95461217D01*
X77602341Y-95463976D01*
G37*
G36*
X77817763Y-93885923D02*
G01*
X77935000Y-93885923D01*
X77935000Y-94551729D01*
X77885798Y-94547771D01*
X77849026Y-94537319D01*
X77802437Y-94516109D01*
X77760534Y-94490616D01*
X77719060Y-94459208D01*
X77714937Y-94455742D01*
X77676082Y-94420339D01*
X77638820Y-94382252D01*
X77604112Y-94343818D01*
X77567440Y-94300614D01*
X77562041Y-94294053D01*
X77528972Y-94254684D01*
X77490117Y-94210153D01*
X77454016Y-94170821D01*
X77414331Y-94130487D01*
X77373046Y-94092893D01*
X77346863Y-94072281D01*
X77302888Y-94044299D01*
X77255614Y-94023948D01*
X77205541Y-94014621D01*
X77196653Y-94014395D01*
X77144263Y-94021814D01*
X77098468Y-94044071D01*
X77071601Y-94067152D01*
X77042538Y-94107006D01*
X77025539Y-94154363D01*
X77020554Y-94203928D01*
X77026016Y-94256316D01*
X77044642Y-94305898D01*
X77076486Y-94347054D01*
X77120047Y-94377594D01*
X77168514Y-94394538D01*
X77219354Y-94400978D01*
X77231580Y-94401276D01*
X77218147Y-94528282D01*
X77165822Y-94520886D01*
X77118393Y-94508407D01*
X77069244Y-94487423D01*
X77026757Y-94459520D01*
X76995642Y-94430096D01*
X76965758Y-94390010D01*
X76943215Y-94344338D01*
X76928012Y-94293078D01*
X76920822Y-94244695D01*
X76918949Y-94201241D01*
X76921791Y-94149048D01*
X76932292Y-94093518D01*
X76950529Y-94043761D01*
X76976504Y-93999778D01*
X76999794Y-93971897D01*
X77037010Y-93938968D01*
X77084065Y-93911239D01*
X77135943Y-93894074D01*
X77185294Y-93887719D01*
X77200073Y-93887389D01*
X77249164Y-93891460D01*
X77297610Y-93903674D01*
X77319752Y-93912057D01*
X77364608Y-93935161D01*
X77407296Y-93964426D01*
X77443339Y-93994123D01*
X77483709Y-94032417D01*
X77520397Y-94070510D01*
X77555528Y-94108947D01*
X77594059Y-94152724D01*
X77621636Y-94184877D01*
X77654944Y-94223760D01*
X77688398Y-94262069D01*
X77722858Y-94300162D01*
X77749863Y-94327759D01*
X77787937Y-94359727D01*
X77817763Y-94379782D01*
X77817763Y-93885923D01*
G37*
G36*
X77950631Y-93815581D02*
G01*
X76903318Y-93523711D01*
X76903318Y-93424793D01*
X77950631Y-93715930D01*
X77950631Y-93815581D01*
G37*
G36*
X77602341Y-93363488D02*
G01*
X77591106Y-93237947D01*
X77641995Y-93228964D01*
X77689874Y-93212843D01*
X77720554Y-93196426D01*
X77758448Y-93163908D01*
X77787775Y-93123374D01*
X77802376Y-93095065D01*
X77820036Y-93045721D01*
X77829729Y-92997407D01*
X77833364Y-92945801D01*
X77833394Y-92940459D01*
X77830710Y-92890176D01*
X77821660Y-92840127D01*
X77810680Y-92805881D01*
X77787365Y-92760387D01*
X77752820Y-92722591D01*
X77747909Y-92718931D01*
X77703351Y-92696634D01*
X77660715Y-92690355D01*
X77610921Y-92699087D01*
X77577428Y-92717954D01*
X77544455Y-92754285D01*
X77520413Y-92800801D01*
X77517344Y-92808568D01*
X77501543Y-92857715D01*
X77487203Y-92910725D01*
X77474127Y-92962693D01*
X77468007Y-92987842D01*
X77455505Y-93036947D01*
X77441266Y-93086855D01*
X77425452Y-93134162D01*
X77404504Y-93182260D01*
X77376005Y-93227466D01*
X77343235Y-93264014D01*
X77309738Y-93289727D01*
X77265499Y-93311308D01*
X77217414Y-93322928D01*
X77183220Y-93325142D01*
X77131538Y-93320033D01*
X77082281Y-93304708D01*
X77039605Y-93281911D01*
X77000927Y-93250875D01*
X76968546Y-93212111D01*
X76942461Y-93165619D01*
X76938000Y-93155393D01*
X76921235Y-93107194D01*
X76909956Y-93056020D01*
X76904164Y-93001870D01*
X76903318Y-92970501D01*
X76905592Y-92916218D01*
X76912416Y-92865232D01*
X76923788Y-92817544D01*
X76939710Y-92773153D01*
X76962767Y-92728197D01*
X76994776Y-92685589D01*
X77033512Y-92650708D01*
X77046444Y-92641750D01*
X77092373Y-92617073D01*
X77141928Y-92600744D01*
X77195108Y-92592763D01*
X77206179Y-92592169D01*
X77215949Y-92719908D01*
X77165292Y-92729581D01*
X77117798Y-92749483D01*
X77076244Y-92782505D01*
X77069891Y-92789761D01*
X77043874Y-92832389D01*
X77028697Y-92880217D01*
X77021759Y-92930256D01*
X77020554Y-92965128D01*
X77022693Y-93014889D01*
X77030375Y-93064089D01*
X77047835Y-93114083D01*
X77065251Y-93141471D01*
X77101200Y-93175108D01*
X77149740Y-93194729D01*
X77172718Y-93196670D01*
X77222543Y-93186839D01*
X77262599Y-93157347D01*
X77289252Y-93111139D01*
X77307326Y-93060947D01*
X77321042Y-93013125D01*
X77334895Y-92956579D01*
X77346199Y-92908309D01*
X77359182Y-92856949D01*
X77373526Y-92806081D01*
X77390697Y-92755001D01*
X77399619Y-92733586D01*
X77424282Y-92687778D01*
X77455719Y-92645446D01*
X77495203Y-92609294D01*
X77502934Y-92603893D01*
X77548172Y-92579975D01*
X77597912Y-92565985D01*
X77647037Y-92561883D01*
X77696659Y-92566391D01*
X77744467Y-92579915D01*
X77790463Y-92602455D01*
X77799445Y-92608045D01*
X77841071Y-92640679D01*
X77876496Y-92681184D01*
X77903076Y-92724369D01*
X77910819Y-92740180D01*
X77930064Y-92790378D01*
X77941883Y-92837852D01*
X77948726Y-92888014D01*
X77950631Y-92934109D01*
X77949197Y-92983846D01*
X77943899Y-93037943D01*
X77934698Y-93087810D01*
X77919402Y-93139620D01*
X77909842Y-93163453D01*
X77886899Y-93207127D01*
X77854993Y-93250311D01*
X77816634Y-93287197D01*
X77787477Y-93308289D01*
X77739752Y-93333886D01*
X77688627Y-93351600D01*
X77640328Y-93360729D01*
X77602341Y-93363488D01*
G37*
G36*
X77670240Y-92434632D02*
G01*
X77653632Y-92311045D01*
X77701915Y-92298559D01*
X77747586Y-92280059D01*
X77790969Y-92251046D01*
X77803353Y-92238750D01*
X77831185Y-92197156D01*
X77846171Y-92149311D01*
X77849026Y-92113941D01*
X77843111Y-92061964D01*
X77825365Y-92015328D01*
X77795789Y-91974036D01*
X77788454Y-91966419D01*
X77747782Y-91934734D01*
X77701480Y-91914784D01*
X77649550Y-91906570D01*
X77638489Y-91906335D01*
X77588147Y-91911773D01*
X77539548Y-91930318D01*
X77498049Y-91962022D01*
X77466483Y-92003857D01*
X77448020Y-92052792D01*
X77442606Y-92103439D01*
X77447949Y-92154081D01*
X77456284Y-92190878D01*
X77339780Y-92176956D01*
X77341001Y-92157172D01*
X77336210Y-92104672D01*
X77321837Y-92055982D01*
X77300457Y-92015023D01*
X77267387Y-91979008D01*
X77219462Y-91956768D01*
X77175404Y-91951764D01*
X77124819Y-91959383D01*
X77078817Y-91984628D01*
X77064518Y-91997926D01*
X77036053Y-92039668D01*
X77022100Y-92090279D01*
X77020554Y-92116628D01*
X77026874Y-92167301D01*
X77047984Y-92214600D01*
X77065495Y-92236796D01*
X77105520Y-92268040D01*
X77153314Y-92288171D01*
X77200317Y-92298589D01*
X77178335Y-92422176D01*
X77126931Y-92409575D01*
X77080856Y-92391435D01*
X77034724Y-92363919D01*
X76995554Y-92329168D01*
X76986849Y-92319350D01*
X76957143Y-92276714D01*
X76935924Y-92229163D01*
X76923193Y-92176697D01*
X76919016Y-92126756D01*
X76918949Y-92119315D01*
X76922384Y-92069135D01*
X76934096Y-92016858D01*
X76954120Y-91967640D01*
X76981360Y-91923819D01*
X77014717Y-91887733D01*
X77050352Y-91861639D01*
X77097029Y-91839164D01*
X77145836Y-91827063D01*
X77179556Y-91824758D01*
X77230449Y-91830522D01*
X77277552Y-91847815D01*
X77298014Y-91859685D01*
X77337688Y-91893666D01*
X77367942Y-91934979D01*
X77382766Y-91963488D01*
X77397980Y-91916373D01*
X77423177Y-91871455D01*
X77457104Y-91834361D01*
X77468984Y-91824758D01*
X77513115Y-91798612D01*
X77563685Y-91782149D01*
X77614705Y-91775612D01*
X77632871Y-91775177D01*
X77689072Y-91779781D01*
X77741417Y-91793596D01*
X77789905Y-91816620D01*
X77834536Y-91848854D01*
X77858307Y-91871408D01*
X77889683Y-91909273D01*
X77918083Y-91957941D01*
X77937648Y-92011447D01*
X77947385Y-92061161D01*
X77950631Y-92114430D01*
X77946903Y-92170302D01*
X77935718Y-92221874D01*
X77917077Y-92269144D01*
X77890979Y-92312114D01*
X77872718Y-92334737D01*
X77836315Y-92369404D01*
X77795494Y-92396894D01*
X77750255Y-92417208D01*
X77700599Y-92430347D01*
X77670240Y-92434632D01*
G37*
X123785714Y-83046009D02*
X123928571Y-83093628D01*
X123928571Y-83093628D02*
X123976190Y-83141247D01*
X123976190Y-83141247D02*
X124023809Y-83236485D01*
X124023809Y-83236485D02*
X124023809Y-83379342D01*
X124023809Y-83379342D02*
X123976190Y-83474580D01*
X123976190Y-83474580D02*
X123928571Y-83522200D01*
X123928571Y-83522200D02*
X123833333Y-83569819D01*
X123833333Y-83569819D02*
X123452381Y-83569819D01*
X123452381Y-83569819D02*
X123452381Y-82569819D01*
X123452381Y-82569819D02*
X123785714Y-82569819D01*
X123785714Y-82569819D02*
X123880952Y-82617438D01*
X123880952Y-82617438D02*
X123928571Y-82665057D01*
X123928571Y-82665057D02*
X123976190Y-82760295D01*
X123976190Y-82760295D02*
X123976190Y-82855533D01*
X123976190Y-82855533D02*
X123928571Y-82950771D01*
X123928571Y-82950771D02*
X123880952Y-82998390D01*
X123880952Y-82998390D02*
X123785714Y-83046009D01*
X123785714Y-83046009D02*
X123452381Y-83046009D01*
X124404762Y-83284104D02*
X124880952Y-83284104D01*
X124309524Y-83569819D02*
X124642857Y-82569819D01*
X124642857Y-82569819D02*
X124976190Y-83569819D01*
X125166667Y-82569819D02*
X125738095Y-82569819D01*
X125452381Y-83569819D02*
X125452381Y-82569819D01*
X126595238Y-83569819D02*
X126023810Y-83569819D01*
X126309524Y-83569819D02*
X126309524Y-82569819D01*
X126309524Y-82569819D02*
X126214286Y-82712676D01*
X126214286Y-82712676D02*
X126119048Y-82807914D01*
X126119048Y-82807914D02*
X126023810Y-82855533D01*
X65619380Y-104594819D02*
X65286047Y-104118628D01*
X65047952Y-104594819D02*
X65047952Y-103594819D01*
X65047952Y-103594819D02*
X65428904Y-103594819D01*
X65428904Y-103594819D02*
X65524142Y-103642438D01*
X65524142Y-103642438D02*
X65571761Y-103690057D01*
X65571761Y-103690057D02*
X65619380Y-103785295D01*
X65619380Y-103785295D02*
X65619380Y-103928152D01*
X65619380Y-103928152D02*
X65571761Y-104023390D01*
X65571761Y-104023390D02*
X65524142Y-104071009D01*
X65524142Y-104071009D02*
X65428904Y-104118628D01*
X65428904Y-104118628D02*
X65047952Y-104118628D01*
X66000333Y-104547200D02*
X66143190Y-104594819D01*
X66143190Y-104594819D02*
X66381285Y-104594819D01*
X66381285Y-104594819D02*
X66476523Y-104547200D01*
X66476523Y-104547200D02*
X66524142Y-104499580D01*
X66524142Y-104499580D02*
X66571761Y-104404342D01*
X66571761Y-104404342D02*
X66571761Y-104309104D01*
X66571761Y-104309104D02*
X66524142Y-104213866D01*
X66524142Y-104213866D02*
X66476523Y-104166247D01*
X66476523Y-104166247D02*
X66381285Y-104118628D01*
X66381285Y-104118628D02*
X66190809Y-104071009D01*
X66190809Y-104071009D02*
X66095571Y-104023390D01*
X66095571Y-104023390D02*
X66047952Y-103975771D01*
X66047952Y-103975771D02*
X66000333Y-103880533D01*
X66000333Y-103880533D02*
X66000333Y-103785295D01*
X66000333Y-103785295D02*
X66047952Y-103690057D01*
X66047952Y-103690057D02*
X66095571Y-103642438D01*
X66095571Y-103642438D02*
X66190809Y-103594819D01*
X66190809Y-103594819D02*
X66428904Y-103594819D01*
X66428904Y-103594819D02*
X66571761Y-103642438D01*
X66857476Y-103594819D02*
X67428904Y-103594819D01*
X67143190Y-104594819D02*
X67143190Y-103594819D01*
X61252200Y-95348332D02*
X61299819Y-95205475D01*
X61299819Y-95205475D02*
X61299819Y-94967380D01*
X61299819Y-94967380D02*
X61252200Y-94872142D01*
X61252200Y-94872142D02*
X61204580Y-94824523D01*
X61204580Y-94824523D02*
X61109342Y-94776904D01*
X61109342Y-94776904D02*
X61014104Y-94776904D01*
X61014104Y-94776904D02*
X60918866Y-94824523D01*
X60918866Y-94824523D02*
X60871247Y-94872142D01*
X60871247Y-94872142D02*
X60823628Y-94967380D01*
X60823628Y-94967380D02*
X60776009Y-95157856D01*
X60776009Y-95157856D02*
X60728390Y-95253094D01*
X60728390Y-95253094D02*
X60680771Y-95300713D01*
X60680771Y-95300713D02*
X60585533Y-95348332D01*
X60585533Y-95348332D02*
X60490295Y-95348332D01*
X60490295Y-95348332D02*
X60395057Y-95300713D01*
X60395057Y-95300713D02*
X60347438Y-95253094D01*
X60347438Y-95253094D02*
X60299819Y-95157856D01*
X60299819Y-95157856D02*
X60299819Y-94919761D01*
X60299819Y-94919761D02*
X60347438Y-94776904D01*
X60299819Y-94443570D02*
X61299819Y-94205475D01*
X61299819Y-94205475D02*
X60585533Y-94014999D01*
X60585533Y-94014999D02*
X61299819Y-93824523D01*
X61299819Y-93824523D02*
X60299819Y-93586428D01*
X61299819Y-92681666D02*
X61299819Y-93253094D01*
X61299819Y-92967380D02*
X60299819Y-92967380D01*
X60299819Y-92967380D02*
X60442676Y-93062618D01*
X60442676Y-93062618D02*
X60537914Y-93157856D01*
X60537914Y-93157856D02*
X60585533Y-93253094D01*
X74718152Y-95971904D02*
X75384819Y-95971904D01*
X74337200Y-96209999D02*
X75051485Y-96448094D01*
X75051485Y-96448094D02*
X75051485Y-95829047D01*
X74384819Y-95543332D02*
X74384819Y-94876666D01*
X74384819Y-94876666D02*
X75384819Y-95305237D01*
X74384819Y-94305237D02*
X74384819Y-94209999D01*
X74384819Y-94209999D02*
X74432438Y-94114761D01*
X74432438Y-94114761D02*
X74480057Y-94067142D01*
X74480057Y-94067142D02*
X74575295Y-94019523D01*
X74575295Y-94019523D02*
X74765771Y-93971904D01*
X74765771Y-93971904D02*
X75003866Y-93971904D01*
X75003866Y-93971904D02*
X75194342Y-94019523D01*
X75194342Y-94019523D02*
X75289580Y-94067142D01*
X75289580Y-94067142D02*
X75337200Y-94114761D01*
X75337200Y-94114761D02*
X75384819Y-94209999D01*
X75384819Y-94209999D02*
X75384819Y-94305237D01*
X75384819Y-94305237D02*
X75337200Y-94400475D01*
X75337200Y-94400475D02*
X75289580Y-94448094D01*
X75289580Y-94448094D02*
X75194342Y-94495713D01*
X75194342Y-94495713D02*
X75003866Y-94543332D01*
X75003866Y-94543332D02*
X74765771Y-94543332D01*
X74765771Y-94543332D02*
X74575295Y-94495713D01*
X74575295Y-94495713D02*
X74480057Y-94448094D01*
X74480057Y-94448094D02*
X74432438Y-94400475D01*
X74432438Y-94400475D02*
X74384819Y-94305237D01*
X75384819Y-93543332D02*
X74384819Y-93543332D01*
X75384819Y-92971904D02*
X74813390Y-93400475D01*
X74384819Y-92971904D02*
X74956247Y-93543332D01*
X70670057Y-96428094D02*
X70622438Y-96380475D01*
X70622438Y-96380475D02*
X70574819Y-96285237D01*
X70574819Y-96285237D02*
X70574819Y-96047142D01*
X70574819Y-96047142D02*
X70622438Y-95951904D01*
X70622438Y-95951904D02*
X70670057Y-95904285D01*
X70670057Y-95904285D02*
X70765295Y-95856666D01*
X70765295Y-95856666D02*
X70860533Y-95856666D01*
X70860533Y-95856666D02*
X71003390Y-95904285D01*
X71003390Y-95904285D02*
X71574819Y-96475713D01*
X71574819Y-96475713D02*
X71574819Y-95856666D01*
X70670057Y-95475713D02*
X70622438Y-95428094D01*
X70622438Y-95428094D02*
X70574819Y-95332856D01*
X70574819Y-95332856D02*
X70574819Y-95094761D01*
X70574819Y-95094761D02*
X70622438Y-94999523D01*
X70622438Y-94999523D02*
X70670057Y-94951904D01*
X70670057Y-94951904D02*
X70765295Y-94904285D01*
X70765295Y-94904285D02*
X70860533Y-94904285D01*
X70860533Y-94904285D02*
X71003390Y-94951904D01*
X71003390Y-94951904D02*
X71574819Y-95523332D01*
X71574819Y-95523332D02*
X71574819Y-94904285D01*
X70574819Y-94285237D02*
X70574819Y-94189999D01*
X70574819Y-94189999D02*
X70622438Y-94094761D01*
X70622438Y-94094761D02*
X70670057Y-94047142D01*
X70670057Y-94047142D02*
X70765295Y-93999523D01*
X70765295Y-93999523D02*
X70955771Y-93951904D01*
X70955771Y-93951904D02*
X71193866Y-93951904D01*
X71193866Y-93951904D02*
X71384342Y-93999523D01*
X71384342Y-93999523D02*
X71479580Y-94047142D01*
X71479580Y-94047142D02*
X71527200Y-94094761D01*
X71527200Y-94094761D02*
X71574819Y-94189999D01*
X71574819Y-94189999D02*
X71574819Y-94285237D01*
X71574819Y-94285237D02*
X71527200Y-94380475D01*
X71527200Y-94380475D02*
X71479580Y-94428094D01*
X71479580Y-94428094D02*
X71384342Y-94475713D01*
X71384342Y-94475713D02*
X71193866Y-94523332D01*
X71193866Y-94523332D02*
X70955771Y-94523332D01*
X70955771Y-94523332D02*
X70765295Y-94475713D01*
X70765295Y-94475713D02*
X70670057Y-94428094D01*
X70670057Y-94428094D02*
X70622438Y-94380475D01*
X70622438Y-94380475D02*
X70574819Y-94285237D01*
X71574819Y-93523332D02*
X70574819Y-93523332D01*
X71574819Y-92951904D02*
X71003390Y-93380475D01*
X70574819Y-92951904D02*
X71146247Y-93523332D01*
X64434551Y-100051877D02*
X64905956Y-100523282D01*
X63996818Y-99950862D02*
X64333536Y-100624297D01*
X64333536Y-100624297D02*
X64771269Y-100186564D01*
X65209001Y-100085549D02*
X65276345Y-100085549D01*
X65276345Y-100085549D02*
X65276345Y-100152892D01*
X65276345Y-100152892D02*
X65209001Y-100152892D01*
X65209001Y-100152892D02*
X65209001Y-100085549D01*
X65209001Y-100085549D02*
X65276345Y-100152892D01*
X64838612Y-99176412D02*
X65310016Y-98705007D01*
X65310016Y-98705007D02*
X65714077Y-99715160D01*
X66286497Y-99142740D02*
X65579390Y-98435633D01*
X66690558Y-98738679D02*
X65983451Y-98637664D01*
X65983451Y-98031572D02*
X65983451Y-98839694D01*
X75525952Y-101184819D02*
X75716428Y-101184819D01*
X75716428Y-101184819D02*
X75811666Y-101232438D01*
X75811666Y-101232438D02*
X75906904Y-101327676D01*
X75906904Y-101327676D02*
X75954523Y-101518152D01*
X75954523Y-101518152D02*
X75954523Y-101851485D01*
X75954523Y-101851485D02*
X75906904Y-102041961D01*
X75906904Y-102041961D02*
X75811666Y-102137200D01*
X75811666Y-102137200D02*
X75716428Y-102184819D01*
X75716428Y-102184819D02*
X75525952Y-102184819D01*
X75525952Y-102184819D02*
X75430714Y-102137200D01*
X75430714Y-102137200D02*
X75335476Y-102041961D01*
X75335476Y-102041961D02*
X75287857Y-101851485D01*
X75287857Y-101851485D02*
X75287857Y-101518152D01*
X75287857Y-101518152D02*
X75335476Y-101327676D01*
X75335476Y-101327676D02*
X75430714Y-101232438D01*
X75430714Y-101232438D02*
X75525952Y-101184819D01*
X76383095Y-101184819D02*
X76383095Y-101994342D01*
X76383095Y-101994342D02*
X76430714Y-102089580D01*
X76430714Y-102089580D02*
X76478333Y-102137200D01*
X76478333Y-102137200D02*
X76573571Y-102184819D01*
X76573571Y-102184819D02*
X76764047Y-102184819D01*
X76764047Y-102184819D02*
X76859285Y-102137200D01*
X76859285Y-102137200D02*
X76906904Y-102089580D01*
X76906904Y-102089580D02*
X76954523Y-101994342D01*
X76954523Y-101994342D02*
X76954523Y-101184819D01*
X77287857Y-101184819D02*
X77859285Y-101184819D01*
X77573571Y-102184819D02*
X77573571Y-101184819D01*
X78192619Y-101803866D02*
X78954524Y-101803866D01*
X77597381Y-99641009D02*
X77740238Y-99688628D01*
X77740238Y-99688628D02*
X77787857Y-99736247D01*
X77787857Y-99736247D02*
X77835476Y-99831485D01*
X77835476Y-99831485D02*
X77835476Y-99974342D01*
X77835476Y-99974342D02*
X77787857Y-100069580D01*
X77787857Y-100069580D02*
X77740238Y-100117200D01*
X77740238Y-100117200D02*
X77645000Y-100164819D01*
X77645000Y-100164819D02*
X77264048Y-100164819D01*
X77264048Y-100164819D02*
X77264048Y-99164819D01*
X77264048Y-99164819D02*
X77597381Y-99164819D01*
X77597381Y-99164819D02*
X77692619Y-99212438D01*
X77692619Y-99212438D02*
X77740238Y-99260057D01*
X77740238Y-99260057D02*
X77787857Y-99355295D01*
X77787857Y-99355295D02*
X77787857Y-99450533D01*
X77787857Y-99450533D02*
X77740238Y-99545771D01*
X77740238Y-99545771D02*
X77692619Y-99593390D01*
X77692619Y-99593390D02*
X77597381Y-99641009D01*
X77597381Y-99641009D02*
X77264048Y-99641009D01*
X78264048Y-99783866D02*
X79025953Y-99783866D01*
X59502143Y-102184819D02*
X59502143Y-101184819D01*
X59978333Y-102184819D02*
X59978333Y-101184819D01*
X59978333Y-101184819D02*
X60549761Y-102184819D01*
X60549761Y-102184819D02*
X60549761Y-101184819D01*
X61025952Y-101803866D02*
X61787857Y-101803866D01*
X77597381Y-89481009D02*
X77740238Y-89528628D01*
X77740238Y-89528628D02*
X77787857Y-89576247D01*
X77787857Y-89576247D02*
X77835476Y-89671485D01*
X77835476Y-89671485D02*
X77835476Y-89814342D01*
X77835476Y-89814342D02*
X77787857Y-89909580D01*
X77787857Y-89909580D02*
X77740238Y-89957200D01*
X77740238Y-89957200D02*
X77645000Y-90004819D01*
X77645000Y-90004819D02*
X77264048Y-90004819D01*
X77264048Y-90004819D02*
X77264048Y-89004819D01*
X77264048Y-89004819D02*
X77597381Y-89004819D01*
X77597381Y-89004819D02*
X77692619Y-89052438D01*
X77692619Y-89052438D02*
X77740238Y-89100057D01*
X77740238Y-89100057D02*
X77787857Y-89195295D01*
X77787857Y-89195295D02*
X77787857Y-89290533D01*
X77787857Y-89290533D02*
X77740238Y-89385771D01*
X77740238Y-89385771D02*
X77692619Y-89433390D01*
X77692619Y-89433390D02*
X77597381Y-89481009D01*
X77597381Y-89481009D02*
X77264048Y-89481009D01*
X78264048Y-89623866D02*
X79025953Y-89623866D01*
X78645000Y-90004819D02*
X78645000Y-89242914D01*
X75525952Y-87184819D02*
X75716428Y-87184819D01*
X75716428Y-87184819D02*
X75811666Y-87232438D01*
X75811666Y-87232438D02*
X75906904Y-87327676D01*
X75906904Y-87327676D02*
X75954523Y-87518152D01*
X75954523Y-87518152D02*
X75954523Y-87851485D01*
X75954523Y-87851485D02*
X75906904Y-88041961D01*
X75906904Y-88041961D02*
X75811666Y-88137200D01*
X75811666Y-88137200D02*
X75716428Y-88184819D01*
X75716428Y-88184819D02*
X75525952Y-88184819D01*
X75525952Y-88184819D02*
X75430714Y-88137200D01*
X75430714Y-88137200D02*
X75335476Y-88041961D01*
X75335476Y-88041961D02*
X75287857Y-87851485D01*
X75287857Y-87851485D02*
X75287857Y-87518152D01*
X75287857Y-87518152D02*
X75335476Y-87327676D01*
X75335476Y-87327676D02*
X75430714Y-87232438D01*
X75430714Y-87232438D02*
X75525952Y-87184819D01*
X76383095Y-87184819D02*
X76383095Y-87994342D01*
X76383095Y-87994342D02*
X76430714Y-88089580D01*
X76430714Y-88089580D02*
X76478333Y-88137200D01*
X76478333Y-88137200D02*
X76573571Y-88184819D01*
X76573571Y-88184819D02*
X76764047Y-88184819D01*
X76764047Y-88184819D02*
X76859285Y-88137200D01*
X76859285Y-88137200D02*
X76906904Y-88089580D01*
X76906904Y-88089580D02*
X76954523Y-87994342D01*
X76954523Y-87994342D02*
X76954523Y-87184819D01*
X77287857Y-87184819D02*
X77859285Y-87184819D01*
X77573571Y-88184819D02*
X77573571Y-87184819D01*
X78192619Y-87803866D02*
X78954524Y-87803866D01*
X78573571Y-88184819D02*
X78573571Y-87422914D01*
X59502143Y-88184819D02*
X59502143Y-87184819D01*
X59978333Y-88184819D02*
X59978333Y-87184819D01*
X59978333Y-87184819D02*
X60549761Y-88184819D01*
X60549761Y-88184819D02*
X60549761Y-87184819D01*
X61025952Y-87803866D02*
X61787857Y-87803866D01*
X61406904Y-88184819D02*
X61406904Y-87422914D01*
X64434482Y-88953693D02*
X65141589Y-88246587D01*
X65141589Y-88246587D02*
X65309948Y-88414945D01*
X65309948Y-88414945D02*
X65377291Y-88549632D01*
X65377291Y-88549632D02*
X65377291Y-88684319D01*
X65377291Y-88684319D02*
X65343619Y-88785335D01*
X65343619Y-88785335D02*
X65242604Y-88953693D01*
X65242604Y-88953693D02*
X65141589Y-89054709D01*
X65141589Y-89054709D02*
X64973230Y-89155724D01*
X64973230Y-89155724D02*
X64872215Y-89189396D01*
X64872215Y-89189396D02*
X64737528Y-89189396D01*
X64737528Y-89189396D02*
X64602841Y-89122052D01*
X64602841Y-89122052D02*
X64434482Y-88953693D01*
X65511978Y-90031189D02*
X65107917Y-89627128D01*
X65309948Y-89829159D02*
X66017054Y-89122052D01*
X66017054Y-89122052D02*
X65848696Y-89155724D01*
X65848696Y-89155724D02*
X65714009Y-89155724D01*
X65714009Y-89155724D02*
X65612993Y-89122052D01*
X66192484Y-93257279D02*
X66899591Y-92550173D01*
X66596545Y-93661341D02*
X66697561Y-92954234D01*
X67303652Y-92954234D02*
X66495530Y-92954234D01*
D12*
%TO.C,BAT1*%
X83110000Y-88900000D02*
X85610000Y-88900000D01*
X84360000Y-90150000D02*
X84360000Y-87650000D01*
X86360000Y-84175000D02*
X86360000Y-91175000D01*
X86360000Y-91175000D02*
X82455000Y-91175000D01*
X86360000Y-105055000D02*
X86360000Y-98055000D01*
D13*
X100235000Y-94615000D02*
X107855000Y-94615000D01*
X104045000Y-90805000D02*
X104045000Y-98425000D01*
X140875000Y-94615000D02*
X147225000Y-94615000D01*
D12*
X163640000Y-84175000D02*
X86360000Y-84175000D01*
X163640000Y-91175000D02*
X163640000Y-84195000D01*
X163640000Y-98055000D02*
X163640000Y-105055000D01*
X163640000Y-105055000D02*
X86360000Y-105055000D01*
X166890000Y-88900000D02*
X164390000Y-88900000D01*
%TO.C,J1*%
X66481000Y-104842000D02*
X66481000Y-106172000D01*
X65151000Y-104842000D02*
X66481000Y-104842000D01*
X63881000Y-104842000D02*
X61281000Y-104842000D01*
X63881000Y-104842000D02*
X63881000Y-107502000D01*
X61281000Y-104842000D02*
X61281000Y-107502000D01*
X63881000Y-107502000D02*
X61281000Y-107502000D01*
D10*
%TO.C,SW1*%
X54945000Y-90315000D02*
X54945000Y-92515000D01*
X54945000Y-96615000D02*
X54945000Y-98915000D01*
X59545000Y-90315000D02*
X59545000Y-98915000D01*
D12*
%TO.C,R3*%
X73560000Y-91440000D02*
X73560000Y-97980000D01*
X73560000Y-97980000D02*
X73890000Y-97980000D01*
X73890000Y-91440000D02*
X73560000Y-91440000D01*
X75970000Y-91440000D02*
X76300000Y-91440000D01*
X76300000Y-91440000D02*
X76300000Y-97980000D01*
X76300000Y-97980000D02*
X75970000Y-97980000D01*
%TO.C,R2*%
X69750000Y-91420000D02*
X70080000Y-91420000D01*
X69750000Y-97960000D02*
X69750000Y-91420000D01*
X70080000Y-97960000D02*
X69750000Y-97960000D01*
X72160000Y-97960000D02*
X72490000Y-97960000D01*
X72490000Y-91420000D02*
X72160000Y-91420000D01*
X72490000Y-97960000D02*
X72490000Y-91420000D01*
%TO.C,R1*%
X62026472Y-100811580D02*
X66650951Y-96187102D01*
X62259818Y-101044925D02*
X62026472Y-100811580D01*
X63730600Y-102515707D02*
X63963945Y-102749053D01*
X63963945Y-102749053D02*
X68588423Y-98124574D01*
X66650951Y-96187102D02*
X66884296Y-96420447D01*
X68588423Y-98124574D02*
X68355078Y-97891229D01*
%TO.C,U2*%
X56145000Y-86030000D02*
X56145000Y-103230000D01*
X56145000Y-86030000D02*
X84145000Y-86030000D01*
X56145000Y-103230000D02*
X84145000Y-103230000D01*
D14*
X82145000Y-87990000D02*
X82145000Y-101144315D01*
X82145000Y-101144315D02*
X84085000Y-101147906D01*
X84145000Y-86030000D02*
X84145000Y-87990000D01*
X84145000Y-87990000D02*
X82145000Y-87990001D01*
X84145000Y-103230000D02*
X84145000Y-101147906D01*
D12*
%TO.C,D1*%
X62986974Y-88446893D02*
X65985107Y-91445026D01*
X63319314Y-87195314D02*
X63778934Y-87654934D01*
X64570893Y-86862974D02*
X62986974Y-88446893D01*
X65391137Y-90851056D02*
X66975056Y-89267137D01*
X65475990Y-90935909D02*
X67059909Y-89351990D01*
X65560843Y-91020762D02*
X67144762Y-89436843D01*
X65985107Y-91445026D02*
X67569026Y-89861107D01*
X67236686Y-91112686D02*
X66777067Y-90653067D01*
X67569026Y-89861107D02*
X64570893Y-86862974D01*
%TD*%
M02*
