%TF.GenerationSoftware,KiCad,Pcbnew,8.0.1*%
%TF.CreationDate,2024-06-06T13:27:33-04:00*%
%TF.ProjectId,PillPCB,50696c6c-5043-4422-9e6b-696361645f70,rev?*%
%TF.SameCoordinates,Original*%
%TF.FileFunction,Copper,L2,Bot*%
%TF.FilePolarity,Positive*%
%FSLAX46Y46*%
G04 Gerber Fmt 4.6, Leading zero omitted, Abs format (unit mm)*
G04 Created by KiCad (PCBNEW 8.0.1) date 2024-06-06 13:27:33*
%MOMM*%
%LPD*%
G01*
G04 APERTURE LIST*
G04 Aperture macros list*
%AMRoundRect*
0 Rectangle with rounded corners*
0 $1 Rounding radius*
0 $2 $3 $4 $5 $6 $7 $8 $9 X,Y pos of 4 corners*
0 Add a 4 corners polygon primitive as box body*
4,1,4,$2,$3,$4,$5,$6,$7,$8,$9,$2,$3,0*
0 Add four circle primitives for the rounded corners*
1,1,$1+$1,$2,$3*
1,1,$1+$1,$4,$5*
1,1,$1+$1,$6,$7*
1,1,$1+$1,$8,$9*
0 Add four rect primitives between the rounded corners*
20,1,$1+$1,$2,$3,$4,$5,0*
20,1,$1+$1,$4,$5,$6,$7,0*
20,1,$1+$1,$6,$7,$8,$9,0*
20,1,$1+$1,$8,$9,$2,$3,0*%
%AMHorizOval*
0 Thick line with rounded ends*
0 $1 width*
0 $2 $3 position (X,Y) of the first rounded end (center of the circle)*
0 $4 $5 position (X,Y) of the second rounded end (center of the circle)*
0 Add line between two ends*
20,1,$1,$2,$3,$4,$5,0*
0 Add two circle primitives to create the rounded ends*
1,1,$1,$2,$3*
1,1,$1,$4,$5*%
%AMRotRect*
0 Rectangle, with rotation*
0 The origin of the aperture is its center*
0 $1 length*
0 $2 width*
0 $3 Rotation angle, in degrees counterclockwise*
0 Add horizontal line*
21,1,$1,$2,0,0,$3*%
G04 Aperture macros list end*
%TA.AperFunction,EtchedComponent*%
%ADD10C,0.100000*%
%TD*%
%TA.AperFunction,ComponentPad*%
%ADD11R,1.700000X1.700000*%
%TD*%
%TA.AperFunction,ComponentPad*%
%ADD12O,1.700000X1.700000*%
%TD*%
%TA.AperFunction,ComponentPad*%
%ADD13O,3.500000X2.200000*%
%TD*%
%TA.AperFunction,ComponentPad*%
%ADD14R,2.500000X1.500000*%
%TD*%
%TA.AperFunction,ComponentPad*%
%ADD15O,2.500000X1.500000*%
%TD*%
%TA.AperFunction,ComponentPad*%
%ADD16C,1.600000*%
%TD*%
%TA.AperFunction,ComponentPad*%
%ADD17O,1.600000X1.600000*%
%TD*%
%TA.AperFunction,ComponentPad*%
%ADD18HorizOval,1.600000X0.000000X0.000000X0.000000X0.000000X0*%
%TD*%
%TA.AperFunction,ComponentPad*%
%ADD19R,2.000000X2.000000*%
%TD*%
%TA.AperFunction,ComponentPad*%
%ADD20RotRect,1.600000X1.600000X135.000000*%
%TD*%
%TA.AperFunction,ComponentPad*%
%ADD21HorizOval,1.600000X0.000000X0.000000X0.000000X0.000000X0*%
%TD*%
%TA.AperFunction,ComponentPad*%
%ADD22R,1.500000X1.050000*%
%TD*%
%TA.AperFunction,ComponentPad*%
%ADD23O,1.500000X1.050000*%
%TD*%
%TA.AperFunction,SMDPad,CuDef*%
%ADD24RoundRect,2.000000X2.000000X5.500000X-2.000000X5.500000X-2.000000X-5.500000X2.000000X-5.500000X0*%
%TD*%
%TA.AperFunction,ComponentPad*%
%ADD25O,1.600000X2.000000*%
%TD*%
%TA.AperFunction,ViaPad*%
%ADD26C,0.800000*%
%TD*%
%TA.AperFunction,Conductor*%
%ADD27C,0.250000*%
%TD*%
%TA.AperFunction,Conductor*%
%ADD28C,0.750000*%
%TD*%
G04 APERTURE END LIST*
%TO.C,REF\u002A\u002A*%
D10*
X167640000Y-82677000D02*
X163240036Y-82677000D01*
X163240036Y-86568890D01*
X167640000Y-86568890D01*
X167640000Y-82677000D01*
%TA.AperFunction,EtchedComponent*%
G36*
X167640000Y-82677000D02*
G01*
X163240036Y-82677000D01*
X163240036Y-86568890D01*
X167640000Y-86568890D01*
X167640000Y-82677000D01*
G37*
%TD.AperFunction*%
X167640000Y-102670000D02*
X163195000Y-102670000D01*
X163195000Y-106561890D01*
X167640000Y-106561890D01*
X167640000Y-102670000D01*
%TA.AperFunction,EtchedComponent*%
G36*
X167640000Y-102670000D02*
G01*
X163195000Y-102670000D01*
X163195000Y-106561890D01*
X167640000Y-106561890D01*
X167640000Y-102670000D01*
G37*
%TD.AperFunction*%
X170815000Y-87503000D02*
X170815000Y-88900000D01*
X168910000Y-88900000D01*
X167640000Y-86568890D01*
X167005000Y-82677000D01*
X167767000Y-82677000D01*
X170815000Y-87503000D01*
%TA.AperFunction,EtchedComponent*%
G36*
X170815000Y-87503000D02*
G01*
X170815000Y-88900000D01*
X168910000Y-88900000D01*
X167640000Y-86568890D01*
X167005000Y-82677000D01*
X167767000Y-82677000D01*
X170815000Y-87503000D01*
G37*
%TD.AperFunction*%
X170769964Y-101735890D02*
X167721964Y-106561890D01*
X166959964Y-106561890D01*
X167640000Y-102670000D01*
X168910000Y-100338890D01*
X170769964Y-100338890D01*
X170769964Y-101735890D01*
%TA.AperFunction,EtchedComponent*%
G36*
X170769964Y-101735890D02*
G01*
X167721964Y-106561890D01*
X166959964Y-106561890D01*
X167640000Y-102670000D01*
X168910000Y-100338890D01*
X170769964Y-100338890D01*
X170769964Y-101735890D01*
G37*
%TD.AperFunction*%
%TD*%
D11*
%TO.P,J1,1,Pin_1*%
%TO.N,Net-(D1-A)*%
X65151000Y-106172000D03*
D12*
%TO.P,J1,2,Pin_2*%
%TO.N,GND*%
X62611000Y-106172000D03*
%TD*%
D13*
%TO.P,SW1,*%
%TO.N,*%
X57245000Y-90515000D03*
X57245000Y-98715000D03*
D14*
%TO.P,SW1,1,A*%
%TO.N,unconnected-(SW1-A-Pad1)*%
X57245000Y-92615000D03*
D15*
%TO.P,SW1,2,B*%
%TO.N,Net-(SW1-B)*%
X57245000Y-94615000D03*
%TO.P,SW1,3,C*%
%TO.N,VCC*%
X57245000Y-96615000D03*
%TD*%
D16*
%TO.P,R3,1*%
%TO.N,Net-(U1-A0)*%
X74930000Y-90900000D03*
D17*
%TO.P,R3,2*%
%TO.N,GND*%
X74930000Y-98520000D03*
%TD*%
D16*
%TO.P,R2,1*%
%TO.N,VCC*%
X71120000Y-98500000D03*
D17*
%TO.P,R2,2*%
%TO.N,Net-(U1-A0)*%
X71120000Y-90880000D03*
%TD*%
D16*
%TO.P,R1,1*%
%TO.N,VCC*%
X62613371Y-102162154D03*
D18*
%TO.P,R1,2*%
%TO.N,Net-(U1-MISO{slash}D6)*%
X68001525Y-96774000D03*
%TD*%
D19*
%TO.P,U2,1,+IN*%
%TO.N,unconnected-(U2-+IN-Pad1)*%
X57645000Y-87630000D03*
%TO.P,U2,2,-IN*%
%TO.N,GND*%
X57645000Y-101630000D03*
%TO.P,U2,3,OUT+*%
%TO.N,Net-(SW1-B)*%
X80645000Y-87630000D03*
%TO.P,U2,4,OUT-*%
%TO.N,GND*%
X80645000Y-101630000D03*
%TO.P,U2,5,B+*%
%TO.N,Net-(BAT1-+)*%
X80645000Y-90170000D03*
%TO.P,U2,6,B-*%
%TO.N,Net-(BAT1--)*%
X80645000Y-99090000D03*
%TD*%
D20*
%TO.P,D1,1,K*%
%TO.N,Net-(D1-K)*%
X67972077Y-91848077D03*
D21*
%TO.P,D1,2,A*%
%TO.N,Net-(D1-A)*%
X62583923Y-86459923D03*
%TD*%
D22*
%TO.P,U4,1,GND*%
%TO.N,GND*%
X153670000Y-93350000D03*
D23*
%TO.P,U4,2,DQ*%
%TO.N,Net-(U1-MISO{slash}D6)*%
X153670000Y-94620000D03*
%TO.P,U4,3,V_{DD}*%
%TO.N,VCC*%
X153670000Y-95890000D03*
%TD*%
D24*
%TO.P,REF\u002A\u002A,1*%
%TO.N,N/C*%
X163830000Y-94615000D03*
%TD*%
D19*
%TO.P,U1,1,~{RST}*%
%TO.N,Net-(D1-A)*%
X62420000Y-83260000D03*
D25*
%TO.P,U1,2,A0*%
%TO.N,Net-(U1-A0)*%
X64960000Y-83260000D03*
%TO.P,U1,3,D0*%
%TO.N,Net-(D1-K)*%
X67500000Y-83260000D03*
%TO.P,U1,5,MISO/D6*%
%TO.N,Net-(U1-MISO{slash}D6)*%
X72580000Y-83260000D03*
%TO.P,U1,9,5V*%
%TO.N,VCC*%
X80200000Y-106120000D03*
%TO.P,U1,10,GND*%
%TO.N,GND*%
X77660000Y-106120000D03*
%TO.P,U1,11,D4*%
%TO.N,Net-(U1-D4)*%
X75120000Y-106120000D03*
%TO.P,U1,12,D3*%
%TO.N,Net-(U1-D3)*%
X72580000Y-106120000D03*
%TD*%
D19*
%TO.P,U3,1,VCC*%
%TO.N,VCC*%
X129540000Y-88265000D03*
D25*
%TO.P,U3,2,GND*%
%TO.N,GND*%
X132080000Y-88265000D03*
%TO.P,U3,3,SCL*%
%TO.N,Net-(U1-D4)*%
X134620000Y-88265000D03*
%TO.P,U3,4,SDA*%
%TO.N,Net-(U1-D3)*%
X137160000Y-88265000D03*
%TD*%
D26*
%TO.N,Net-(D1-A)*%
X65151000Y-99568000D03*
X64262000Y-92837000D03*
%TO.N,GND*%
X153035000Y-104140000D03*
X153035000Y-107696000D03*
X106680000Y-104140000D03*
X121920000Y-107823000D03*
X92710000Y-107823000D03*
X106680000Y-107823000D03*
X85344000Y-101092000D03*
X92710000Y-104140000D03*
X121920000Y-104140000D03*
X82804000Y-103632000D03*
%TD*%
D27*
%TO.N,GND*%
X85344000Y-101092000D02*
X82804000Y-103632000D01*
D28*
%TO.N,VCC*%
X57250000Y-96620000D02*
X59790000Y-96620000D01*
X57245000Y-96615000D02*
X57250000Y-96620000D01*
D27*
%TO.N,Net-(D1-A)*%
X64262000Y-96139000D02*
X65151000Y-97028000D01*
X64262000Y-92837000D02*
X64262000Y-96139000D01*
X65151000Y-97028000D02*
X65151000Y-99568000D01*
%TO.N,Net-(D1-K)*%
X67500000Y-91376000D02*
X67972077Y-91848077D01*
X67500000Y-83260000D02*
X67500000Y-91376000D01*
%TO.N,Net-(D1-A)*%
X62420000Y-86296000D02*
X62583923Y-86459923D01*
X62420000Y-83260000D02*
X62420000Y-86296000D01*
D28*
%TO.N,VCC*%
X59790000Y-96620000D02*
X60960000Y-97790000D01*
X59790000Y-96620000D02*
X60198000Y-97028000D01*
X60960000Y-97790000D02*
X60960000Y-96974000D01*
X59790000Y-96620000D02*
X61214000Y-96620000D01*
D27*
%TO.N,GND*%
X153035000Y-104140000D02*
X153035000Y-107696000D01*
X121920000Y-104140000D02*
X121920000Y-107823000D01*
X106680000Y-104140000D02*
X106680000Y-107823000D01*
X92710000Y-104140000D02*
X92710000Y-107823000D01*
%TO.N,Net-(U1-MISO{slash}D6)*%
X69800000Y-86410000D02*
X69800000Y-94975525D01*
X69800000Y-94975525D02*
X68001525Y-96774000D01*
X72580000Y-83630000D02*
X69800000Y-86410000D01*
X72580000Y-83260000D02*
X72580000Y-83630000D01*
%TO.N,Net-(U1-D3)*%
X72580000Y-106120000D02*
X72580000Y-106260000D01*
X72390000Y-105930000D02*
X72390000Y-104902000D01*
X76708000Y-100584000D02*
X76708000Y-85977604D01*
X76708000Y-85977604D02*
X80643604Y-82042000D01*
X72580000Y-106120000D02*
X72390000Y-105930000D01*
X130937000Y-82042000D02*
X137160000Y-88265000D01*
X72390000Y-104902000D02*
X76708000Y-100584000D01*
X80643604Y-82042000D02*
X130937000Y-82042000D01*
%TO.N,Net-(U1-D4)*%
X77216000Y-86106000D02*
X80772000Y-82550000D01*
X74930000Y-103124000D02*
X77216000Y-100838000D01*
X77216000Y-100838000D02*
X77216000Y-86106000D01*
X74930000Y-105930000D02*
X74930000Y-103124000D01*
X75120000Y-106120000D02*
X75120000Y-106260000D01*
X134620000Y-87122000D02*
X134620000Y-88265000D01*
X80772000Y-82550000D02*
X130048000Y-82550000D01*
X75120000Y-106120000D02*
X74930000Y-105930000D01*
X130048000Y-82550000D02*
X134620000Y-87122000D01*
%TD*%
%TA.AperFunction,Conductor*%
%TO.N,VCC*%
G36*
X163557760Y-80617823D02*
G01*
X163593416Y-80623422D01*
X167626768Y-81879105D01*
X167684926Y-81917827D01*
X167712917Y-81981845D01*
X167701853Y-82050834D01*
X167655248Y-82102889D01*
X167589909Y-82121500D01*
X167005000Y-82121500D01*
X166965130Y-82123363D01*
X166953167Y-82123923D01*
X166947532Y-82124708D01*
X166947465Y-82124232D01*
X166927839Y-82126500D01*
X163312511Y-82126500D01*
X163167561Y-82126500D01*
X163039029Y-82160940D01*
X163027547Y-82164017D01*
X162902024Y-82236488D01*
X162902018Y-82236493D01*
X162799529Y-82338982D01*
X162799524Y-82338988D01*
X162727053Y-82464511D01*
X162727052Y-82464515D01*
X162689536Y-82604525D01*
X162689536Y-82604527D01*
X162689536Y-86490500D01*
X162669851Y-86557539D01*
X162617047Y-86603294D01*
X162565536Y-86614500D01*
X161725156Y-86614500D01*
X161594219Y-86620674D01*
X161594214Y-86620674D01*
X161283456Y-86669893D01*
X161283448Y-86669895D01*
X160981315Y-86757674D01*
X160692552Y-86882632D01*
X160531094Y-86978119D01*
X160421732Y-87042796D01*
X160421728Y-87042798D01*
X160421723Y-87042802D01*
X160421722Y-87042802D01*
X160173120Y-87235637D01*
X160173120Y-87235638D01*
X159950638Y-87458120D01*
X159950637Y-87458120D01*
X159757802Y-87706722D01*
X159757802Y-87706723D01*
X159757798Y-87706728D01*
X159757796Y-87706732D01*
X159703184Y-87799075D01*
X159597632Y-87977552D01*
X159472674Y-88266315D01*
X159384895Y-88568448D01*
X159384893Y-88568456D01*
X159335674Y-88879214D01*
X159335674Y-88879219D01*
X159329500Y-89010155D01*
X159329500Y-100219844D01*
X159335674Y-100350780D01*
X159335674Y-100350785D01*
X159384893Y-100661543D01*
X159384895Y-100661551D01*
X159472674Y-100963684D01*
X159597632Y-101252447D01*
X159614080Y-101280259D01*
X159757796Y-101523268D01*
X159757801Y-101523274D01*
X159757802Y-101523276D01*
X159757802Y-101523277D01*
X159950637Y-101771879D01*
X160173120Y-101994362D01*
X160421722Y-102187197D01*
X160421726Y-102187199D01*
X160421732Y-102187204D01*
X160692552Y-102347367D01*
X160981311Y-102472324D01*
X161026728Y-102485519D01*
X161283448Y-102560104D01*
X161283456Y-102560106D01*
X161594217Y-102609325D01*
X161725156Y-102615500D01*
X161725160Y-102615500D01*
X162520500Y-102615500D01*
X162587539Y-102635185D01*
X162633294Y-102687989D01*
X162644500Y-102739500D01*
X162644500Y-106489415D01*
X162644500Y-106634365D01*
X162682016Y-106774375D01*
X162682017Y-106774378D01*
X162754488Y-106899901D01*
X162754490Y-106899903D01*
X162754491Y-106899905D01*
X162856985Y-107002399D01*
X162856986Y-107002400D01*
X162856988Y-107002401D01*
X162982511Y-107074872D01*
X162982512Y-107074872D01*
X162982515Y-107074874D01*
X163122525Y-107112390D01*
X166915104Y-107112390D01*
X166931989Y-107113545D01*
X166959963Y-107117390D01*
X167644430Y-107117390D01*
X167711469Y-107137075D01*
X167757224Y-107189879D01*
X167767168Y-107259037D01*
X167738143Y-107322593D01*
X167687137Y-107357804D01*
X163596388Y-108858520D01*
X163554281Y-108866105D01*
X111125597Y-109119997D01*
X111124399Y-109119997D01*
X61083402Y-108878834D01*
X61016459Y-108858826D01*
X60970959Y-108805802D01*
X60960000Y-108754835D01*
X60960000Y-107823000D01*
X91804540Y-107823000D01*
X91824326Y-108011256D01*
X91824327Y-108011259D01*
X91882818Y-108191277D01*
X91882821Y-108191284D01*
X91977467Y-108355216D01*
X92089957Y-108480148D01*
X92104129Y-108495888D01*
X92257265Y-108607148D01*
X92257270Y-108607151D01*
X92430192Y-108684142D01*
X92430197Y-108684144D01*
X92615354Y-108723500D01*
X92615355Y-108723500D01*
X92804644Y-108723500D01*
X92804646Y-108723500D01*
X92989803Y-108684144D01*
X93162730Y-108607151D01*
X93315871Y-108495888D01*
X93442533Y-108355216D01*
X93537179Y-108191284D01*
X93595674Y-108011256D01*
X93615460Y-107823000D01*
X105774540Y-107823000D01*
X105794326Y-108011256D01*
X105794327Y-108011259D01*
X105852818Y-108191277D01*
X105852821Y-108191284D01*
X105947467Y-108355216D01*
X106059957Y-108480148D01*
X106074129Y-108495888D01*
X106227265Y-108607148D01*
X106227270Y-108607151D01*
X106400192Y-108684142D01*
X106400197Y-108684144D01*
X106585354Y-108723500D01*
X106585355Y-108723500D01*
X106774644Y-108723500D01*
X106774646Y-108723500D01*
X106959803Y-108684144D01*
X107132730Y-108607151D01*
X107285871Y-108495888D01*
X107412533Y-108355216D01*
X107507179Y-108191284D01*
X107565674Y-108011256D01*
X107585460Y-107823000D01*
X121014540Y-107823000D01*
X121034326Y-108011256D01*
X121034327Y-108011259D01*
X121092818Y-108191277D01*
X121092821Y-108191284D01*
X121187467Y-108355216D01*
X121299957Y-108480148D01*
X121314129Y-108495888D01*
X121467265Y-108607148D01*
X121467270Y-108607151D01*
X121640192Y-108684142D01*
X121640197Y-108684144D01*
X121825354Y-108723500D01*
X121825355Y-108723500D01*
X122014644Y-108723500D01*
X122014646Y-108723500D01*
X122199803Y-108684144D01*
X122372730Y-108607151D01*
X122525871Y-108495888D01*
X122652533Y-108355216D01*
X122747179Y-108191284D01*
X122805674Y-108011256D01*
X122825460Y-107823000D01*
X122812112Y-107696000D01*
X152129540Y-107696000D01*
X152149326Y-107884256D01*
X152149327Y-107884259D01*
X152207818Y-108064277D01*
X152207821Y-108064284D01*
X152302467Y-108228216D01*
X152416817Y-108355214D01*
X152429129Y-108368888D01*
X152582265Y-108480148D01*
X152582270Y-108480151D01*
X152755192Y-108557142D01*
X152755197Y-108557144D01*
X152940354Y-108596500D01*
X152940355Y-108596500D01*
X153129644Y-108596500D01*
X153129646Y-108596500D01*
X153314803Y-108557144D01*
X153487730Y-108480151D01*
X153640871Y-108368888D01*
X153767533Y-108228216D01*
X153862179Y-108064284D01*
X153920674Y-107884256D01*
X153940460Y-107696000D01*
X153920674Y-107507744D01*
X153862179Y-107327716D01*
X153767533Y-107163784D01*
X153743484Y-107137075D01*
X153692350Y-107080284D01*
X153662120Y-107017292D01*
X153660500Y-106997312D01*
X153660500Y-104838687D01*
X153680185Y-104771648D01*
X153692350Y-104755715D01*
X153710891Y-104735122D01*
X153767533Y-104672216D01*
X153862179Y-104508284D01*
X153920674Y-104328256D01*
X153940460Y-104140000D01*
X153920674Y-103951744D01*
X153862179Y-103771716D01*
X153767533Y-103607784D01*
X153640871Y-103467112D01*
X153608708Y-103443744D01*
X153487734Y-103355851D01*
X153487729Y-103355848D01*
X153314807Y-103278857D01*
X153314802Y-103278855D01*
X153169001Y-103247865D01*
X153129646Y-103239500D01*
X152940354Y-103239500D01*
X152907897Y-103246398D01*
X152755197Y-103278855D01*
X152755192Y-103278857D01*
X152582270Y-103355848D01*
X152582265Y-103355851D01*
X152429129Y-103467111D01*
X152302466Y-103607785D01*
X152207821Y-103771715D01*
X152207818Y-103771722D01*
X152159532Y-103920333D01*
X152149326Y-103951744D01*
X152129540Y-104140000D01*
X152149326Y-104328256D01*
X152149327Y-104328259D01*
X152207818Y-104508277D01*
X152207821Y-104508284D01*
X152302467Y-104672216D01*
X152322150Y-104694076D01*
X152377650Y-104755715D01*
X152407880Y-104818706D01*
X152409500Y-104838687D01*
X152409500Y-106997312D01*
X152389815Y-107064351D01*
X152377650Y-107080284D01*
X152302466Y-107163784D01*
X152207821Y-107327715D01*
X152207818Y-107327722D01*
X152162955Y-107465797D01*
X152149326Y-107507744D01*
X152129540Y-107696000D01*
X122812112Y-107696000D01*
X122805674Y-107634744D01*
X122747179Y-107454716D01*
X122652533Y-107290784D01*
X122623948Y-107259037D01*
X122577350Y-107207284D01*
X122547120Y-107144292D01*
X122545500Y-107124312D01*
X122545500Y-104838687D01*
X122565185Y-104771648D01*
X122577350Y-104755715D01*
X122595891Y-104735122D01*
X122652533Y-104672216D01*
X122747179Y-104508284D01*
X122805674Y-104328256D01*
X122825460Y-104140000D01*
X122805674Y-103951744D01*
X122747179Y-103771716D01*
X122652533Y-103607784D01*
X122525871Y-103467112D01*
X122493708Y-103443744D01*
X122372734Y-103355851D01*
X122372729Y-103355848D01*
X122199807Y-103278857D01*
X122199802Y-103278855D01*
X122054001Y-103247865D01*
X122014646Y-103239500D01*
X121825354Y-103239500D01*
X121792897Y-103246398D01*
X121640197Y-103278855D01*
X121640192Y-103278857D01*
X121467270Y-103355848D01*
X121467265Y-103355851D01*
X121314129Y-103467111D01*
X121187466Y-103607785D01*
X121092821Y-103771715D01*
X121092818Y-103771722D01*
X121044532Y-103920333D01*
X121034326Y-103951744D01*
X121014540Y-104140000D01*
X121034326Y-104328256D01*
X121034327Y-104328259D01*
X121092818Y-104508277D01*
X121092821Y-104508284D01*
X121187467Y-104672216D01*
X121207150Y-104694076D01*
X121262650Y-104755715D01*
X121292880Y-104818706D01*
X121294500Y-104838687D01*
X121294500Y-107124312D01*
X121274815Y-107191351D01*
X121262650Y-107207284D01*
X121187466Y-107290784D01*
X121092821Y-107454715D01*
X121092818Y-107454722D01*
X121038954Y-107620500D01*
X121034326Y-107634744D01*
X121014540Y-107823000D01*
X107585460Y-107823000D01*
X107565674Y-107634744D01*
X107507179Y-107454716D01*
X107412533Y-107290784D01*
X107383948Y-107259037D01*
X107337350Y-107207284D01*
X107307120Y-107144292D01*
X107305500Y-107124312D01*
X107305500Y-104838687D01*
X107325185Y-104771648D01*
X107337350Y-104755715D01*
X107355891Y-104735122D01*
X107412533Y-104672216D01*
X107507179Y-104508284D01*
X107565674Y-104328256D01*
X107585460Y-104140000D01*
X107565674Y-103951744D01*
X107507179Y-103771716D01*
X107412533Y-103607784D01*
X107285871Y-103467112D01*
X107253708Y-103443744D01*
X107132734Y-103355851D01*
X107132729Y-103355848D01*
X106959807Y-103278857D01*
X106959802Y-103278855D01*
X106814001Y-103247865D01*
X106774646Y-103239500D01*
X106585354Y-103239500D01*
X106552897Y-103246398D01*
X106400197Y-103278855D01*
X106400192Y-103278857D01*
X106227270Y-103355848D01*
X106227265Y-103355851D01*
X106074129Y-103467111D01*
X105947466Y-103607785D01*
X105852821Y-103771715D01*
X105852818Y-103771722D01*
X105804532Y-103920333D01*
X105794326Y-103951744D01*
X105774540Y-104140000D01*
X105794326Y-104328256D01*
X105794327Y-104328259D01*
X105852818Y-104508277D01*
X105852821Y-104508284D01*
X105947467Y-104672216D01*
X105967150Y-104694076D01*
X106022650Y-104755715D01*
X106052880Y-104818706D01*
X106054500Y-104838687D01*
X106054500Y-107124312D01*
X106034815Y-107191351D01*
X106022650Y-107207284D01*
X105947466Y-107290784D01*
X105852821Y-107454715D01*
X105852818Y-107454722D01*
X105798954Y-107620500D01*
X105794326Y-107634744D01*
X105774540Y-107823000D01*
X93615460Y-107823000D01*
X93595674Y-107634744D01*
X93537179Y-107454716D01*
X93442533Y-107290784D01*
X93413948Y-107259037D01*
X93367350Y-107207284D01*
X93337120Y-107144292D01*
X93335500Y-107124312D01*
X93335500Y-104838687D01*
X93355185Y-104771648D01*
X93367350Y-104755715D01*
X93385891Y-104735122D01*
X93442533Y-104672216D01*
X93537179Y-104508284D01*
X93595674Y-104328256D01*
X93615460Y-104140000D01*
X93595674Y-103951744D01*
X93537179Y-103771716D01*
X93442533Y-103607784D01*
X93315871Y-103467112D01*
X93283708Y-103443744D01*
X93162734Y-103355851D01*
X93162729Y-103355848D01*
X92989807Y-103278857D01*
X92989802Y-103278855D01*
X92844001Y-103247865D01*
X92804646Y-103239500D01*
X92615354Y-103239500D01*
X92582897Y-103246398D01*
X92430197Y-103278855D01*
X92430192Y-103278857D01*
X92257270Y-103355848D01*
X92257265Y-103355851D01*
X92104129Y-103467111D01*
X91977466Y-103607785D01*
X91882821Y-103771715D01*
X91882818Y-103771722D01*
X91834532Y-103920333D01*
X91824326Y-103951744D01*
X91804540Y-104140000D01*
X91824326Y-104328256D01*
X91824327Y-104328259D01*
X91882818Y-104508277D01*
X91882821Y-104508284D01*
X91977467Y-104672216D01*
X91997150Y-104694076D01*
X92052650Y-104755715D01*
X92082880Y-104818706D01*
X92084500Y-104838687D01*
X92084500Y-107124312D01*
X92064815Y-107191351D01*
X92052650Y-107207284D01*
X91977466Y-107290784D01*
X91882821Y-107454715D01*
X91882818Y-107454722D01*
X91828954Y-107620500D01*
X91824326Y-107634744D01*
X91804540Y-107823000D01*
X60960000Y-107823000D01*
X60960000Y-106172000D01*
X61255341Y-106172000D01*
X61275936Y-106407403D01*
X61275938Y-106407413D01*
X61337094Y-106635655D01*
X61337096Y-106635659D01*
X61337097Y-106635663D01*
X61401780Y-106774375D01*
X61436965Y-106849830D01*
X61436967Y-106849834D01*
X61540233Y-106997312D01*
X61572505Y-107043401D01*
X61739599Y-107210495D01*
X61836384Y-107278265D01*
X61933165Y-107346032D01*
X61933167Y-107346033D01*
X61933170Y-107346035D01*
X62147337Y-107445903D01*
X62375592Y-107507063D01*
X62552034Y-107522500D01*
X62610999Y-107527659D01*
X62611000Y-107527659D01*
X62611001Y-107527659D01*
X62669966Y-107522500D01*
X62846408Y-107507063D01*
X63074663Y-107445903D01*
X63288830Y-107346035D01*
X63482401Y-107210495D01*
X63604329Y-107088566D01*
X63665648Y-107055084D01*
X63735340Y-107060068D01*
X63791274Y-107101939D01*
X63808189Y-107132917D01*
X63857202Y-107264328D01*
X63857206Y-107264335D01*
X63943452Y-107379544D01*
X63943455Y-107379547D01*
X64058664Y-107465793D01*
X64058671Y-107465797D01*
X64193517Y-107516091D01*
X64193516Y-107516091D01*
X64200444Y-107516835D01*
X64253127Y-107522500D01*
X66048872Y-107522499D01*
X66108483Y-107516091D01*
X66243331Y-107465796D01*
X66358546Y-107379546D01*
X66444796Y-107264331D01*
X66495091Y-107129483D01*
X66501500Y-107069873D01*
X66501500Y-106422351D01*
X71279500Y-106422351D01*
X71311522Y-106624534D01*
X71374781Y-106819223D01*
X71467715Y-107001613D01*
X71588028Y-107167213D01*
X71732786Y-107311971D01*
X71887749Y-107424556D01*
X71898390Y-107432287D01*
X72014607Y-107491503D01*
X72080776Y-107525218D01*
X72080778Y-107525218D01*
X72080781Y-107525220D01*
X72185137Y-107559127D01*
X72275465Y-107588477D01*
X72376557Y-107604488D01*
X72477648Y-107620500D01*
X72477649Y-107620500D01*
X72682351Y-107620500D01*
X72682352Y-107620500D01*
X72884534Y-107588477D01*
X73079219Y-107525220D01*
X73261610Y-107432287D01*
X73405541Y-107327716D01*
X73427213Y-107311971D01*
X73427215Y-107311968D01*
X73427219Y-107311966D01*
X73571966Y-107167219D01*
X73571968Y-107167215D01*
X73571971Y-107167213D01*
X73692284Y-107001614D01*
X73692285Y-107001613D01*
X73692287Y-107001610D01*
X73739516Y-106908917D01*
X73787489Y-106858123D01*
X73855310Y-106841328D01*
X73921445Y-106863865D01*
X73960485Y-106908919D01*
X74007715Y-107001614D01*
X74128028Y-107167213D01*
X74272786Y-107311971D01*
X74427749Y-107424556D01*
X74438390Y-107432287D01*
X74554607Y-107491503D01*
X74620776Y-107525218D01*
X74620778Y-107525218D01*
X74620781Y-107525220D01*
X74725137Y-107559127D01*
X74815465Y-107588477D01*
X74916557Y-107604488D01*
X75017648Y-107620500D01*
X75017649Y-107620500D01*
X75222351Y-107620500D01*
X75222352Y-107620500D01*
X75424534Y-107588477D01*
X75619219Y-107525220D01*
X75801610Y-107432287D01*
X75945541Y-107327716D01*
X75967213Y-107311971D01*
X75967215Y-107311968D01*
X75967219Y-107311966D01*
X76111966Y-107167219D01*
X76111968Y-107167215D01*
X76111971Y-107167213D01*
X76232284Y-107001614D01*
X76232285Y-107001613D01*
X76232287Y-107001610D01*
X76279516Y-106908917D01*
X76327489Y-106858123D01*
X76395310Y-106841328D01*
X76461445Y-106863865D01*
X76500485Y-106908919D01*
X76547715Y-107001614D01*
X76668028Y-107167213D01*
X76812786Y-107311971D01*
X76967749Y-107424556D01*
X76978390Y-107432287D01*
X77094607Y-107491503D01*
X77160776Y-107525218D01*
X77160778Y-107525218D01*
X77160781Y-107525220D01*
X77265137Y-107559127D01*
X77355465Y-107588477D01*
X77456557Y-107604488D01*
X77557648Y-107620500D01*
X77557649Y-107620500D01*
X77762351Y-107620500D01*
X77762352Y-107620500D01*
X77964534Y-107588477D01*
X78159219Y-107525220D01*
X78341610Y-107432287D01*
X78485541Y-107327716D01*
X78507213Y-107311971D01*
X78507215Y-107311968D01*
X78507219Y-107311966D01*
X78651966Y-107167219D01*
X78651968Y-107167215D01*
X78651971Y-107167213D01*
X78772284Y-107001614D01*
X78772285Y-107001613D01*
X78772287Y-107001610D01*
X78819795Y-106908369D01*
X78867770Y-106857574D01*
X78935591Y-106840779D01*
X79001725Y-106863316D01*
X79040765Y-106908370D01*
X79088140Y-107001349D01*
X79208417Y-107166894D01*
X79208417Y-107166895D01*
X79353104Y-107311582D01*
X79518650Y-107431859D01*
X79700968Y-107524754D01*
X79895578Y-107587988D01*
X79950000Y-107596607D01*
X79950000Y-106553012D01*
X80007007Y-106585925D01*
X80134174Y-106620000D01*
X80265826Y-106620000D01*
X80392993Y-106585925D01*
X80450000Y-106553012D01*
X80450000Y-107596606D01*
X80504421Y-107587988D01*
X80699031Y-107524754D01*
X80881349Y-107431859D01*
X81046894Y-107311582D01*
X81046895Y-107311582D01*
X81191582Y-107166895D01*
X81191582Y-107166894D01*
X81311859Y-107001349D01*
X81404755Y-106819031D01*
X81467990Y-106624417D01*
X81500000Y-106422317D01*
X81500000Y-106370000D01*
X80633012Y-106370000D01*
X80665925Y-106312993D01*
X80700000Y-106185826D01*
X80700000Y-106054174D01*
X80665925Y-105927007D01*
X80633012Y-105870000D01*
X81500000Y-105870000D01*
X81500000Y-105817682D01*
X81467990Y-105615582D01*
X81404755Y-105420968D01*
X81311859Y-105238650D01*
X81191582Y-105073105D01*
X81191582Y-105073104D01*
X81046895Y-104928417D01*
X80881349Y-104808140D01*
X80699029Y-104715244D01*
X80504413Y-104652009D01*
X80450000Y-104643390D01*
X80450000Y-105686988D01*
X80392993Y-105654075D01*
X80265826Y-105620000D01*
X80134174Y-105620000D01*
X80007007Y-105654075D01*
X79950000Y-105686988D01*
X79950000Y-104643390D01*
X79895586Y-104652009D01*
X79700970Y-104715244D01*
X79518650Y-104808140D01*
X79353105Y-104928417D01*
X79353104Y-104928417D01*
X79208417Y-105073104D01*
X79208417Y-105073105D01*
X79088140Y-105238650D01*
X79040765Y-105331629D01*
X78992790Y-105382425D01*
X78924969Y-105399220D01*
X78858834Y-105376682D01*
X78819795Y-105331629D01*
X78791746Y-105276581D01*
X78772287Y-105238390D01*
X78764556Y-105227749D01*
X78651971Y-105072786D01*
X78507213Y-104928028D01*
X78341613Y-104807715D01*
X78341612Y-104807714D01*
X78341610Y-104807713D01*
X78270829Y-104771648D01*
X78159223Y-104714781D01*
X77964534Y-104651522D01*
X77789995Y-104623878D01*
X77762352Y-104619500D01*
X77557648Y-104619500D01*
X77533329Y-104623351D01*
X77355465Y-104651522D01*
X77160776Y-104714781D01*
X76978386Y-104807715D01*
X76812786Y-104928028D01*
X76668028Y-105072786D01*
X76547715Y-105238386D01*
X76500485Y-105331080D01*
X76452510Y-105381876D01*
X76384689Y-105398671D01*
X76318554Y-105376134D01*
X76279515Y-105331080D01*
X76263983Y-105300597D01*
X76232287Y-105238390D01*
X76224556Y-105227749D01*
X76111971Y-105072786D01*
X75967213Y-104928028D01*
X75801613Y-104807715D01*
X75801612Y-104807714D01*
X75801610Y-104807713D01*
X75730829Y-104771648D01*
X75623205Y-104716810D01*
X75572409Y-104668835D01*
X75555500Y-104606325D01*
X75555500Y-103434451D01*
X75575185Y-103367412D01*
X75591814Y-103346775D01*
X76260719Y-102677870D01*
X79144500Y-102677870D01*
X79144501Y-102677876D01*
X79150908Y-102737483D01*
X79201202Y-102872328D01*
X79201206Y-102872335D01*
X79287452Y-102987544D01*
X79287455Y-102987547D01*
X79402664Y-103073793D01*
X79402671Y-103073797D01*
X79537517Y-103124091D01*
X79537516Y-103124091D01*
X79544444Y-103124835D01*
X79597127Y-103130500D01*
X81692872Y-103130499D01*
X81752483Y-103124091D01*
X81819284Y-103099175D01*
X81888974Y-103094192D01*
X81950297Y-103127677D01*
X81983782Y-103189000D01*
X81978798Y-103258691D01*
X81977116Y-103262806D01*
X81936302Y-103388419D01*
X81918326Y-103443744D01*
X81898540Y-103632000D01*
X81918326Y-103820256D01*
X81918327Y-103820259D01*
X81976818Y-104000277D01*
X81976821Y-104000284D01*
X82071467Y-104164216D01*
X82158696Y-104261093D01*
X82198129Y-104304888D01*
X82351265Y-104416148D01*
X82351270Y-104416151D01*
X82524192Y-104493142D01*
X82524197Y-104493144D01*
X82709354Y-104532500D01*
X82709355Y-104532500D01*
X82898644Y-104532500D01*
X82898646Y-104532500D01*
X83083803Y-104493144D01*
X83256730Y-104416151D01*
X83409871Y-104304888D01*
X83536533Y-104164216D01*
X83631179Y-104000284D01*
X83689674Y-103820256D01*
X83707321Y-103652344D01*
X83733904Y-103587734D01*
X83742951Y-103577638D01*
X84576116Y-102744474D01*
X94149500Y-102744474D01*
X94149501Y-102744491D01*
X94183299Y-103001217D01*
X94183300Y-103001222D01*
X94183301Y-103001228D01*
X94202746Y-103073797D01*
X94250324Y-103251364D01*
X94349423Y-103490609D01*
X94349427Y-103490619D01*
X94478906Y-103714883D01*
X94636551Y-103920331D01*
X94636557Y-103920338D01*
X94819661Y-104103442D01*
X94819668Y-104103448D01*
X95025116Y-104261093D01*
X95249380Y-104390572D01*
X95249381Y-104390572D01*
X95249384Y-104390574D01*
X95488634Y-104489675D01*
X95738772Y-104556699D01*
X95995519Y-104590500D01*
X95995526Y-104590500D01*
X98804474Y-104590500D01*
X98804481Y-104590500D01*
X99061228Y-104556699D01*
X99311366Y-104489675D01*
X99550616Y-104390574D01*
X99774884Y-104261093D01*
X99980333Y-104103447D01*
X100163447Y-103920333D01*
X100321093Y-103714884D01*
X100450574Y-103490616D01*
X100549675Y-103251366D01*
X100616699Y-103001228D01*
X100650500Y-102744481D01*
X100650500Y-102485519D01*
X100616699Y-102228772D01*
X100549675Y-101978634D01*
X100450574Y-101739384D01*
X100436973Y-101715827D01*
X100321093Y-101515116D01*
X100163448Y-101309668D01*
X100163442Y-101309661D01*
X99980338Y-101126557D01*
X99980331Y-101126551D01*
X99774883Y-100968906D01*
X99550619Y-100839427D01*
X99550609Y-100839423D01*
X99311364Y-100740324D01*
X99186297Y-100706813D01*
X99061228Y-100673301D01*
X99061222Y-100673300D01*
X99061217Y-100673299D01*
X98804491Y-100639501D01*
X98804486Y-100639500D01*
X98804481Y-100639500D01*
X95995519Y-100639500D01*
X95995513Y-100639500D01*
X95995508Y-100639501D01*
X95738782Y-100673299D01*
X95738775Y-100673300D01*
X95738772Y-100673301D01*
X95685908Y-100687465D01*
X95488635Y-100740324D01*
X95249390Y-100839423D01*
X95249380Y-100839427D01*
X95025116Y-100968906D01*
X94819668Y-101126551D01*
X94819661Y-101126557D01*
X94636557Y-101309661D01*
X94636551Y-101309668D01*
X94478906Y-101515116D01*
X94349427Y-101739380D01*
X94349423Y-101739390D01*
X94250324Y-101978635D01*
X94183302Y-102228769D01*
X94183299Y-102228782D01*
X94149501Y-102485508D01*
X94149500Y-102485525D01*
X94149500Y-102744474D01*
X84576116Y-102744474D01*
X85291772Y-102028819D01*
X85353095Y-101995334D01*
X85379453Y-101992500D01*
X85438644Y-101992500D01*
X85438646Y-101992500D01*
X85623803Y-101953144D01*
X85796730Y-101876151D01*
X85949871Y-101764888D01*
X86076533Y-101624216D01*
X86171179Y-101460284D01*
X86229674Y-101280256D01*
X86249460Y-101092000D01*
X86229674Y-100903744D01*
X86171179Y-100723716D01*
X86076533Y-100559784D01*
X85949871Y-100419112D01*
X85928153Y-100403333D01*
X85796734Y-100307851D01*
X85796729Y-100307848D01*
X85623807Y-100230857D01*
X85623802Y-100230855D01*
X85466789Y-100197482D01*
X85438646Y-100191500D01*
X85249354Y-100191500D01*
X85221211Y-100197482D01*
X85064197Y-100230855D01*
X85064192Y-100230857D01*
X84891270Y-100307848D01*
X84891265Y-100307851D01*
X84738129Y-100419111D01*
X84611466Y-100559785D01*
X84516821Y-100723715D01*
X84516818Y-100723722D01*
X84459670Y-100899607D01*
X84458326Y-100903744D01*
X84446061Y-101020444D01*
X84440679Y-101071649D01*
X84414094Y-101136263D01*
X84405039Y-101146368D01*
X82856229Y-102695181D01*
X82794906Y-102728666D01*
X82768548Y-102731500D01*
X82709354Y-102731500D01*
X82681206Y-102737483D01*
X82524197Y-102770855D01*
X82524192Y-102770857D01*
X82351270Y-102847848D01*
X82351267Y-102847850D01*
X82334060Y-102860352D01*
X82268253Y-102883830D01*
X82200200Y-102868003D01*
X82151506Y-102817896D01*
X82137632Y-102749418D01*
X82138308Y-102745200D01*
X82138262Y-102745196D01*
X82144412Y-102687989D01*
X82145500Y-102677873D01*
X82145499Y-100582128D01*
X82139091Y-100522517D01*
X82094637Y-100403332D01*
X82089654Y-100333642D01*
X82094638Y-100316667D01*
X82097927Y-100307849D01*
X82139091Y-100197483D01*
X82145500Y-100137873D01*
X82145499Y-98042128D01*
X82139091Y-97982517D01*
X82113647Y-97914299D01*
X82088797Y-97847671D01*
X82088793Y-97847664D01*
X82002547Y-97732455D01*
X82002544Y-97732452D01*
X81887335Y-97646206D01*
X81887328Y-97646202D01*
X81752482Y-97595908D01*
X81752483Y-97595908D01*
X81692883Y-97589501D01*
X81692881Y-97589500D01*
X81692873Y-97589500D01*
X81692864Y-97589500D01*
X79597129Y-97589500D01*
X79597123Y-97589501D01*
X79537516Y-97595908D01*
X79402671Y-97646202D01*
X79402664Y-97646206D01*
X79287455Y-97732452D01*
X79287452Y-97732455D01*
X79201206Y-97847664D01*
X79201202Y-97847671D01*
X79150908Y-97982517D01*
X79144501Y-98042116D01*
X79144501Y-98042123D01*
X79144500Y-98042135D01*
X79144500Y-100137870D01*
X79144501Y-100137876D01*
X79150908Y-100197483D01*
X79195361Y-100316667D01*
X79200345Y-100386359D01*
X79195361Y-100403333D01*
X79150908Y-100522517D01*
X79146902Y-100559784D01*
X79144501Y-100582123D01*
X79144500Y-100582135D01*
X79144500Y-102677870D01*
X76260719Y-102677870D01*
X77614729Y-101323860D01*
X77614733Y-101323858D01*
X77701858Y-101236733D01*
X77770311Y-101134286D01*
X77817463Y-101020452D01*
X77841500Y-100899606D01*
X77841500Y-94721007D01*
X152419500Y-94721007D01*
X152458907Y-94919119D01*
X152458909Y-94919127D01*
X152536212Y-95105754D01*
X152590204Y-95186558D01*
X152611081Y-95253235D01*
X152592596Y-95320615D01*
X152590204Y-95324337D01*
X152536655Y-95404479D01*
X152536654Y-95404481D01*
X152459390Y-95591016D01*
X152459387Y-95591025D01*
X152449647Y-95640000D01*
X153304134Y-95640000D01*
X153328326Y-95642383D01*
X153331123Y-95642939D01*
X153343995Y-95645499D01*
X153343996Y-95645500D01*
X153343997Y-95645500D01*
X153384170Y-95645500D01*
X153369925Y-95659745D01*
X153320556Y-95745255D01*
X153295000Y-95840630D01*
X153295000Y-95939370D01*
X153320556Y-96034745D01*
X153369925Y-96120255D01*
X153389670Y-96140000D01*
X152449647Y-96140000D01*
X152459387Y-96188974D01*
X152459390Y-96188983D01*
X152536652Y-96375513D01*
X152536659Y-96375526D01*
X152648829Y-96543399D01*
X152648832Y-96543403D01*
X152791596Y-96686167D01*
X152791600Y-96686170D01*
X152959473Y-96798340D01*
X152959486Y-96798347D01*
X153146016Y-96875609D01*
X153146025Y-96875612D01*
X153344041Y-96914999D01*
X153344045Y-96915000D01*
X153420000Y-96915000D01*
X153420000Y-96170330D01*
X153439745Y-96190075D01*
X153525255Y-96239444D01*
X153620630Y-96265000D01*
X153719370Y-96265000D01*
X153814745Y-96239444D01*
X153900255Y-96190075D01*
X153920000Y-96170330D01*
X153920000Y-96915000D01*
X153995955Y-96915000D01*
X153995958Y-96914999D01*
X154193974Y-96875612D01*
X154193983Y-96875609D01*
X154380513Y-96798347D01*
X154380526Y-96798340D01*
X154548399Y-96686170D01*
X154548403Y-96686167D01*
X154691167Y-96543403D01*
X154691170Y-96543399D01*
X154803340Y-96375526D01*
X154803347Y-96375513D01*
X154880609Y-96188983D01*
X154880612Y-96188974D01*
X154890353Y-96140000D01*
X153950330Y-96140000D01*
X153970075Y-96120255D01*
X154019444Y-96034745D01*
X154045000Y-95939370D01*
X154045000Y-95840630D01*
X154019444Y-95745255D01*
X153970075Y-95659745D01*
X153955830Y-95645500D01*
X153996004Y-95645500D01*
X153996004Y-95645499D01*
X154009473Y-95642820D01*
X154011674Y-95642383D01*
X154035866Y-95640000D01*
X154890353Y-95640000D01*
X154880612Y-95591025D01*
X154880609Y-95591016D01*
X154803347Y-95404486D01*
X154803343Y-95404479D01*
X154749795Y-95324340D01*
X154728917Y-95257662D01*
X154747401Y-95190282D01*
X154749733Y-95186652D01*
X154803786Y-95105756D01*
X154881091Y-94919127D01*
X154920500Y-94721003D01*
X154920500Y-94518997D01*
X154881091Y-94320873D01*
X154847673Y-94240198D01*
X154840205Y-94170730D01*
X154859964Y-94125340D01*
X154859547Y-94125112D01*
X154862095Y-94120444D01*
X154862972Y-94118431D01*
X154863796Y-94117331D01*
X154914091Y-93982483D01*
X154920500Y-93922873D01*
X154920499Y-92777128D01*
X154914091Y-92717517D01*
X154906259Y-92696519D01*
X154863797Y-92582671D01*
X154863793Y-92582664D01*
X154777547Y-92467455D01*
X154777544Y-92467452D01*
X154662335Y-92381206D01*
X154662328Y-92381202D01*
X154527482Y-92330908D01*
X154527483Y-92330908D01*
X154467883Y-92324501D01*
X154467881Y-92324500D01*
X154467873Y-92324500D01*
X154467864Y-92324500D01*
X152872129Y-92324500D01*
X152872123Y-92324501D01*
X152812516Y-92330908D01*
X152677671Y-92381202D01*
X152677664Y-92381206D01*
X152562455Y-92467452D01*
X152562452Y-92467455D01*
X152476206Y-92582664D01*
X152476202Y-92582671D01*
X152425908Y-92717517D01*
X152419501Y-92777116D01*
X152419501Y-92777123D01*
X152419500Y-92777135D01*
X152419500Y-93922870D01*
X152419501Y-93922876D01*
X152425908Y-93982483D01*
X152476202Y-94117328D01*
X152476203Y-94117330D01*
X152476204Y-94117331D01*
X152477028Y-94118432D01*
X152477509Y-94119721D01*
X152480454Y-94125114D01*
X152479678Y-94125537D01*
X152501448Y-94183895D01*
X152492325Y-94240198D01*
X152458910Y-94320868D01*
X152458907Y-94320880D01*
X152419500Y-94518992D01*
X152419500Y-94721007D01*
X77841500Y-94721007D01*
X77841500Y-91217870D01*
X79144500Y-91217870D01*
X79144501Y-91217876D01*
X79150908Y-91277483D01*
X79201202Y-91412328D01*
X79201206Y-91412335D01*
X79287452Y-91527544D01*
X79287455Y-91527547D01*
X79402664Y-91613793D01*
X79402671Y-91613797D01*
X79537517Y-91664091D01*
X79537516Y-91664091D01*
X79544444Y-91664835D01*
X79597127Y-91670500D01*
X81692872Y-91670499D01*
X81752483Y-91664091D01*
X81887331Y-91613796D01*
X82002546Y-91527546D01*
X82088796Y-91412331D01*
X82139091Y-91277483D01*
X82145500Y-91217873D01*
X82145499Y-89122128D01*
X82139091Y-89062517D01*
X82116938Y-89003123D01*
X82094638Y-88943333D01*
X82089654Y-88873642D01*
X82094638Y-88856667D01*
X82139091Y-88737483D01*
X82145500Y-88677873D01*
X82145499Y-86728768D01*
X86819500Y-86728768D01*
X86855093Y-86953490D01*
X86925400Y-87169876D01*
X86925401Y-87169879D01*
X86991224Y-87299062D01*
X87028697Y-87372607D01*
X87162434Y-87556680D01*
X87323320Y-87717566D01*
X87507393Y-87851303D01*
X87534081Y-87864901D01*
X87710120Y-87954598D01*
X87710123Y-87954599D01*
X87818316Y-87989752D01*
X87926511Y-88024907D01*
X88030591Y-88041391D01*
X88151232Y-88060500D01*
X88151237Y-88060500D01*
X89988768Y-88060500D01*
X90097710Y-88043244D01*
X90213489Y-88024907D01*
X90429879Y-87954598D01*
X90632607Y-87851303D01*
X90816680Y-87717566D01*
X90977566Y-87556680D01*
X91111303Y-87372607D01*
X91214598Y-87169879D01*
X91284907Y-86953489D01*
X91315921Y-86757676D01*
X91320500Y-86728768D01*
X91320500Y-86501231D01*
X91298936Y-86365090D01*
X91284907Y-86276511D01*
X91237141Y-86129501D01*
X91214599Y-86060123D01*
X91214598Y-86060120D01*
X91111302Y-85857392D01*
X91074828Y-85807190D01*
X90977566Y-85673320D01*
X90816680Y-85512434D01*
X90632607Y-85378697D01*
X90596921Y-85360514D01*
X90429879Y-85275401D01*
X90429876Y-85275400D01*
X90213490Y-85205093D01*
X89988768Y-85169500D01*
X89988763Y-85169500D01*
X88151237Y-85169500D01*
X88151232Y-85169500D01*
X87926509Y-85205093D01*
X87710123Y-85275400D01*
X87710120Y-85275401D01*
X87507392Y-85378697D01*
X87402372Y-85454998D01*
X87323320Y-85512434D01*
X87323318Y-85512436D01*
X87323317Y-85512436D01*
X87162436Y-85673317D01*
X87162436Y-85673318D01*
X87162434Y-85673320D01*
X87114439Y-85739380D01*
X87028697Y-85857392D01*
X86925401Y-86060120D01*
X86925400Y-86060123D01*
X86855093Y-86276509D01*
X86819500Y-86501231D01*
X86819500Y-86728768D01*
X82145499Y-86728768D01*
X82145499Y-86582128D01*
X82139091Y-86522517D01*
X82127149Y-86490500D01*
X82088797Y-86387671D01*
X82088793Y-86387664D01*
X82002547Y-86272455D01*
X82002544Y-86272452D01*
X81887335Y-86186206D01*
X81887328Y-86186202D01*
X81752482Y-86135908D01*
X81752483Y-86135908D01*
X81692883Y-86129501D01*
X81692881Y-86129500D01*
X81692873Y-86129500D01*
X81692864Y-86129500D01*
X79597129Y-86129500D01*
X79597123Y-86129501D01*
X79537516Y-86135908D01*
X79402671Y-86186202D01*
X79402664Y-86186206D01*
X79287455Y-86272452D01*
X79287452Y-86272455D01*
X79201206Y-86387664D01*
X79201202Y-86387671D01*
X79150908Y-86522517D01*
X79144501Y-86582116D01*
X79144501Y-86582123D01*
X79144500Y-86582135D01*
X79144500Y-88677870D01*
X79144501Y-88677876D01*
X79150908Y-88737483D01*
X79195361Y-88856667D01*
X79200345Y-88926359D01*
X79195361Y-88943333D01*
X79150908Y-89062517D01*
X79144501Y-89122116D01*
X79144501Y-89122123D01*
X79144500Y-89122135D01*
X79144500Y-91217870D01*
X77841500Y-91217870D01*
X77841500Y-86416452D01*
X77861185Y-86349413D01*
X77877819Y-86328771D01*
X80994772Y-83211819D01*
X81056095Y-83178334D01*
X81082453Y-83175500D01*
X129737548Y-83175500D01*
X129804587Y-83195185D01*
X129825229Y-83211819D01*
X133641930Y-87028520D01*
X133675415Y-87089843D01*
X133670431Y-87159535D01*
X133641935Y-87203877D01*
X133628040Y-87217773D01*
X133628033Y-87217781D01*
X133507715Y-87383386D01*
X133460485Y-87476080D01*
X133412510Y-87526876D01*
X133344689Y-87543671D01*
X133278554Y-87521134D01*
X133239515Y-87476080D01*
X133238883Y-87474840D01*
X133192287Y-87383390D01*
X133184453Y-87372607D01*
X133071971Y-87217786D01*
X132927213Y-87073028D01*
X132761613Y-86952715D01*
X132761612Y-86952714D01*
X132761610Y-86952713D01*
X132673487Y-86907812D01*
X132579223Y-86859781D01*
X132384534Y-86796522D01*
X132209995Y-86768878D01*
X132182352Y-86764500D01*
X131977648Y-86764500D01*
X131953329Y-86768351D01*
X131775465Y-86796522D01*
X131580776Y-86859781D01*
X131398386Y-86952715D01*
X131232786Y-87073028D01*
X131232781Y-87073032D01*
X131201162Y-87104652D01*
X131139838Y-87138137D01*
X131070147Y-87133151D01*
X131014214Y-87091279D01*
X130997300Y-87060304D01*
X130983353Y-87022911D01*
X130983350Y-87022906D01*
X130897190Y-86907812D01*
X130897187Y-86907809D01*
X130782093Y-86821649D01*
X130782086Y-86821645D01*
X130647379Y-86771403D01*
X130647372Y-86771401D01*
X130587844Y-86765000D01*
X129790000Y-86765000D01*
X129790000Y-87831988D01*
X129732993Y-87799075D01*
X129605826Y-87765000D01*
X129474174Y-87765000D01*
X129347007Y-87799075D01*
X129290000Y-87831988D01*
X129290000Y-86765000D01*
X128492155Y-86765000D01*
X128432627Y-86771401D01*
X128432620Y-86771403D01*
X128297913Y-86821645D01*
X128297906Y-86821649D01*
X128182812Y-86907809D01*
X128182809Y-86907812D01*
X128096649Y-87022906D01*
X128096645Y-87022913D01*
X128046403Y-87157620D01*
X128046401Y-87157627D01*
X128040000Y-87217155D01*
X128040000Y-88015000D01*
X129106988Y-88015000D01*
X129074075Y-88072007D01*
X129040000Y-88199174D01*
X129040000Y-88330826D01*
X129074075Y-88457993D01*
X129106988Y-88515000D01*
X128040000Y-88515000D01*
X128040000Y-89312844D01*
X128046401Y-89372372D01*
X128046403Y-89372379D01*
X128096645Y-89507086D01*
X128096649Y-89507093D01*
X128182809Y-89622187D01*
X128182812Y-89622190D01*
X128297906Y-89708350D01*
X128297913Y-89708354D01*
X128432620Y-89758596D01*
X128432627Y-89758598D01*
X128492155Y-89764999D01*
X128492172Y-89765000D01*
X129290000Y-89765000D01*
X129290000Y-88698012D01*
X129347007Y-88730925D01*
X129474174Y-88765000D01*
X129605826Y-88765000D01*
X129732993Y-88730925D01*
X129790000Y-88698012D01*
X129790000Y-89765000D01*
X130587828Y-89765000D01*
X130587844Y-89764999D01*
X130647372Y-89758598D01*
X130647379Y-89758596D01*
X130782086Y-89708354D01*
X130782093Y-89708350D01*
X130897187Y-89622190D01*
X130897190Y-89622187D01*
X130983350Y-89507093D01*
X130983354Y-89507086D01*
X130997300Y-89469696D01*
X131039171Y-89413762D01*
X131104635Y-89389345D01*
X131172908Y-89404196D01*
X131201163Y-89425348D01*
X131232786Y-89456971D01*
X131387749Y-89569556D01*
X131398390Y-89577287D01*
X131486517Y-89622190D01*
X131580776Y-89670218D01*
X131580778Y-89670218D01*
X131580781Y-89670220D01*
X131663632Y-89697140D01*
X131775465Y-89733477D01*
X131876194Y-89749431D01*
X131977648Y-89765500D01*
X131977649Y-89765500D01*
X132182351Y-89765500D01*
X132182352Y-89765500D01*
X132384534Y-89733477D01*
X132579219Y-89670220D01*
X132761610Y-89577287D01*
X132909698Y-89469696D01*
X132927213Y-89456971D01*
X132927215Y-89456968D01*
X132927219Y-89456966D01*
X133071966Y-89312219D01*
X133071968Y-89312215D01*
X133071971Y-89312213D01*
X133192284Y-89146614D01*
X133192285Y-89146613D01*
X133192287Y-89146610D01*
X133239516Y-89053917D01*
X133287489Y-89003123D01*
X133355310Y-88986328D01*
X133421445Y-89008865D01*
X133460483Y-89053917D01*
X133495233Y-89122116D01*
X133507715Y-89146614D01*
X133628028Y-89312213D01*
X133772786Y-89456971D01*
X133927749Y-89569556D01*
X133938390Y-89577287D01*
X134026517Y-89622190D01*
X134120776Y-89670218D01*
X134120778Y-89670218D01*
X134120781Y-89670220D01*
X134203632Y-89697140D01*
X134315465Y-89733477D01*
X134416194Y-89749431D01*
X134517648Y-89765500D01*
X134517649Y-89765500D01*
X134722351Y-89765500D01*
X134722352Y-89765500D01*
X134924534Y-89733477D01*
X135119219Y-89670220D01*
X135301610Y-89577287D01*
X135449698Y-89469696D01*
X135467213Y-89456971D01*
X135467215Y-89456968D01*
X135467219Y-89456966D01*
X135611966Y-89312219D01*
X135611968Y-89312215D01*
X135611971Y-89312213D01*
X135732284Y-89146614D01*
X135732285Y-89146613D01*
X135732287Y-89146610D01*
X135779516Y-89053917D01*
X135827489Y-89003123D01*
X135895310Y-88986328D01*
X135961445Y-89008865D01*
X136000483Y-89053917D01*
X136035233Y-89122116D01*
X136047715Y-89146614D01*
X136168028Y-89312213D01*
X136312786Y-89456971D01*
X136467749Y-89569556D01*
X136478390Y-89577287D01*
X136566517Y-89622190D01*
X136660776Y-89670218D01*
X136660778Y-89670218D01*
X136660781Y-89670220D01*
X136743632Y-89697140D01*
X136855465Y-89733477D01*
X136956194Y-89749431D01*
X137057648Y-89765500D01*
X137057649Y-89765500D01*
X137262351Y-89765500D01*
X137262352Y-89765500D01*
X137464534Y-89733477D01*
X137659219Y-89670220D01*
X137841610Y-89577287D01*
X137989698Y-89469696D01*
X138007213Y-89456971D01*
X138007215Y-89456968D01*
X138007219Y-89456966D01*
X138151966Y-89312219D01*
X138151968Y-89312215D01*
X138151971Y-89312213D01*
X138204732Y-89239590D01*
X138272287Y-89146610D01*
X138365220Y-88964219D01*
X138428477Y-88769534D01*
X138460500Y-88567352D01*
X138460500Y-87962648D01*
X138428477Y-87760466D01*
X138423632Y-87745556D01*
X138399127Y-87670137D01*
X138365220Y-87565781D01*
X138365218Y-87565778D01*
X138365218Y-87565776D01*
X138319515Y-87476080D01*
X138272287Y-87383390D01*
X138264453Y-87372607D01*
X138151971Y-87217786D01*
X138007213Y-87073028D01*
X137841613Y-86952715D01*
X137841612Y-86952714D01*
X137841610Y-86952713D01*
X137753487Y-86907812D01*
X137659223Y-86859781D01*
X137464534Y-86796522D01*
X137289995Y-86768878D01*
X137262352Y-86764500D01*
X137057648Y-86764500D01*
X137014078Y-86771401D01*
X136855464Y-86796523D01*
X136855461Y-86796523D01*
X136716888Y-86841549D01*
X136647047Y-86843544D01*
X136590889Y-86811299D01*
X136524064Y-86744474D01*
X149349500Y-86744474D01*
X149349501Y-86744491D01*
X149383299Y-87001217D01*
X149383300Y-87001222D01*
X149383301Y-87001228D01*
X149402540Y-87073028D01*
X149450324Y-87251364D01*
X149549423Y-87490609D01*
X149549427Y-87490619D01*
X149678906Y-87714883D01*
X149836551Y-87920331D01*
X149836557Y-87920338D01*
X150019661Y-88103442D01*
X150019668Y-88103448D01*
X150225116Y-88261093D01*
X150449380Y-88390572D01*
X150449381Y-88390572D01*
X150449384Y-88390574D01*
X150688634Y-88489675D01*
X150938772Y-88556699D01*
X151195519Y-88590500D01*
X151195526Y-88590500D01*
X154004474Y-88590500D01*
X154004481Y-88590500D01*
X154261228Y-88556699D01*
X154511366Y-88489675D01*
X154750616Y-88390574D01*
X154974884Y-88261093D01*
X155180333Y-88103447D01*
X155363447Y-87920333D01*
X155521093Y-87714884D01*
X155650574Y-87490616D01*
X155749675Y-87251366D01*
X155816699Y-87001228D01*
X155850500Y-86744481D01*
X155850500Y-86485519D01*
X155816699Y-86228772D01*
X155749675Y-85978634D01*
X155650574Y-85739384D01*
X155617051Y-85681321D01*
X155521093Y-85515116D01*
X155363448Y-85309668D01*
X155363442Y-85309661D01*
X155180338Y-85126557D01*
X155180331Y-85126551D01*
X154974883Y-84968906D01*
X154750619Y-84839427D01*
X154750609Y-84839423D01*
X154511364Y-84740324D01*
X154375037Y-84703796D01*
X154261228Y-84673301D01*
X154261222Y-84673300D01*
X154261217Y-84673299D01*
X154004491Y-84639501D01*
X154004486Y-84639500D01*
X154004481Y-84639500D01*
X151195519Y-84639500D01*
X151195513Y-84639500D01*
X151195508Y-84639501D01*
X150938782Y-84673299D01*
X150938775Y-84673300D01*
X150938772Y-84673301D01*
X150928274Y-84676114D01*
X150688635Y-84740324D01*
X150449390Y-84839423D01*
X150449380Y-84839427D01*
X150225116Y-84968906D01*
X150019668Y-85126551D01*
X150019661Y-85126557D01*
X149836557Y-85309661D01*
X149836551Y-85309668D01*
X149678906Y-85515116D01*
X149549427Y-85739380D01*
X149549423Y-85739390D01*
X149450324Y-85978635D01*
X149414130Y-86113716D01*
X149394707Y-86186206D01*
X149383302Y-86228769D01*
X149383299Y-86228782D01*
X149349501Y-86485508D01*
X149349500Y-86485525D01*
X149349500Y-86744474D01*
X136524064Y-86744474D01*
X131427198Y-81647608D01*
X131427178Y-81647586D01*
X131335733Y-81556141D01*
X131284509Y-81521915D01*
X131233287Y-81487689D01*
X131233286Y-81487688D01*
X131233283Y-81487686D01*
X131233280Y-81487685D01*
X131152792Y-81454347D01*
X131119453Y-81440537D01*
X131109427Y-81438543D01*
X131059029Y-81428518D01*
X130998610Y-81416500D01*
X130998607Y-81416500D01*
X130998606Y-81416500D01*
X80711345Y-81416500D01*
X80711325Y-81416499D01*
X80705211Y-81416499D01*
X80581998Y-81416499D01*
X80481201Y-81436548D01*
X80481196Y-81436548D01*
X80461153Y-81440536D01*
X80461151Y-81440536D01*
X80414001Y-81460067D01*
X80347323Y-81487685D01*
X80347321Y-81487686D01*
X80244870Y-81556141D01*
X80244867Y-81556144D01*
X76309269Y-85491744D01*
X76222144Y-85578868D01*
X76222139Y-85578874D01*
X76212012Y-85594029D01*
X76212013Y-85594030D01*
X76153686Y-85681321D01*
X76153685Y-85681322D01*
X76129638Y-85739380D01*
X76120907Y-85760459D01*
X76115159Y-85774336D01*
X76106537Y-85795149D01*
X76106535Y-85795157D01*
X76082500Y-85915993D01*
X76082500Y-89913951D01*
X76062815Y-89980990D01*
X76010011Y-90026745D01*
X75940853Y-90036689D01*
X75877297Y-90007664D01*
X75870819Y-90001632D01*
X75769141Y-89899954D01*
X75582734Y-89769432D01*
X75582732Y-89769431D01*
X75376497Y-89673261D01*
X75376488Y-89673258D01*
X75156697Y-89614366D01*
X75156693Y-89614365D01*
X75156692Y-89614365D01*
X75156691Y-89614364D01*
X75156686Y-89614364D01*
X74930002Y-89594532D01*
X74929998Y-89594532D01*
X74703313Y-89614364D01*
X74703302Y-89614366D01*
X74483511Y-89673258D01*
X74483502Y-89673261D01*
X74277267Y-89769431D01*
X74277265Y-89769432D01*
X74090858Y-89899954D01*
X73929954Y-90060858D01*
X73799432Y-90247265D01*
X73799431Y-90247267D01*
X73703261Y-90453502D01*
X73703258Y-90453511D01*
X73644366Y-90673302D01*
X73644364Y-90673313D01*
X73624532Y-90899998D01*
X73624532Y-90900001D01*
X73644364Y-91126686D01*
X73644366Y-91126697D01*
X73703258Y-91346488D01*
X73703261Y-91346497D01*
X73799431Y-91552732D01*
X73799432Y-91552734D01*
X73929954Y-91739141D01*
X74090858Y-91900045D01*
X74090861Y-91900047D01*
X74277266Y-92030568D01*
X74483504Y-92126739D01*
X74703308Y-92185635D01*
X74865230Y-92199801D01*
X74929998Y-92205468D01*
X74930000Y-92205468D01*
X74930002Y-92205468D01*
X74986673Y-92200509D01*
X75156692Y-92185635D01*
X75376496Y-92126739D01*
X75582734Y-92030568D01*
X75769139Y-91900047D01*
X75791983Y-91877203D01*
X75870819Y-91798368D01*
X75932142Y-91764883D01*
X76001834Y-91769867D01*
X76057767Y-91811739D01*
X76082184Y-91877203D01*
X76082500Y-91886049D01*
X76082500Y-97533951D01*
X76062815Y-97600990D01*
X76010011Y-97646745D01*
X75940853Y-97656689D01*
X75877297Y-97627664D01*
X75870819Y-97621632D01*
X75769141Y-97519954D01*
X75582734Y-97389432D01*
X75582732Y-97389431D01*
X75376497Y-97293261D01*
X75376488Y-97293258D01*
X75156697Y-97234366D01*
X75156693Y-97234365D01*
X75156692Y-97234365D01*
X75156691Y-97234364D01*
X75156686Y-97234364D01*
X74930002Y-97214532D01*
X74929998Y-97214532D01*
X74703313Y-97234364D01*
X74703302Y-97234366D01*
X74483511Y-97293258D01*
X74483502Y-97293261D01*
X74277267Y-97389431D01*
X74277265Y-97389432D01*
X74090858Y-97519954D01*
X73929954Y-97680858D01*
X73799432Y-97867265D01*
X73799431Y-97867267D01*
X73703261Y-98073502D01*
X73703258Y-98073511D01*
X73644366Y-98293302D01*
X73644364Y-98293313D01*
X73624532Y-98519998D01*
X73624532Y-98520001D01*
X73644364Y-98746686D01*
X73644366Y-98746697D01*
X73703258Y-98966488D01*
X73703261Y-98966497D01*
X73799431Y-99172732D01*
X73799432Y-99172734D01*
X73929954Y-99359141D01*
X74090858Y-99520045D01*
X74090861Y-99520047D01*
X74277266Y-99650568D01*
X74483504Y-99746739D01*
X74703308Y-99805635D01*
X74865230Y-99819801D01*
X74929998Y-99825468D01*
X74930000Y-99825468D01*
X74930002Y-99825468D01*
X74986673Y-99820509D01*
X75156692Y-99805635D01*
X75376496Y-99746739D01*
X75582734Y-99650568D01*
X75769139Y-99520047D01*
X75791983Y-99497203D01*
X75870819Y-99418368D01*
X75932142Y-99384883D01*
X76001834Y-99389867D01*
X76057767Y-99431739D01*
X76082184Y-99497203D01*
X76082500Y-99506049D01*
X76082500Y-100273547D01*
X76062815Y-100340586D01*
X76046181Y-100361228D01*
X71904144Y-104503264D01*
X71904138Y-104503272D01*
X71835690Y-104605708D01*
X71835688Y-104605713D01*
X71788540Y-104719538D01*
X71788537Y-104719547D01*
X71788537Y-104719549D01*
X71768259Y-104821501D01*
X71765191Y-104836924D01*
X71765187Y-104836943D01*
X71764500Y-104840393D01*
X71764500Y-104844952D01*
X71744815Y-104911991D01*
X71728182Y-104932633D01*
X71588027Y-105072788D01*
X71467715Y-105238386D01*
X71374781Y-105420776D01*
X71311522Y-105615465D01*
X71279500Y-105817648D01*
X71279500Y-106422351D01*
X66501500Y-106422351D01*
X66501499Y-105274128D01*
X66495091Y-105214517D01*
X66493810Y-105211083D01*
X66444797Y-105079671D01*
X66444793Y-105079664D01*
X66358547Y-104964455D01*
X66358544Y-104964452D01*
X66243335Y-104878206D01*
X66243328Y-104878202D01*
X66108482Y-104827908D01*
X66108483Y-104827908D01*
X66048883Y-104821501D01*
X66048881Y-104821500D01*
X66048873Y-104821500D01*
X66048864Y-104821500D01*
X64253129Y-104821500D01*
X64253123Y-104821501D01*
X64193516Y-104827908D01*
X64058671Y-104878202D01*
X64058664Y-104878206D01*
X63943455Y-104964452D01*
X63943452Y-104964455D01*
X63857206Y-105079664D01*
X63857203Y-105079669D01*
X63808189Y-105211083D01*
X63766317Y-105267016D01*
X63700853Y-105291433D01*
X63632580Y-105276581D01*
X63604326Y-105255430D01*
X63482402Y-105133506D01*
X63482395Y-105133501D01*
X63288834Y-104997967D01*
X63288830Y-104997965D01*
X63288828Y-104997964D01*
X63074663Y-104898097D01*
X63074659Y-104898096D01*
X63074655Y-104898094D01*
X62846413Y-104836938D01*
X62846403Y-104836936D01*
X62611001Y-104816341D01*
X62610999Y-104816341D01*
X62375596Y-104836936D01*
X62375586Y-104836938D01*
X62147344Y-104898094D01*
X62147335Y-104898098D01*
X61933171Y-104997964D01*
X61933169Y-104997965D01*
X61739597Y-105133505D01*
X61572505Y-105300597D01*
X61436965Y-105494169D01*
X61436964Y-105494171D01*
X61337098Y-105708335D01*
X61337094Y-105708344D01*
X61275938Y-105936586D01*
X61275936Y-105936596D01*
X61255341Y-106171999D01*
X61255341Y-106172000D01*
X60960000Y-106172000D01*
X60960000Y-101912153D01*
X61334498Y-101912153D01*
X61334499Y-101912154D01*
X62297685Y-101912154D01*
X62293291Y-101916548D01*
X62240630Y-102007760D01*
X62213371Y-102109493D01*
X62213371Y-102214815D01*
X62240630Y-102316548D01*
X62293291Y-102407760D01*
X62297685Y-102412154D01*
X61334499Y-102412154D01*
X61387101Y-102608471D01*
X61387105Y-102608480D01*
X61483236Y-102814636D01*
X61613713Y-103000974D01*
X61774550Y-103161811D01*
X61960888Y-103292288D01*
X62167044Y-103388419D01*
X62167053Y-103388423D01*
X62363370Y-103441026D01*
X62363371Y-103441025D01*
X62363371Y-102477840D01*
X62367765Y-102482234D01*
X62458977Y-102534895D01*
X62560710Y-102562154D01*
X62666032Y-102562154D01*
X62767765Y-102534895D01*
X62858977Y-102482234D01*
X62863371Y-102477840D01*
X62863371Y-103441026D01*
X63059688Y-103388423D01*
X63059697Y-103388419D01*
X63265853Y-103292288D01*
X63452191Y-103161811D01*
X63613028Y-103000974D01*
X63743505Y-102814636D01*
X63839636Y-102608480D01*
X63839640Y-102608471D01*
X63892243Y-102412154D01*
X62929057Y-102412154D01*
X62933451Y-102407760D01*
X62986112Y-102316548D01*
X63013371Y-102214815D01*
X63013371Y-102109493D01*
X62986112Y-102007760D01*
X62933451Y-101916548D01*
X62929057Y-101912154D01*
X63892243Y-101912154D01*
X63892243Y-101912153D01*
X63839640Y-101715836D01*
X63839636Y-101715827D01*
X63743505Y-101509671D01*
X63613028Y-101323333D01*
X63452191Y-101162496D01*
X63265853Y-101032019D01*
X63059699Y-100935888D01*
X62863371Y-100883281D01*
X62863371Y-101846468D01*
X62858977Y-101842074D01*
X62767765Y-101789413D01*
X62666032Y-101762154D01*
X62560710Y-101762154D01*
X62458977Y-101789413D01*
X62367765Y-101842074D01*
X62363371Y-101846468D01*
X62363371Y-100883281D01*
X62167042Y-100935888D01*
X61960888Y-101032019D01*
X61774550Y-101162496D01*
X61613713Y-101323333D01*
X61483236Y-101509671D01*
X61387105Y-101715827D01*
X61387101Y-101715836D01*
X61334498Y-101912153D01*
X60960000Y-101912153D01*
X60960000Y-92837000D01*
X63356540Y-92837000D01*
X63376326Y-93025256D01*
X63376327Y-93025259D01*
X63434818Y-93205277D01*
X63434821Y-93205284D01*
X63529467Y-93369216D01*
X63561530Y-93404825D01*
X63604650Y-93452715D01*
X63634880Y-93515706D01*
X63636500Y-93535687D01*
X63636500Y-96200611D01*
X63660535Y-96321444D01*
X63660540Y-96321461D01*
X63707685Y-96435280D01*
X63707690Y-96435289D01*
X63741914Y-96486507D01*
X63741915Y-96486509D01*
X63776141Y-96537733D01*
X63867586Y-96629178D01*
X63867608Y-96629198D01*
X64489181Y-97250771D01*
X64522666Y-97312094D01*
X64525500Y-97338452D01*
X64525500Y-98869312D01*
X64505815Y-98936351D01*
X64493650Y-98952284D01*
X64418466Y-99035784D01*
X64323821Y-99199715D01*
X64323818Y-99199722D01*
X64272021Y-99359139D01*
X64265326Y-99379744D01*
X64245540Y-99568000D01*
X64265326Y-99756256D01*
X64265327Y-99756259D01*
X64323818Y-99936277D01*
X64323821Y-99936284D01*
X64418467Y-100100216D01*
X64452383Y-100137883D01*
X64545129Y-100240888D01*
X64698265Y-100352148D01*
X64698270Y-100352151D01*
X64871192Y-100429142D01*
X64871197Y-100429144D01*
X65056354Y-100468500D01*
X65056355Y-100468500D01*
X65245644Y-100468500D01*
X65245646Y-100468500D01*
X65430803Y-100429144D01*
X65603730Y-100352151D01*
X65756871Y-100240888D01*
X65883533Y-100100216D01*
X65978179Y-99936284D01*
X66036674Y-99756256D01*
X66056460Y-99568000D01*
X66036674Y-99379744D01*
X65978179Y-99199716D01*
X65883533Y-99035784D01*
X65821139Y-98966488D01*
X65808350Y-98952284D01*
X65778120Y-98889292D01*
X65776500Y-98869312D01*
X65776500Y-98500002D01*
X69815034Y-98500002D01*
X69834858Y-98726599D01*
X69834860Y-98726610D01*
X69893730Y-98946317D01*
X69893735Y-98946331D01*
X69989863Y-99152478D01*
X70040974Y-99225472D01*
X70720000Y-98546446D01*
X70720000Y-98552661D01*
X70747259Y-98654394D01*
X70799920Y-98745606D01*
X70874394Y-98820080D01*
X70965606Y-98872741D01*
X71067339Y-98900000D01*
X71073553Y-98900000D01*
X70394526Y-99579025D01*
X70467513Y-99630132D01*
X70467521Y-99630136D01*
X70673668Y-99726264D01*
X70673682Y-99726269D01*
X70893389Y-99785139D01*
X70893400Y-99785141D01*
X71119998Y-99804966D01*
X71120002Y-99804966D01*
X71346599Y-99785141D01*
X71346610Y-99785139D01*
X71566317Y-99726269D01*
X71566331Y-99726264D01*
X71772478Y-99630136D01*
X71845471Y-99579024D01*
X71166447Y-98900000D01*
X71172661Y-98900000D01*
X71274394Y-98872741D01*
X71365606Y-98820080D01*
X71440080Y-98745606D01*
X71492741Y-98654394D01*
X71520000Y-98552661D01*
X71520000Y-98546447D01*
X72199024Y-99225471D01*
X72250136Y-99152478D01*
X72346264Y-98946331D01*
X72346269Y-98946317D01*
X72405139Y-98726610D01*
X72405141Y-98726599D01*
X72424966Y-98500002D01*
X72424966Y-98499997D01*
X72405141Y-98273400D01*
X72405139Y-98273389D01*
X72346269Y-98053682D01*
X72346264Y-98053668D01*
X72250136Y-97847521D01*
X72250132Y-97847513D01*
X72199025Y-97774526D01*
X71520000Y-98453551D01*
X71520000Y-98447339D01*
X71492741Y-98345606D01*
X71440080Y-98254394D01*
X71365606Y-98179920D01*
X71274394Y-98127259D01*
X71172661Y-98100000D01*
X71166448Y-98100000D01*
X71845472Y-97420974D01*
X71772478Y-97369863D01*
X71566331Y-97273735D01*
X71566317Y-97273730D01*
X71346610Y-97214860D01*
X71346599Y-97214858D01*
X71120002Y-97195034D01*
X71119998Y-97195034D01*
X70893400Y-97214858D01*
X70893389Y-97214860D01*
X70673682Y-97273730D01*
X70673673Y-97273734D01*
X70467516Y-97369866D01*
X70467512Y-97369868D01*
X70394526Y-97420973D01*
X70394526Y-97420974D01*
X71073553Y-98100000D01*
X71067339Y-98100000D01*
X70965606Y-98127259D01*
X70874394Y-98179920D01*
X70799920Y-98254394D01*
X70747259Y-98345606D01*
X70720000Y-98447339D01*
X70720000Y-98453552D01*
X70040974Y-97774526D01*
X70040973Y-97774526D01*
X69989868Y-97847512D01*
X69989866Y-97847516D01*
X69893734Y-98053673D01*
X69893730Y-98053682D01*
X69834860Y-98273389D01*
X69834858Y-98273400D01*
X69815034Y-98499997D01*
X69815034Y-98500002D01*
X65776500Y-98500002D01*
X65776500Y-96966393D01*
X65776499Y-96966389D01*
X65752464Y-96845555D01*
X65752463Y-96845548D01*
X65708936Y-96740465D01*
X65705312Y-96731715D01*
X65705311Y-96731714D01*
X65674304Y-96685309D01*
X65674303Y-96685308D01*
X65636856Y-96629264D01*
X65546637Y-96539045D01*
X65546606Y-96539016D01*
X64923819Y-95916229D01*
X64890334Y-95854906D01*
X64887500Y-95828548D01*
X64887500Y-93535687D01*
X64907185Y-93468648D01*
X64919350Y-93452715D01*
X64962469Y-93404826D01*
X64994533Y-93369216D01*
X65089179Y-93205284D01*
X65147674Y-93025256D01*
X65167460Y-92837000D01*
X65147674Y-92648744D01*
X65089179Y-92468716D01*
X64994533Y-92304784D01*
X64867871Y-92164112D01*
X64867870Y-92164111D01*
X64714734Y-92052851D01*
X64714729Y-92052848D01*
X64541807Y-91975857D01*
X64541802Y-91975855D01*
X64396001Y-91944865D01*
X64356646Y-91936500D01*
X64167354Y-91936500D01*
X64134897Y-91943398D01*
X63982197Y-91975855D01*
X63982192Y-91975857D01*
X63809270Y-92052848D01*
X63809265Y-92052851D01*
X63656129Y-92164111D01*
X63529466Y-92304785D01*
X63434821Y-92468715D01*
X63434818Y-92468722D01*
X63376327Y-92648740D01*
X63376326Y-92648744D01*
X63356540Y-92837000D01*
X60960000Y-92837000D01*
X60960000Y-84788571D01*
X60979685Y-84721532D01*
X61032489Y-84675777D01*
X61101647Y-84665833D01*
X61158312Y-84689305D01*
X61177668Y-84703795D01*
X61177671Y-84703797D01*
X61222618Y-84720561D01*
X61312517Y-84754091D01*
X61372127Y-84760500D01*
X61670500Y-84760499D01*
X61737539Y-84780183D01*
X61783294Y-84832987D01*
X61794500Y-84884499D01*
X61794500Y-85360514D01*
X61774815Y-85427553D01*
X61748079Y-85455375D01*
X61748934Y-85456394D01*
X61744786Y-85459874D01*
X61583874Y-85620785D01*
X61453355Y-85807188D01*
X61453354Y-85807190D01*
X61357184Y-86013425D01*
X61357181Y-86013434D01*
X61298289Y-86233225D01*
X61298287Y-86233236D01*
X61278455Y-86459921D01*
X61278455Y-86459924D01*
X61298287Y-86686609D01*
X61298289Y-86686620D01*
X61357181Y-86906411D01*
X61357184Y-86906420D01*
X61453354Y-87112655D01*
X61453355Y-87112657D01*
X61583877Y-87299064D01*
X61744781Y-87459968D01*
X61744784Y-87459970D01*
X61931189Y-87590491D01*
X62137427Y-87686662D01*
X62357231Y-87745558D01*
X62519153Y-87759724D01*
X62583921Y-87765391D01*
X62583923Y-87765391D01*
X62583925Y-87765391D01*
X62640596Y-87760432D01*
X62810615Y-87745558D01*
X63030419Y-87686662D01*
X63236657Y-87590491D01*
X63423062Y-87459970D01*
X63583970Y-87299062D01*
X63714491Y-87112657D01*
X63810662Y-86906419D01*
X63869558Y-86686615D01*
X63889391Y-86459923D01*
X63869558Y-86233231D01*
X63810662Y-86013427D01*
X63714491Y-85807189D01*
X63583970Y-85620784D01*
X63583968Y-85620781D01*
X63423064Y-85459877D01*
X63236656Y-85329354D01*
X63117094Y-85273601D01*
X63064656Y-85227428D01*
X63045500Y-85161219D01*
X63045500Y-84884499D01*
X63065185Y-84817460D01*
X63117989Y-84771705D01*
X63169500Y-84760499D01*
X63467871Y-84760499D01*
X63467872Y-84760499D01*
X63527483Y-84754091D01*
X63662331Y-84703796D01*
X63777546Y-84617546D01*
X63863796Y-84502331D01*
X63877688Y-84465082D01*
X63919558Y-84409151D01*
X63985022Y-84384733D01*
X64053295Y-84399584D01*
X64081551Y-84420736D01*
X64112786Y-84451971D01*
X64267749Y-84564556D01*
X64278390Y-84572287D01*
X64394607Y-84631503D01*
X64460776Y-84665218D01*
X64460778Y-84665218D01*
X64460781Y-84665220D01*
X64534907Y-84689305D01*
X64655465Y-84728477D01*
X64730264Y-84740324D01*
X64857648Y-84760500D01*
X64857649Y-84760500D01*
X65062351Y-84760500D01*
X65062352Y-84760500D01*
X65264534Y-84728477D01*
X65459219Y-84665220D01*
X65641610Y-84572287D01*
X65737897Y-84502331D01*
X65807213Y-84451971D01*
X65807215Y-84451968D01*
X65807219Y-84451966D01*
X65951966Y-84307219D01*
X65951968Y-84307215D01*
X65951971Y-84307213D01*
X66072284Y-84141614D01*
X66072285Y-84141613D01*
X66072287Y-84141610D01*
X66119516Y-84048917D01*
X66167489Y-83998123D01*
X66235310Y-83981328D01*
X66301445Y-84003865D01*
X66340485Y-84048919D01*
X66387715Y-84141614D01*
X66508028Y-84307213D01*
X66508034Y-84307219D01*
X66652781Y-84451966D01*
X66818390Y-84572287D01*
X66818394Y-84572289D01*
X66822332Y-84575150D01*
X66821111Y-84576829D01*
X66862155Y-84622177D01*
X66874500Y-84676114D01*
X66874500Y-91055107D01*
X66854815Y-91122146D01*
X66838181Y-91142788D01*
X66452956Y-91528013D01*
X66452950Y-91528020D01*
X66415328Y-91574705D01*
X66415326Y-91574707D01*
X66355541Y-91705617D01*
X66355540Y-91705621D01*
X66335060Y-91848077D01*
X66355540Y-91990532D01*
X66355541Y-91990536D01*
X66415327Y-92121447D01*
X66415328Y-92121448D01*
X66415329Y-92121450D01*
X66452948Y-92168133D01*
X66452951Y-92168136D01*
X66452956Y-92168142D01*
X67490093Y-93205277D01*
X67652021Y-93367205D01*
X67698704Y-93404825D01*
X67698705Y-93404825D01*
X67698707Y-93404827D01*
X67829617Y-93464612D01*
X67829618Y-93464612D01*
X67829620Y-93464613D01*
X67972077Y-93485094D01*
X68114534Y-93464613D01*
X68245450Y-93404825D01*
X68292133Y-93367206D01*
X68962819Y-92696518D01*
X69024142Y-92663034D01*
X69093833Y-92668018D01*
X69149767Y-92709889D01*
X69174184Y-92775354D01*
X69174500Y-92784200D01*
X69174500Y-94665072D01*
X69154815Y-94732111D01*
X69138181Y-94752753D01*
X68416347Y-95474586D01*
X68355024Y-95508071D01*
X68296574Y-95506680D01*
X68228224Y-95488367D01*
X68228227Y-95488367D01*
X68228217Y-95488365D01*
X68228214Y-95488364D01*
X68228211Y-95488364D01*
X68001526Y-95468532D01*
X68001523Y-95468532D01*
X67774838Y-95488364D01*
X67774827Y-95488366D01*
X67555036Y-95547258D01*
X67555027Y-95547261D01*
X67348792Y-95643431D01*
X67348790Y-95643432D01*
X67162383Y-95773954D01*
X67001479Y-95934858D01*
X66870957Y-96121265D01*
X66870956Y-96121267D01*
X66774786Y-96327502D01*
X66774783Y-96327511D01*
X66715891Y-96547302D01*
X66715889Y-96547313D01*
X66696057Y-96773998D01*
X66696057Y-96774001D01*
X66715889Y-97000686D01*
X66715891Y-97000697D01*
X66774783Y-97220488D01*
X66774786Y-97220497D01*
X66870956Y-97426732D01*
X66870957Y-97426734D01*
X67001479Y-97613141D01*
X67162383Y-97774045D01*
X67162386Y-97774047D01*
X67348791Y-97904568D01*
X67555029Y-98000739D01*
X67774833Y-98059635D01*
X67933333Y-98073502D01*
X68001523Y-98079468D01*
X68001525Y-98079468D01*
X68001527Y-98079468D01*
X68058198Y-98074509D01*
X68228217Y-98059635D01*
X68448021Y-98000739D01*
X68654259Y-97904568D01*
X68840664Y-97774047D01*
X69001572Y-97613139D01*
X69132093Y-97426734D01*
X69228264Y-97220496D01*
X69287160Y-97000692D01*
X69306993Y-96774000D01*
X69303293Y-96731714D01*
X69299309Y-96686167D01*
X69287160Y-96547308D01*
X69268843Y-96478947D01*
X69270506Y-96409101D01*
X69300935Y-96359178D01*
X70198729Y-95461385D01*
X70198733Y-95461383D01*
X70285858Y-95374258D01*
X70354311Y-95271811D01*
X70354312Y-95271810D01*
X70354313Y-95271807D01*
X70354315Y-95271804D01*
X70364672Y-95246797D01*
X70401463Y-95157976D01*
X70425500Y-95037131D01*
X70425500Y-94913918D01*
X70425500Y-92185733D01*
X70445185Y-92118694D01*
X70497989Y-92072939D01*
X70567147Y-92062995D01*
X70601901Y-92073349D01*
X70673504Y-92106739D01*
X70893308Y-92165635D01*
X71055230Y-92179801D01*
X71119998Y-92185468D01*
X71120000Y-92185468D01*
X71120002Y-92185468D01*
X71176673Y-92180509D01*
X71346692Y-92165635D01*
X71566496Y-92106739D01*
X71772734Y-92010568D01*
X71959139Y-91880047D01*
X72120047Y-91719139D01*
X72250568Y-91532734D01*
X72346739Y-91326496D01*
X72405635Y-91106692D01*
X72425468Y-90880000D01*
X72405635Y-90653308D01*
X72346739Y-90433504D01*
X72250568Y-90227266D01*
X72120047Y-90040861D01*
X72120045Y-90040858D01*
X71959141Y-89879954D01*
X71772734Y-89749432D01*
X71772732Y-89749431D01*
X71566497Y-89653261D01*
X71566488Y-89653258D01*
X71346697Y-89594366D01*
X71346693Y-89594365D01*
X71346692Y-89594365D01*
X71346691Y-89594364D01*
X71346686Y-89594364D01*
X71120002Y-89574532D01*
X71119998Y-89574532D01*
X70893313Y-89594364D01*
X70893302Y-89594366D01*
X70673511Y-89653258D01*
X70673497Y-89653263D01*
X70601904Y-89686648D01*
X70532827Y-89697140D01*
X70469043Y-89668620D01*
X70430804Y-89610143D01*
X70425500Y-89574266D01*
X70425500Y-86720452D01*
X70445185Y-86653413D01*
X70461819Y-86632771D01*
X71355210Y-85739380D01*
X72309045Y-84785544D01*
X72370366Y-84752061D01*
X72416117Y-84750754D01*
X72477648Y-84760500D01*
X72477651Y-84760500D01*
X72682351Y-84760500D01*
X72682352Y-84760500D01*
X72884534Y-84728477D01*
X73079219Y-84665220D01*
X73261610Y-84572287D01*
X73357897Y-84502331D01*
X73427213Y-84451971D01*
X73427215Y-84451968D01*
X73427219Y-84451966D01*
X73571966Y-84307219D01*
X73571968Y-84307215D01*
X73571971Y-84307213D01*
X73624732Y-84234590D01*
X73692287Y-84141610D01*
X73785220Y-83959219D01*
X73848477Y-83764534D01*
X73880500Y-83562352D01*
X73880500Y-82957648D01*
X73848477Y-82755466D01*
X73785220Y-82560781D01*
X73785218Y-82560778D01*
X73785218Y-82560776D01*
X73736168Y-82464511D01*
X73692287Y-82378390D01*
X73663656Y-82338982D01*
X73571971Y-82212786D01*
X73427213Y-82068028D01*
X73261613Y-81947715D01*
X73261612Y-81947714D01*
X73261610Y-81947713D01*
X73202956Y-81917827D01*
X73079223Y-81854781D01*
X72884534Y-81791522D01*
X72709995Y-81763878D01*
X72682352Y-81759500D01*
X72477648Y-81759500D01*
X72453329Y-81763351D01*
X72275465Y-81791522D01*
X72080776Y-81854781D01*
X71898386Y-81947715D01*
X71732786Y-82068028D01*
X71588028Y-82212786D01*
X71467715Y-82378386D01*
X71374781Y-82560776D01*
X71311522Y-82755465D01*
X71279500Y-82957648D01*
X71279500Y-83562351D01*
X71311523Y-83764535D01*
X71311523Y-83764538D01*
X71349191Y-83880467D01*
X71351186Y-83950308D01*
X71318941Y-84006466D01*
X69870034Y-85455375D01*
X69401269Y-85924140D01*
X69401267Y-85924142D01*
X69357704Y-85967704D01*
X69314142Y-86011266D01*
X69299178Y-86033661D01*
X69284315Y-86055906D01*
X69245688Y-86113714D01*
X69215662Y-86186204D01*
X69198538Y-86227544D01*
X69198535Y-86227556D01*
X69174500Y-86348389D01*
X69174500Y-90911953D01*
X69154815Y-90978992D01*
X69102011Y-91024747D01*
X69032853Y-91034691D01*
X68969297Y-91005666D01*
X68962819Y-90999634D01*
X68292140Y-90328956D01*
X68292133Y-90328949D01*
X68245450Y-90291329D01*
X68245448Y-90291328D01*
X68245446Y-90291326D01*
X68197988Y-90269653D01*
X68145184Y-90223898D01*
X68125500Y-90156859D01*
X68125500Y-84676114D01*
X68145185Y-84609075D01*
X68178575Y-84576398D01*
X68177668Y-84575150D01*
X68181605Y-84572289D01*
X68181610Y-84572287D01*
X68347219Y-84451966D01*
X68491966Y-84307219D01*
X68491968Y-84307215D01*
X68491971Y-84307213D01*
X68544732Y-84234590D01*
X68612287Y-84141610D01*
X68705220Y-83959219D01*
X68768477Y-83764534D01*
X68800500Y-83562352D01*
X68800500Y-82957648D01*
X68768477Y-82755466D01*
X68705220Y-82560781D01*
X68705218Y-82560778D01*
X68705218Y-82560776D01*
X68656168Y-82464511D01*
X68612287Y-82378390D01*
X68583656Y-82338982D01*
X68491971Y-82212786D01*
X68347213Y-82068028D01*
X68181613Y-81947715D01*
X68181612Y-81947714D01*
X68181610Y-81947713D01*
X68122956Y-81917827D01*
X67999223Y-81854781D01*
X67804534Y-81791522D01*
X67629995Y-81763878D01*
X67602352Y-81759500D01*
X67397648Y-81759500D01*
X67373329Y-81763351D01*
X67195465Y-81791522D01*
X67000776Y-81854781D01*
X66818386Y-81947715D01*
X66652786Y-82068028D01*
X66508028Y-82212786D01*
X66387715Y-82378386D01*
X66340485Y-82471080D01*
X66292510Y-82521876D01*
X66224689Y-82538671D01*
X66158554Y-82516134D01*
X66119515Y-82471080D01*
X66116168Y-82464511D01*
X66072287Y-82378390D01*
X66043656Y-82338982D01*
X65951971Y-82212786D01*
X65807213Y-82068028D01*
X65641613Y-81947715D01*
X65641612Y-81947714D01*
X65641610Y-81947713D01*
X65582956Y-81917827D01*
X65459223Y-81854781D01*
X65264534Y-81791522D01*
X65089995Y-81763878D01*
X65062352Y-81759500D01*
X64857648Y-81759500D01*
X64833329Y-81763351D01*
X64655465Y-81791522D01*
X64460776Y-81854781D01*
X64278386Y-81947715D01*
X64112787Y-82068027D01*
X64081550Y-82099265D01*
X64020226Y-82132749D01*
X63950535Y-82127763D01*
X63894602Y-82085891D01*
X63877688Y-82054914D01*
X63863798Y-82017673D01*
X63863793Y-82017664D01*
X63777547Y-81902455D01*
X63777544Y-81902452D01*
X63662335Y-81816206D01*
X63662328Y-81816202D01*
X63527482Y-81765908D01*
X63527483Y-81765908D01*
X63467883Y-81759501D01*
X63467881Y-81759500D01*
X63467873Y-81759500D01*
X63467864Y-81759500D01*
X61372129Y-81759500D01*
X61372123Y-81759501D01*
X61312516Y-81765908D01*
X61177671Y-81816202D01*
X61177664Y-81816206D01*
X61158310Y-81830695D01*
X61092845Y-81855112D01*
X61024573Y-81840260D01*
X60975168Y-81790854D01*
X60960000Y-81731428D01*
X60960000Y-80716328D01*
X60979685Y-80649289D01*
X61032489Y-80603534D01*
X61082803Y-80592334D01*
X111123859Y-80110011D01*
X111126136Y-80110011D01*
X163557760Y-80617823D01*
G37*
%TD.AperFunction*%
%TD*%
M02*
