%TF.GenerationSoftware,KiCad,Pcbnew,8.0.1*%
%TF.CreationDate,2024-06-06T13:27:34-04:00*%
%TF.ProjectId,PillPCB,50696c6c-5043-4422-9e6b-696361645f70,rev?*%
%TF.SameCoordinates,Original*%
%TF.FileFunction,Soldermask,Top*%
%TF.FilePolarity,Negative*%
%FSLAX46Y46*%
G04 Gerber Fmt 4.6, Leading zero omitted, Abs format (unit mm)*
G04 Created by KiCad (PCBNEW 8.0.1) date 2024-06-06 13:27:34*
%MOMM*%
%LPD*%
G01*
G04 APERTURE LIST*
G04 Aperture macros list*
%AMHorizOval*
0 Thick line with rounded ends*
0 $1 width*
0 $2 $3 position (X,Y) of the first rounded end (center of the circle)*
0 $4 $5 position (X,Y) of the second rounded end (center of the circle)*
0 Add line between two ends*
20,1,$1,$2,$3,$4,$5,0*
0 Add two circle primitives to create the rounded ends*
1,1,$1,$2,$3*
1,1,$1,$4,$5*%
%AMRotRect*
0 Rectangle, with rotation*
0 The origin of the aperture is its center*
0 $1 length*
0 $2 width*
0 $3 Rotation angle, in degrees counterclockwise*
0 Add horizontal line*
21,1,$1,$2,0,0,$3*%
G04 Aperture macros list end*
%ADD10O,4.000000X2.390000*%
%ADD11O,6.000000X3.450000*%
%ADD12R,6.885000X6.350000*%
%ADD13R,7.340000X6.350000*%
%ADD14R,1.700000X1.700000*%
%ADD15O,1.700000X1.700000*%
%ADD16O,3.500000X2.200000*%
%ADD17R,2.500000X1.500000*%
%ADD18O,2.500000X1.500000*%
%ADD19C,1.600000*%
%ADD20O,1.600000X1.600000*%
%ADD21HorizOval,1.600000X0.000000X0.000000X0.000000X0.000000X0*%
%ADD22R,2.000000X2.000000*%
%ADD23RotRect,1.600000X1.600000X135.000000*%
%ADD24HorizOval,1.600000X0.000000X0.000000X0.000000X0.000000X0*%
%ADD25R,1.500000X1.050000*%
%ADD26O,1.500000X1.050000*%
%ADD27O,1.600000X2.000000*%
G04 APERTURE END LIST*
D10*
%TO.C,BAT1*%
X89070000Y-86615000D03*
D11*
X97400000Y-102615000D03*
X152600000Y-86615000D03*
D12*
X85897500Y-94615000D03*
D13*
X164330000Y-94615000D03*
%TD*%
D14*
%TO.C,J1*%
X65151000Y-106172000D03*
D15*
X62611000Y-106172000D03*
%TD*%
D16*
%TO.C,SW1*%
X57245000Y-90515000D03*
X57245000Y-98715000D03*
D17*
X57245000Y-92615000D03*
D18*
X57245000Y-94615000D03*
X57245000Y-96615000D03*
%TD*%
D19*
%TO.C,R3*%
X74930000Y-90900000D03*
D20*
X74930000Y-98520000D03*
%TD*%
D19*
%TO.C,R2*%
X71120000Y-98500000D03*
D20*
X71120000Y-90880000D03*
%TD*%
D19*
%TO.C,R1*%
X62613371Y-102162154D03*
D21*
X68001525Y-96774000D03*
%TD*%
D22*
%TO.C,U2*%
X57645000Y-87630000D03*
X57645000Y-101630000D03*
X80645000Y-87630000D03*
X80645000Y-101630000D03*
X80645000Y-90170000D03*
X80645000Y-99090000D03*
%TD*%
D23*
%TO.C,D1*%
X67972077Y-91848077D03*
D24*
X62583923Y-86459923D03*
%TD*%
D25*
%TO.C,U4*%
X153670000Y-93350000D03*
D26*
X153670000Y-94620000D03*
X153670000Y-95890000D03*
%TD*%
D22*
%TO.C,U1*%
X62420000Y-83260000D03*
D27*
X64960000Y-83260000D03*
X67500000Y-83260000D03*
X72580000Y-83260000D03*
X80200000Y-106120000D03*
X77660000Y-106120000D03*
X75120000Y-106120000D03*
X72580000Y-106120000D03*
%TD*%
D22*
%TO.C,U3*%
X129540000Y-88265000D03*
D27*
X132080000Y-88265000D03*
X134620000Y-88265000D03*
X137160000Y-88265000D03*
%TD*%
M02*
