%TF.GenerationSoftware,KiCad,Pcbnew,8.0.1*%
%TF.CreationDate,2024-06-06T13:27:34-04:00*%
%TF.ProjectId,PillPCB,50696c6c-5043-4422-9e6b-696361645f70,rev?*%
%TF.SameCoordinates,Original*%
%TF.FileFunction,Profile,NP*%
%FSLAX46Y46*%
G04 Gerber Fmt 4.6, Leading zero omitted, Abs format (unit mm)*
G04 Created by KiCad (PCBNEW 8.0.1) date 2024-06-06 13:27:34*
%MOMM*%
%LPD*%
G01*
G04 APERTURE LIST*
%TA.AperFunction,Profile*%
%ADD10C,0.100000*%
%TD*%
G04 APERTURE END LIST*
D10*
X111125000Y-109120000D02*
X58420000Y-108866000D01*
X168150000Y-89615000D02*
X171450000Y-89615000D01*
X171450000Y-87630000D02*
X171450000Y-89615000D01*
X111125000Y-80110000D02*
X163576000Y-80618000D01*
X50800000Y-88900000D02*
X50800000Y-86995000D01*
X171450000Y-99615000D02*
X168150000Y-99615000D01*
X168150000Y-99615000D02*
X168150000Y-89615000D01*
X168150000Y-82042000D02*
X171450000Y-87630000D01*
X50800000Y-99615000D02*
X54100000Y-99615000D01*
X54100000Y-99615000D02*
X54100000Y-88900000D01*
X50800000Y-102235000D02*
X54100000Y-107188000D01*
X54100000Y-107188000D02*
X58420000Y-108866000D01*
X50800000Y-86995000D02*
X54100000Y-82042000D01*
X50800000Y-102235000D02*
X50800000Y-99615000D01*
X54100000Y-82042000D02*
X58420000Y-80618000D01*
X163576000Y-108866000D02*
X111125000Y-109120000D01*
X54100000Y-88900000D02*
X50800000Y-88900000D01*
X171450000Y-101600000D02*
X168150000Y-107188000D01*
X171450000Y-101600000D02*
X171450000Y-99615000D01*
X168150000Y-107188000D02*
X163576000Y-108866000D01*
X58420000Y-80618000D02*
X111125000Y-80110000D01*
X163576000Y-80618000D02*
X168150000Y-82042000D01*
M02*
