M48
; DRILL file {KiCad 8.0.1} date 2024-06-06T13:27:49-0400
; FORMAT={-:-/ absolute / inch / decimal}
; #@! TF.CreationDate,2024-06-06T13:27:49-04:00
; #@! TF.GenerationSoftware,Kicad,Pcbnew,8.0.1
; #@! TF.FileFunction,Plated,1,2,PTH
FMAT,2
INCH
; #@! TA.AperFunction,Plated,PTH,ViaDrill
T1C0.0157
; #@! TA.AperFunction,Plated,PTH,ComponentDrill
T2C0.0295
; #@! TA.AperFunction,Plated,PTH,ComponentDrill
T3C0.0315
; #@! TA.AperFunction,Plated,PTH,ComponentDrill
T4C0.0354
; #@! TA.AperFunction,Plated,PTH,ComponentDrill
T5C0.0394
; #@! TA.AperFunction,Plated,PTH,ComponentDrill
T6C0.0591
%
G90
G05
T1
X2.53Y-3.655
X2.565Y-3.92
X3.26Y-4.08
X3.36Y-3.98
X3.65Y-4.1
X3.65Y-4.245
X4.2Y-4.1
X4.2Y-4.245
X4.8Y-4.1
X4.8Y-4.245
X6.025Y-4.1
X6.025Y-4.24
T2
X6.05Y-3.6752
X6.05Y-3.7252
X6.05Y-3.7752
T3
X2.4639Y-3.4039
X2.4651Y-4.0221
X2.6761Y-3.6161
X2.6772Y-3.81
X2.8Y-3.578
X2.8Y-3.878
X2.95Y-3.5787
X2.95Y-3.8787
T4
X2.2537Y-3.6463
X2.2537Y-3.725
X2.2537Y-3.8037
T5
X2.2695Y-3.45
X2.2695Y-4.0012
X2.4575Y-3.278
X2.465Y-4.18
X2.5575Y-3.278
X2.565Y-4.18
X2.6575Y-3.278
X2.8575Y-3.278
X2.8575Y-4.178
X2.9575Y-4.178
X3.0575Y-4.178
X3.1575Y-4.178
X3.175Y-3.45
X3.175Y-3.55
X3.175Y-3.9012
X3.175Y-4.0012
X5.1Y-3.475
X5.2Y-3.475
X5.3Y-3.475
X5.4Y-3.475
T6
X2.2537Y-3.5636
X2.2537Y-3.8864
M30
