%TF.GenerationSoftware,KiCad,Pcbnew,8.0.1*%
%TF.CreationDate,2024-06-06T13:27:34-04:00*%
%TF.ProjectId,PillPCB,50696c6c-5043-4422-9e6b-696361645f70,rev?*%
%TF.SameCoordinates,Original*%
%TF.FileFunction,Paste,Bot*%
%TF.FilePolarity,Positive*%
%FSLAX46Y46*%
G04 Gerber Fmt 4.6, Leading zero omitted, Abs format (unit mm)*
G04 Created by KiCad (PCBNEW 8.0.1) date 2024-06-06 13:27:34*
%MOMM*%
%LPD*%
G01*
G04 APERTURE LIST*
G04 Aperture macros list*
%AMRoundRect*
0 Rectangle with rounded corners*
0 $1 Rounding radius*
0 $2 $3 $4 $5 $6 $7 $8 $9 X,Y pos of 4 corners*
0 Add a 4 corners polygon primitive as box body*
4,1,4,$2,$3,$4,$5,$6,$7,$8,$9,$2,$3,0*
0 Add four circle primitives for the rounded corners*
1,1,$1+$1,$2,$3*
1,1,$1+$1,$4,$5*
1,1,$1+$1,$6,$7*
1,1,$1+$1,$8,$9*
0 Add four rect primitives between the rounded corners*
20,1,$1+$1,$2,$3,$4,$5,0*
20,1,$1+$1,$4,$5,$6,$7,0*
20,1,$1+$1,$6,$7,$8,$9,0*
20,1,$1+$1,$8,$9,$2,$3,0*%
G04 Aperture macros list end*
%ADD10C,0.100000*%
%ADD11RoundRect,2.000000X2.000000X5.500000X-2.000000X5.500000X-2.000000X-5.500000X2.000000X-5.500000X0*%
G04 APERTURE END LIST*
D10*
%TO.C,REF\u002A\u002A*%
X167640000Y-86568890D02*
X163240036Y-86568890D01*
X163240036Y-82677000D01*
X167640000Y-82677000D01*
X167640000Y-86568890D01*
G36*
X167640000Y-86568890D02*
G01*
X163240036Y-86568890D01*
X163240036Y-82677000D01*
X167640000Y-82677000D01*
X167640000Y-86568890D01*
G37*
X167640000Y-106561890D02*
X163195000Y-106561890D01*
X163195000Y-102670000D01*
X167640000Y-102670000D01*
X167640000Y-106561890D01*
G36*
X167640000Y-106561890D02*
G01*
X163195000Y-106561890D01*
X163195000Y-102670000D01*
X167640000Y-102670000D01*
X167640000Y-106561890D01*
G37*
X170815000Y-87503000D02*
X170815000Y-88900000D01*
X168910000Y-88900000D01*
X167640000Y-86568890D01*
X167005000Y-82677000D01*
X167767000Y-82677000D01*
X170815000Y-87503000D01*
G36*
X170815000Y-87503000D02*
G01*
X170815000Y-88900000D01*
X168910000Y-88900000D01*
X167640000Y-86568890D01*
X167005000Y-82677000D01*
X167767000Y-82677000D01*
X170815000Y-87503000D01*
G37*
X170769964Y-101735890D02*
X167721964Y-106561890D01*
X166959964Y-106561890D01*
X167640000Y-102670000D01*
X168910000Y-100338890D01*
X170769964Y-100338890D01*
X170769964Y-101735890D01*
G36*
X170769964Y-101735890D02*
G01*
X167721964Y-106561890D01*
X166959964Y-106561890D01*
X167640000Y-102670000D01*
X168910000Y-100338890D01*
X170769964Y-100338890D01*
X170769964Y-101735890D01*
G37*
%TD*%
D11*
%TO.C,REF\u002A\u002A*%
X163830000Y-94615000D03*
%TD*%
M02*
