%TF.GenerationSoftware,KiCad,Pcbnew,8.0.1*%
%TF.CreationDate,2024-06-06T13:27:34-04:00*%
%TF.ProjectId,PillPCB,50696c6c-5043-4422-9e6b-696361645f70,rev?*%
%TF.SameCoordinates,Original*%
%TF.FileFunction,Legend,Bot*%
%TF.FilePolarity,Positive*%
%FSLAX46Y46*%
G04 Gerber Fmt 4.6, Leading zero omitted, Abs format (unit mm)*
G04 Created by KiCad (PCBNEW 8.0.1) date 2024-06-06 13:27:34*
%MOMM*%
%LPD*%
G01*
G04 APERTURE LIST*
%ADD10C,0.100000*%
%ADD11C,0.000000*%
%ADD12C,0.120000*%
%ADD13C,0.150000*%
G04 APERTURE END LIST*
D10*
X164528333Y-94572419D02*
X164861666Y-94096228D01*
X165099761Y-94572419D02*
X165099761Y-93572419D01*
X165099761Y-93572419D02*
X164718809Y-93572419D01*
X164718809Y-93572419D02*
X164623571Y-93620038D01*
X164623571Y-93620038D02*
X164575952Y-93667657D01*
X164575952Y-93667657D02*
X164528333Y-93762895D01*
X164528333Y-93762895D02*
X164528333Y-93905752D01*
X164528333Y-93905752D02*
X164575952Y-94000990D01*
X164575952Y-94000990D02*
X164623571Y-94048609D01*
X164623571Y-94048609D02*
X164718809Y-94096228D01*
X164718809Y-94096228D02*
X165099761Y-94096228D01*
X164099761Y-94048609D02*
X163766428Y-94048609D01*
X163623571Y-94572419D02*
X164099761Y-94572419D01*
X164099761Y-94572419D02*
X164099761Y-93572419D01*
X164099761Y-93572419D02*
X163623571Y-93572419D01*
X162861666Y-94048609D02*
X163194999Y-94048609D01*
X163194999Y-94572419D02*
X163194999Y-93572419D01*
X163194999Y-93572419D02*
X162718809Y-93572419D01*
X162194999Y-93572419D02*
X162194999Y-93810514D01*
X162433094Y-93715276D02*
X162194999Y-93810514D01*
X162194999Y-93810514D02*
X161956904Y-93715276D01*
X162337856Y-94000990D02*
X162194999Y-93810514D01*
X162194999Y-93810514D02*
X162052142Y-94000990D01*
X161433094Y-93572419D02*
X161433094Y-93810514D01*
X161671189Y-93715276D02*
X161433094Y-93810514D01*
X161433094Y-93810514D02*
X161194999Y-93715276D01*
X161575951Y-94000990D02*
X161433094Y-93810514D01*
X161433094Y-93810514D02*
X161290237Y-94000990D01*
X73087419Y-92453884D02*
X72087419Y-92453884D01*
X72087419Y-92453884D02*
X72087419Y-92691979D01*
X72087419Y-92691979D02*
X72135038Y-92834836D01*
X72135038Y-92834836D02*
X72230276Y-92930074D01*
X72230276Y-92930074D02*
X72325514Y-92977693D01*
X72325514Y-92977693D02*
X72515990Y-93025312D01*
X72515990Y-93025312D02*
X72658847Y-93025312D01*
X72658847Y-93025312D02*
X72849323Y-92977693D01*
X72849323Y-92977693D02*
X72944561Y-92930074D01*
X72944561Y-92930074D02*
X73039800Y-92834836D01*
X73039800Y-92834836D02*
X73087419Y-92691979D01*
X73087419Y-92691979D02*
X73087419Y-92453884D01*
X73087419Y-93977693D02*
X73087419Y-93406265D01*
X73087419Y-93691979D02*
X72087419Y-93691979D01*
X72087419Y-93691979D02*
X72230276Y-93596741D01*
X72230276Y-93596741D02*
X72325514Y-93501503D01*
X72325514Y-93501503D02*
X72373133Y-93406265D01*
X73087419Y-95168170D02*
X72087419Y-95168170D01*
X72087419Y-95168170D02*
X72801704Y-95501503D01*
X72801704Y-95501503D02*
X72087419Y-95834836D01*
X72087419Y-95834836D02*
X73087419Y-95834836D01*
X73087419Y-96311027D02*
X72420752Y-96311027D01*
X72087419Y-96311027D02*
X72135038Y-96263408D01*
X72135038Y-96263408D02*
X72182657Y-96311027D01*
X72182657Y-96311027D02*
X72135038Y-96358646D01*
X72135038Y-96358646D02*
X72087419Y-96311027D01*
X72087419Y-96311027D02*
X72182657Y-96311027D01*
X72420752Y-96787217D02*
X73087419Y-96787217D01*
X72515990Y-96787217D02*
X72468371Y-96834836D01*
X72468371Y-96834836D02*
X72420752Y-96930074D01*
X72420752Y-96930074D02*
X72420752Y-97072931D01*
X72420752Y-97072931D02*
X72468371Y-97168169D01*
X72468371Y-97168169D02*
X72563609Y-97215788D01*
X72563609Y-97215788D02*
X73087419Y-97215788D01*
X73087419Y-97691979D02*
X72420752Y-97691979D01*
X72087419Y-97691979D02*
X72135038Y-97644360D01*
X72135038Y-97644360D02*
X72182657Y-97691979D01*
X72182657Y-97691979D02*
X72135038Y-97739598D01*
X72135038Y-97739598D02*
X72087419Y-97691979D01*
X72087419Y-97691979D02*
X72182657Y-97691979D01*
D11*
%TO.C,G\u002A\u002A\u002A*%
G36*
X105749783Y-86485904D02*
G01*
X105782456Y-86562166D01*
X105807190Y-86737343D01*
X105829829Y-87034816D01*
X105856218Y-87477968D01*
X105864753Y-87631926D01*
X105892764Y-88407832D01*
X105882840Y-89077342D01*
X105828752Y-89691480D01*
X105724268Y-90301267D01*
X105563158Y-90957726D01*
X105339192Y-91711881D01*
X105320473Y-91773914D01*
X105321344Y-91810495D01*
X105393892Y-91704091D01*
X105443527Y-91598455D01*
X105535754Y-91352080D01*
X105600884Y-91158095D01*
X106379178Y-91158095D01*
X106379182Y-91164740D01*
X106387158Y-91464202D01*
X106407508Y-91692112D01*
X106435910Y-91799600D01*
X106436887Y-91800528D01*
X106519713Y-91778151D01*
X106637702Y-91649774D01*
X106663166Y-91609675D01*
X106734181Y-91420315D01*
X106738845Y-91387005D01*
X111568898Y-91387005D01*
X111577138Y-91404532D01*
X111681757Y-91498052D01*
X111866173Y-91628264D01*
X111888129Y-91642085D01*
X112078873Y-91762151D01*
X112268349Y-91866696D01*
X112383088Y-91908882D01*
X112487819Y-91878410D01*
X112602142Y-91809965D01*
X115519397Y-91809965D01*
X115886133Y-91908717D01*
X116037263Y-91944293D01*
X116213390Y-91958057D01*
X116381864Y-91919622D01*
X116566885Y-91814266D01*
X116792655Y-91627272D01*
X117083374Y-91343919D01*
X117186344Y-91237002D01*
X118138345Y-91237002D01*
X118228082Y-91324900D01*
X118471039Y-91439463D01*
X118984123Y-91675629D01*
X119634398Y-92095564D01*
X120201546Y-92602533D01*
X120643029Y-93162785D01*
X120807092Y-93421905D01*
X120494182Y-93335506D01*
X120355661Y-93302473D01*
X119981969Y-93286328D01*
X119701631Y-93407169D01*
X119506164Y-93667851D01*
X119484041Y-93711647D01*
X119337981Y-93950368D01*
X119128249Y-94249484D01*
X118892408Y-94554715D01*
X118861306Y-94592981D01*
X118655567Y-94857092D01*
X118554482Y-95027031D01*
X118569078Y-95110421D01*
X118710381Y-95114882D01*
X118989416Y-95048038D01*
X119417210Y-94917511D01*
X119548905Y-94873859D01*
X120131749Y-94632459D01*
X120145143Y-94626912D01*
X120686132Y-94326046D01*
X121114914Y-94001977D01*
X121115572Y-94001371D01*
X121249219Y-93863613D01*
X121303880Y-93777957D01*
X121280601Y-93690026D01*
X121171641Y-93471498D01*
X120997497Y-93188451D01*
X120784709Y-92880603D01*
X120559813Y-92587672D01*
X120349350Y-92349376D01*
X119921300Y-91954780D01*
X119324975Y-91543335D01*
X118696497Y-91269300D01*
X118633980Y-91249891D01*
X118356741Y-91187839D01*
X118186381Y-91187429D01*
X118138345Y-91237002D01*
X117186344Y-91237002D01*
X117463244Y-90949488D01*
X117543684Y-90864514D01*
X117823696Y-90562400D01*
X117849690Y-90533232D01*
X118050319Y-90308105D01*
X118186381Y-90145003D01*
X118202057Y-90126212D01*
X118257414Y-90041303D01*
X118254160Y-90029478D01*
X118148288Y-89956132D01*
X117920880Y-89867319D01*
X117609845Y-89773572D01*
X117253090Y-89685423D01*
X116888526Y-89613405D01*
X116554061Y-89568050D01*
X116226784Y-89546972D01*
X116032492Y-89560266D01*
X115971414Y-89610724D01*
X115979001Y-89646637D01*
X116077247Y-89707615D01*
X116160278Y-89722953D01*
X116383074Y-89806222D01*
X116665445Y-89938488D01*
X116955464Y-90093054D01*
X117201204Y-90243226D01*
X117350737Y-90362308D01*
X117391679Y-90409426D01*
X117451583Y-90513644D01*
X117418799Y-90620783D01*
X117283662Y-90792876D01*
X117019041Y-91050950D01*
X116576856Y-91343652D01*
X115987372Y-91619766D01*
X115519397Y-91809965D01*
X112602142Y-91809965D01*
X112720871Y-91738882D01*
X112965879Y-91553758D01*
X114066414Y-91553758D01*
X114442511Y-91604930D01*
X114464875Y-91607853D01*
X114677123Y-91618290D01*
X114895438Y-91585662D01*
X115168047Y-91498615D01*
X115543178Y-91345794D01*
X115671696Y-91289821D01*
X116036510Y-91122017D01*
X116360339Y-90961339D01*
X116585247Y-90836122D01*
X116674336Y-90778587D01*
X116837899Y-90661808D01*
X116902747Y-90597207D01*
X116849651Y-90541898D01*
X116678441Y-90443092D01*
X116434135Y-90328371D01*
X116163541Y-90219458D01*
X115913468Y-90138077D01*
X115560141Y-90042936D01*
X114813277Y-90798347D01*
X114066414Y-91553758D01*
X112965879Y-91553758D01*
X113037380Y-91499733D01*
X113419278Y-91175767D01*
X113763417Y-90859880D01*
X113848496Y-90781786D01*
X114306965Y-90332596D01*
X114548180Y-90088132D01*
X114845002Y-89784883D01*
X115081375Y-89540487D01*
X115237625Y-89375328D01*
X115294080Y-89309789D01*
X115292888Y-89305350D01*
X115215540Y-89284215D01*
X115204168Y-89283745D01*
X115059806Y-89268651D01*
X114804081Y-89236587D01*
X114483894Y-89193377D01*
X114436819Y-89187027D01*
X114097788Y-89152235D01*
X113809595Y-89139924D01*
X113630322Y-89152852D01*
X113564272Y-89184769D01*
X113408674Y-89310769D01*
X113233129Y-89490303D01*
X113074034Y-89681609D01*
X112967790Y-89842925D01*
X112950797Y-89932488D01*
X112986832Y-89933745D01*
X113144785Y-89897722D01*
X113379311Y-89824779D01*
X113522409Y-89779313D01*
X113722568Y-89729661D01*
X113817511Y-89726758D01*
X113814205Y-89739811D01*
X113716661Y-89823149D01*
X113515308Y-89960283D01*
X113241423Y-90129355D01*
X113047655Y-90248724D01*
X112719492Y-90465791D01*
X112384400Y-90701700D01*
X112072088Y-90934115D01*
X111812262Y-91140696D01*
X111634629Y-91299106D01*
X111568898Y-91387005D01*
X106738845Y-91387005D01*
X106773799Y-91137383D01*
X106775333Y-91092943D01*
X110933694Y-91092943D01*
X111053152Y-91169428D01*
X111090564Y-91168633D01*
X111148300Y-91167405D01*
X111364102Y-91063650D01*
X111484080Y-90971501D01*
X111668103Y-90830163D01*
X111908673Y-90629548D01*
X112144941Y-90441496D01*
X112306893Y-90322654D01*
X112390971Y-90250839D01*
X112545246Y-90079816D01*
X112719275Y-89859051D01*
X112887528Y-89624592D01*
X113024474Y-89412489D01*
X113104582Y-89258792D01*
X113102319Y-89199549D01*
X113046063Y-89204108D01*
X112808891Y-89259682D01*
X112502281Y-89360874D01*
X112184519Y-89485453D01*
X111913889Y-89611188D01*
X111748676Y-89715849D01*
X111618007Y-89859557D01*
X111417238Y-90126660D01*
X111212951Y-90434753D01*
X111042476Y-90726830D01*
X110943145Y-90945886D01*
X110933694Y-91092943D01*
X106775333Y-91092943D01*
X106788080Y-90723549D01*
X106788842Y-90654099D01*
X106803334Y-90376511D01*
X106997118Y-90376511D01*
X107052900Y-90797713D01*
X107075288Y-90856889D01*
X107120574Y-90871416D01*
X107192178Y-90789134D01*
X107965443Y-90789134D01*
X107990699Y-90795544D01*
X108049701Y-90714500D01*
X108078614Y-90633546D01*
X108090342Y-90601382D01*
X108793692Y-90601382D01*
X108890518Y-90640762D01*
X109079058Y-90687044D01*
X109122898Y-90695165D01*
X109272932Y-90695081D01*
X109386055Y-90609682D01*
X109515569Y-90404462D01*
X109592507Y-90284726D01*
X109799848Y-90024033D01*
X110070384Y-89729375D01*
X110375108Y-89427752D01*
X110685018Y-89146159D01*
X110971107Y-88911596D01*
X111204373Y-88751060D01*
X111355809Y-88691549D01*
X111350551Y-88707596D01*
X111263301Y-88822507D01*
X111089613Y-89029907D01*
X110847749Y-89308235D01*
X110555967Y-89635931D01*
X110408725Y-89800570D01*
X110131070Y-90117210D01*
X109908188Y-90379759D01*
X109759913Y-90564594D01*
X109706080Y-90648094D01*
X109731240Y-90676306D01*
X109867205Y-90732676D01*
X110058932Y-90783115D01*
X110234968Y-90810376D01*
X110251316Y-90807955D01*
X110323861Y-90797212D01*
X110365206Y-90717745D01*
X110463070Y-90527885D01*
X110595080Y-90270991D01*
X110686608Y-90106444D01*
X110896664Y-89769489D01*
X111153341Y-89389718D01*
X111420279Y-89022158D01*
X111448946Y-88984287D01*
X111700222Y-88643764D01*
X111838774Y-88420886D01*
X111857971Y-88302088D01*
X111751188Y-88273803D01*
X111511795Y-88322466D01*
X111133165Y-88434511D01*
X110650552Y-88616357D01*
X109980312Y-89004921D01*
X109424759Y-89513302D01*
X108992548Y-90134625D01*
X108894152Y-90325553D01*
X108811444Y-90514318D01*
X108793692Y-90601382D01*
X108090342Y-90601382D01*
X108156371Y-90420295D01*
X108255211Y-90152088D01*
X108276765Y-90088911D01*
X108319779Y-89962832D01*
X108360993Y-89797826D01*
X108348745Y-89751531D01*
X108295379Y-89823026D01*
X108206231Y-90007537D01*
X108109148Y-90249231D01*
X108023645Y-90495281D01*
X107969239Y-90692858D01*
X107965443Y-90789134D01*
X107192178Y-90789134D01*
X107194209Y-90786800D01*
X107310424Y-90584851D01*
X107483449Y-90247379D01*
X107601420Y-90020962D01*
X107853128Y-89569525D01*
X108134799Y-89093127D01*
X108348745Y-88752582D01*
X108404703Y-88663512D01*
X108782902Y-88085413D01*
X108949249Y-87831142D01*
X108599337Y-88027804D01*
X108092189Y-88365902D01*
X107641333Y-88817706D01*
X107289111Y-89376763D01*
X107255597Y-89444630D01*
X107062458Y-89938873D01*
X106997118Y-90376511D01*
X106803334Y-90376511D01*
X106811442Y-90221218D01*
X106871432Y-89884333D01*
X106979337Y-89580549D01*
X107012874Y-89502479D01*
X107077511Y-89327063D01*
X107075025Y-89278639D01*
X107017525Y-89341194D01*
X106917118Y-89498715D01*
X106785913Y-89735189D01*
X106636016Y-90034602D01*
X106605757Y-90098922D01*
X106465409Y-90449006D01*
X106397118Y-90770414D01*
X106379178Y-91158095D01*
X105600884Y-91158095D01*
X105648415Y-91016527D01*
X105767257Y-90632697D01*
X105855775Y-90355701D01*
X105943633Y-90117452D01*
X106011759Y-89932712D01*
X106064547Y-89810010D01*
X106172714Y-89558583D01*
X106315126Y-89290897D01*
X106350485Y-89237219D01*
X106732395Y-88763321D01*
X107075025Y-88434223D01*
X107220493Y-88294500D01*
X107763630Y-87875363D01*
X108310657Y-87550519D01*
X108349189Y-87531692D01*
X108657957Y-87391153D01*
X108949249Y-87269442D01*
X109017397Y-87240967D01*
X109393111Y-87093833D01*
X109750704Y-86962453D01*
X110055781Y-86859526D01*
X110273944Y-86797753D01*
X110370797Y-86789835D01*
X110371535Y-86805457D01*
X110312813Y-86919211D01*
X110188040Y-87098488D01*
X110142264Y-87161466D01*
X109999268Y-87372245D01*
X109818842Y-87649916D01*
X109622650Y-87959695D01*
X109432350Y-88266797D01*
X109269603Y-88536439D01*
X109156071Y-88733836D01*
X109113414Y-88824204D01*
X109143975Y-88815174D01*
X109274714Y-88730693D01*
X109473392Y-88584985D01*
X109714633Y-88419058D01*
X110233037Y-88137044D01*
X110793591Y-87905406D01*
X111316438Y-87759894D01*
X111375535Y-87749731D01*
X111703887Y-87711990D01*
X111751188Y-87708904D01*
X112109500Y-87685527D01*
X112518183Y-87675549D01*
X113275174Y-87675549D01*
X112887627Y-88129177D01*
X112874479Y-88144594D01*
X112685356Y-88373110D01*
X112551118Y-88547562D01*
X112500080Y-88631266D01*
X112501925Y-88636317D01*
X112591835Y-88639588D01*
X112775247Y-88596576D01*
X113031482Y-88548532D01*
X113102319Y-88543450D01*
X113427547Y-88520118D01*
X113809595Y-88517481D01*
X113888648Y-88516935D01*
X114361042Y-88537827D01*
X114790990Y-88581634D01*
X115124747Y-88647200D01*
X115135732Y-88650300D01*
X115462980Y-88732577D01*
X115560141Y-88753825D01*
X115868716Y-88821307D01*
X116226784Y-88889958D01*
X116267747Y-88897812D01*
X116293322Y-88902300D01*
X116685629Y-88975254D01*
X117070628Y-89053145D01*
X117368414Y-89119854D01*
X117590610Y-89185822D01*
X117896685Y-89295757D01*
X118231268Y-89429146D01*
X118556829Y-89569726D01*
X118835838Y-89701235D01*
X119030765Y-89807409D01*
X119104080Y-89871985D01*
X119089521Y-89910744D01*
X119000360Y-90058726D01*
X118856980Y-90264193D01*
X118609880Y-90600197D01*
X119005147Y-90761364D01*
X119454917Y-90976219D01*
X120139209Y-91414318D01*
X120785689Y-91953357D01*
X121350682Y-92555375D01*
X121790512Y-93182408D01*
X121915998Y-93405647D01*
X122020651Y-93606214D01*
X122062651Y-93707182D01*
X122033436Y-93821828D01*
X121904405Y-94052760D01*
X121693655Y-94353234D01*
X121424043Y-94696575D01*
X121118428Y-95056104D01*
X120799666Y-95405146D01*
X120490616Y-95717022D01*
X120214135Y-95965056D01*
X119993080Y-96122571D01*
X119987320Y-96125789D01*
X119904993Y-96185520D01*
X119900107Y-96257825D01*
X119987096Y-96378084D01*
X120180397Y-96581681D01*
X120537048Y-96946549D01*
X120053397Y-97257279D01*
X120036410Y-97268154D01*
X119589081Y-97533382D01*
X119074898Y-97805310D01*
X118524410Y-98070973D01*
X117968169Y-98317407D01*
X117436725Y-98531647D01*
X116960629Y-98700727D01*
X116570430Y-98811682D01*
X116296680Y-98851549D01*
X116258261Y-98851847D01*
X116181293Y-98868831D01*
X116198842Y-98941506D01*
X116313551Y-99110423D01*
X116345007Y-99156466D01*
X116436255Y-99325757D01*
X116447501Y-99419684D01*
X116418661Y-99435592D01*
X116256050Y-99495107D01*
X115988276Y-99579139D01*
X115655098Y-99674884D01*
X115446821Y-99728680D01*
X114965241Y-99823296D01*
X114424554Y-99886295D01*
X113770080Y-99924932D01*
X113131976Y-99939569D01*
X112603018Y-99919977D01*
X112137401Y-99855411D01*
X111682964Y-99735374D01*
X111187547Y-99549373D01*
X110598988Y-99286913D01*
X110584450Y-99282886D01*
X110599690Y-99340506D01*
X110705097Y-99492642D01*
X110881568Y-99715779D01*
X111109998Y-99986402D01*
X111371282Y-100280996D01*
X111646318Y-100576046D01*
X112203747Y-101157543D01*
X111306392Y-101103369D01*
X111023672Y-101081610D01*
X110177230Y-100959065D01*
X109404299Y-100760825D01*
X108748171Y-100497150D01*
X108340477Y-100292377D01*
X108399054Y-100482129D01*
X108451757Y-100641568D01*
X108544804Y-100910232D01*
X108654570Y-101219112D01*
X108658868Y-101231067D01*
X108753603Y-101503368D01*
X108816555Y-101700865D01*
X108834295Y-101781532D01*
X108827799Y-101780657D01*
X108715893Y-101734462D01*
X108487619Y-101629960D01*
X108171327Y-101480324D01*
X107795369Y-101298732D01*
X107396042Y-101092694D01*
X106772324Y-100717096D01*
X106254238Y-100332249D01*
X105861638Y-99953643D01*
X105614376Y-99596772D01*
X105569940Y-99508914D01*
X105524907Y-99442899D01*
X105497190Y-99464314D01*
X105482463Y-99593635D01*
X105476401Y-99851338D01*
X105474675Y-100257898D01*
X105471695Y-100553464D01*
X105459998Y-100975631D01*
X105441657Y-101339958D01*
X105419001Y-101590703D01*
X105365254Y-101982826D01*
X104813559Y-101285020D01*
X104696178Y-101131389D01*
X104413337Y-100726168D01*
X104152668Y-100309992D01*
X103958656Y-99952215D01*
X103849363Y-99715981D01*
X103743975Y-99444951D01*
X103680246Y-99185548D01*
X103644626Y-98877455D01*
X103623567Y-98460351D01*
X103620127Y-98357133D01*
X103620137Y-98334316D01*
X104143487Y-98334316D01*
X104166464Y-98715368D01*
X104233383Y-99085836D01*
X104294400Y-99293993D01*
X104405221Y-99606426D01*
X104532862Y-99919542D01*
X104659570Y-100193064D01*
X104767592Y-100386715D01*
X104839173Y-100460215D01*
X104851172Y-100422531D01*
X104862225Y-100250657D01*
X104866025Y-99974534D01*
X104863018Y-99632662D01*
X104853649Y-99263540D01*
X104838364Y-98905669D01*
X104817610Y-98597549D01*
X104809146Y-98511283D01*
X104763658Y-98255845D01*
X104705439Y-98156627D01*
X104641234Y-98217944D01*
X104577790Y-98444112D01*
X104506172Y-98809215D01*
X104480502Y-98385882D01*
X104460288Y-98119002D01*
X104414927Y-97795609D01*
X104355238Y-97636630D01*
X104280477Y-97639285D01*
X104223051Y-97734267D01*
X104162875Y-97991132D01*
X104143487Y-98334316D01*
X103620137Y-98334316D01*
X103620345Y-97857288D01*
X103657246Y-97459552D01*
X103676594Y-97372789D01*
X104474022Y-97372789D01*
X104581054Y-97544200D01*
X104605092Y-97575521D01*
X104672783Y-97641105D01*
X104701081Y-97583913D01*
X104708054Y-97380682D01*
X104701305Y-97178766D01*
X104665298Y-97112966D01*
X104583747Y-97158215D01*
X104486859Y-97256093D01*
X104474022Y-97372789D01*
X103676594Y-97372789D01*
X103735351Y-97109301D01*
X103766644Y-97005421D01*
X103821390Y-96862364D01*
X104394899Y-96862364D01*
X104446871Y-96930136D01*
X104604914Y-96896646D01*
X104665298Y-96858182D01*
X104720058Y-96823300D01*
X104796570Y-96631777D01*
X104806602Y-96492878D01*
X105314273Y-96492878D01*
X105319164Y-97136648D01*
X105335220Y-97489002D01*
X105366246Y-97874508D01*
X105405599Y-98143755D01*
X105450211Y-98270213D01*
X105485512Y-98297812D01*
X105532906Y-98263014D01*
X105542139Y-98131882D01*
X105731005Y-98131882D01*
X105735505Y-98225049D01*
X105813571Y-98577945D01*
X105974519Y-98978549D01*
X106221764Y-99486549D01*
X106224261Y-99105549D01*
X106222145Y-99090343D01*
X106488747Y-99090343D01*
X106488747Y-99419429D01*
X106511093Y-99640501D01*
X106605333Y-99832520D01*
X106806247Y-100048882D01*
X106898331Y-100132236D01*
X107180873Y-100359853D01*
X107445700Y-100541389D01*
X107538593Y-100594780D01*
X107714585Y-100682224D01*
X107798567Y-100702617D01*
X107775717Y-100646750D01*
X107666152Y-100496529D01*
X107493514Y-100290793D01*
X107354673Y-100131431D01*
X107076857Y-99805373D01*
X106823147Y-99500112D01*
X106488747Y-99090343D01*
X106222145Y-99090343D01*
X106170378Y-98718280D01*
X105980747Y-98258882D01*
X105734736Y-97793215D01*
X105731005Y-98131882D01*
X105542139Y-98131882D01*
X105545784Y-98080114D01*
X105547588Y-97888547D01*
X105553533Y-97569696D01*
X105562686Y-97170240D01*
X105574108Y-96734882D01*
X105574645Y-96716025D01*
X105591849Y-96299253D01*
X105616307Y-95936843D01*
X105625929Y-95845882D01*
X106064547Y-95845882D01*
X106094080Y-96493976D01*
X106104043Y-96665299D01*
X106151969Y-97034643D01*
X106249715Y-97372083D01*
X106419401Y-97763976D01*
X106488747Y-97887125D01*
X106745636Y-98343323D01*
X107242692Y-98960953D01*
X107825504Y-99445343D01*
X108481298Y-99783978D01*
X108622235Y-99832534D01*
X108690039Y-99844286D01*
X108634728Y-99787249D01*
X108483243Y-99649826D01*
X108269318Y-99462935D01*
X108178679Y-99382018D01*
X107883141Y-99046255D01*
X107698259Y-98677249D01*
X107598395Y-98467578D01*
X107945162Y-98467578D01*
X107948408Y-98512642D01*
X108014121Y-98669677D01*
X108134256Y-98892151D01*
X108147116Y-98913595D01*
X108396199Y-99237018D01*
X108743598Y-99581201D01*
X109140699Y-99906104D01*
X109538890Y-100171688D01*
X109889560Y-100337914D01*
X110039238Y-100384247D01*
X110255726Y-100437323D01*
X110371617Y-100445978D01*
X110371965Y-100445837D01*
X110345614Y-100386145D01*
X110209436Y-100257959D01*
X109992643Y-100088812D01*
X109801599Y-99944099D01*
X109482005Y-99690838D01*
X109119710Y-99394967D01*
X108762186Y-99094832D01*
X108749492Y-99084012D01*
X108448164Y-98832754D01*
X108310822Y-98723789D01*
X108752163Y-98723789D01*
X108837952Y-98842882D01*
X109054088Y-99039063D01*
X109404628Y-99317123D01*
X109893624Y-99681849D01*
X109946622Y-99720358D01*
X110016020Y-99761877D01*
X110018920Y-99727503D01*
X109948942Y-99593840D01*
X109799704Y-99337493D01*
X109678101Y-99130151D01*
X109567724Y-98962697D01*
X109563279Y-98958604D01*
X111401026Y-98958604D01*
X111432872Y-99009580D01*
X111584097Y-99079910D01*
X111833361Y-99159385D01*
X112159324Y-99237797D01*
X112517370Y-99298347D01*
X112889255Y-99336928D01*
X113179437Y-99342337D01*
X113577694Y-99317215D01*
X113158891Y-98944194D01*
X112740087Y-98571173D01*
X112217917Y-98754551D01*
X111955985Y-98839743D01*
X111694432Y-98910302D01*
X111530647Y-98937072D01*
X111509899Y-98937189D01*
X111401026Y-98958604D01*
X109563279Y-98958604D01*
X109464404Y-98867550D01*
X109321426Y-98804941D01*
X109092072Y-98735103D01*
X108955411Y-98697716D01*
X108792667Y-98676997D01*
X108752163Y-98723789D01*
X108310822Y-98723789D01*
X108196319Y-98632944D01*
X108019978Y-98504559D01*
X107945162Y-98467578D01*
X107598395Y-98467578D01*
X107547090Y-98359861D01*
X107232937Y-98000750D01*
X106892580Y-97670506D01*
X106510466Y-97105365D01*
X106236506Y-96426480D01*
X106064547Y-95845882D01*
X105625929Y-95845882D01*
X105644838Y-95667113D01*
X105674261Y-95528382D01*
X105698601Y-95429093D01*
X106744337Y-95429093D01*
X106770319Y-95678251D01*
X106825499Y-95965536D01*
X106902851Y-96246861D01*
X106995348Y-96478139D01*
X107086643Y-96638337D01*
X107444444Y-97092380D01*
X107909406Y-97505724D01*
X107945162Y-97528116D01*
X108436084Y-97835550D01*
X108442932Y-97839002D01*
X108712514Y-97966460D01*
X108792667Y-97998553D01*
X108922439Y-98050512D01*
X109027777Y-98073116D01*
X109036551Y-98048763D01*
X108978497Y-97929553D01*
X108842055Y-97750882D01*
X108674760Y-97542849D01*
X108452803Y-97245083D01*
X108236156Y-96936370D01*
X108149132Y-96813779D01*
X108915119Y-96813779D01*
X108983317Y-96945232D01*
X109139991Y-97172084D01*
X109389201Y-97516175D01*
X109491432Y-97655935D01*
X109757883Y-97994957D01*
X109980464Y-98218618D01*
X110191909Y-98349316D01*
X110424953Y-98409445D01*
X110712332Y-98421401D01*
X110881792Y-98414156D01*
X111249700Y-98375239D01*
X111509653Y-98325642D01*
X112890924Y-98325642D01*
X112972466Y-98401265D01*
X113009278Y-98423773D01*
X113214630Y-98501809D01*
X113475238Y-98559864D01*
X113553916Y-98570512D01*
X113808660Y-98590802D01*
X113984822Y-98584504D01*
X114007551Y-98577663D01*
X114001293Y-98532769D01*
X113880992Y-98467742D01*
X113687023Y-98396111D01*
X113459762Y-98331405D01*
X113239585Y-98287156D01*
X113066867Y-98276893D01*
X112945680Y-98290579D01*
X112890924Y-98325642D01*
X111509653Y-98325642D01*
X111562454Y-98315568D01*
X111673000Y-98282918D01*
X111873111Y-98201942D01*
X111965089Y-98130478D01*
X111920936Y-98042844D01*
X111777159Y-97863367D01*
X111556275Y-97618989D01*
X111281004Y-97336094D01*
X111216518Y-97272072D01*
X110924272Y-96988461D01*
X110717239Y-96806203D01*
X110569073Y-96706969D01*
X110453424Y-96672432D01*
X110343946Y-96684264D01*
X110283115Y-96700422D01*
X110210363Y-96736597D01*
X110229787Y-96794403D01*
X110357844Y-96897612D01*
X110610990Y-97069994D01*
X110730618Y-97152312D01*
X111017989Y-97368851D01*
X111260554Y-97576376D01*
X111435148Y-97752421D01*
X111518605Y-97874523D01*
X111487758Y-97920215D01*
X111478443Y-97919062D01*
X111347023Y-97865297D01*
X111116004Y-97746895D01*
X110823208Y-97585579D01*
X110506461Y-97403071D01*
X110203585Y-97221094D01*
X109952406Y-97061370D01*
X109790747Y-96945622D01*
X109732622Y-96910790D01*
X109521945Y-96836994D01*
X109252539Y-96781029D01*
X109200780Y-96773412D01*
X109027911Y-96749709D01*
X108931337Y-96755885D01*
X108915119Y-96813779D01*
X108149132Y-96813779D01*
X108044213Y-96665979D01*
X107943382Y-96533341D01*
X111397190Y-96533341D01*
X112107623Y-97226778D01*
X112380661Y-97483075D01*
X112644433Y-97709962D01*
X112740087Y-97781805D01*
X112849072Y-97863660D01*
X112964963Y-97920215D01*
X113066867Y-97944552D01*
X113075215Y-97946546D01*
X113312289Y-98031725D01*
X113632692Y-98161819D01*
X113999268Y-98322382D01*
X114886666Y-98724549D01*
X114561206Y-98823875D01*
X114538374Y-98830636D01*
X114223585Y-98898290D01*
X113918247Y-98929708D01*
X113747010Y-98943245D01*
X113618848Y-98996622D01*
X113655585Y-99082262D01*
X113859061Y-99192002D01*
X113948455Y-99221744D01*
X114280715Y-99262730D01*
X114754644Y-99245131D01*
X114866510Y-99235558D01*
X115230202Y-99196838D01*
X115447558Y-99143718D01*
X115522910Y-99056163D01*
X115460588Y-98914135D01*
X115264924Y-98697599D01*
X114940249Y-98386518D01*
X114820544Y-98274991D01*
X115784323Y-98274991D01*
X115880608Y-98302714D01*
X116138591Y-98278345D01*
X116550611Y-98187724D01*
X116625991Y-98168133D01*
X116946985Y-98074973D01*
X117266276Y-97969628D01*
X117551821Y-97864447D01*
X117771576Y-97771775D01*
X117893498Y-97703960D01*
X117885542Y-97673349D01*
X117885257Y-97673324D01*
X117770015Y-97692228D01*
X117542091Y-97748096D01*
X117250542Y-97828909D01*
X116971992Y-97905791D01*
X116556676Y-98010216D01*
X116195195Y-98090790D01*
X115989039Y-98137935D01*
X115802943Y-98208433D01*
X115784323Y-98274991D01*
X114820544Y-98274991D01*
X114811718Y-98266768D01*
X114448640Y-97938726D01*
X114054878Y-97594808D01*
X113652866Y-97253390D01*
X113265032Y-96932848D01*
X112913809Y-96651557D01*
X112869475Y-96617620D01*
X113743827Y-96617620D01*
X114365206Y-97100433D01*
X114571036Y-97258767D01*
X114794465Y-97413123D01*
X114993599Y-97507191D01*
X115206581Y-97546788D01*
X115471559Y-97537727D01*
X115826676Y-97485823D01*
X116310080Y-97396891D01*
X116396595Y-97380395D01*
X116713928Y-97309572D01*
X116868763Y-97239414D01*
X116863547Y-97151467D01*
X116700723Y-97027279D01*
X116382735Y-96848395D01*
X116062730Y-96678156D01*
X115661041Y-96474792D01*
X115387608Y-96353882D01*
X116238124Y-96353882D01*
X116765075Y-96702956D01*
X117292026Y-97052030D01*
X117660554Y-96864021D01*
X117885257Y-96749386D01*
X118029083Y-96676011D01*
X117620650Y-96395002D01*
X117467663Y-96290389D01*
X117276923Y-96177799D01*
X117117769Y-96138980D01*
X116925131Y-96163870D01*
X116633935Y-96242404D01*
X116238124Y-96353882D01*
X115387608Y-96353882D01*
X115366007Y-96344330D01*
X115153951Y-96278177D01*
X115001196Y-96267739D01*
X114884064Y-96304421D01*
X114775039Y-96350613D01*
X114523309Y-96431407D01*
X114225919Y-96508131D01*
X113743827Y-96617620D01*
X112869475Y-96617620D01*
X112621627Y-96427894D01*
X112410917Y-96280233D01*
X112304110Y-96226951D01*
X112245263Y-96236275D01*
X112052217Y-96291619D01*
X111800468Y-96380180D01*
X111397190Y-96533341D01*
X107943382Y-96533341D01*
X107799858Y-96344543D01*
X107538312Y-96017426D01*
X107283284Y-95712893D01*
X107058484Y-95459212D01*
X106887620Y-95284649D01*
X106794402Y-95217469D01*
X106754582Y-95262147D01*
X106744337Y-95429093D01*
X105698601Y-95429093D01*
X105700884Y-95419782D01*
X105612069Y-95380215D01*
X105513391Y-95427724D01*
X105412569Y-95631327D01*
X105345802Y-95988742D01*
X105314273Y-96492878D01*
X104806602Y-96492878D01*
X104807404Y-96481770D01*
X104852240Y-96234809D01*
X104866788Y-96169955D01*
X104857101Y-96077828D01*
X104786248Y-96111023D01*
X104672783Y-96254434D01*
X104535256Y-96492951D01*
X104446692Y-96679974D01*
X104394899Y-96862364D01*
X103821390Y-96862364D01*
X104003702Y-96385964D01*
X104291543Y-95868585D01*
X104355238Y-95792698D01*
X104612172Y-95486586D01*
X104857101Y-95262240D01*
X104913171Y-95210882D01*
X104679393Y-95210882D01*
X104674905Y-95210888D01*
X104369684Y-95260265D01*
X104182124Y-95421064D01*
X104086108Y-95715502D01*
X104020580Y-95987969D01*
X103839375Y-96452703D01*
X103589375Y-96918221D01*
X103304159Y-97315802D01*
X103036472Y-97570801D01*
X102543227Y-97880178D01*
X101947815Y-98114380D01*
X101285698Y-98256874D01*
X101241926Y-98262817D01*
X100800090Y-98343187D01*
X100471908Y-98457659D01*
X100206175Y-98630360D01*
X99951688Y-98885416D01*
X99722295Y-99147882D01*
X99718854Y-98716925D01*
X99718835Y-98714078D01*
X99739897Y-98409225D01*
X99797462Y-98025601D01*
X99866407Y-97705055D01*
X101080697Y-97705055D01*
X101111350Y-97713206D01*
X101267207Y-97696388D01*
X101498597Y-97640578D01*
X101580350Y-97616131D01*
X101777387Y-97534077D01*
X101874625Y-97418552D01*
X101893820Y-97340225D01*
X102239725Y-97340225D01*
X102253945Y-97412215D01*
X102295897Y-97395893D01*
X102440391Y-97293086D01*
X102630385Y-97127051D01*
X102726039Y-97028045D01*
X102870431Y-96831265D01*
X102922925Y-96682551D01*
X102909626Y-96537794D01*
X102850434Y-96302221D01*
X102758045Y-96226836D01*
X102638709Y-96308919D01*
X102498675Y-96545746D01*
X102344192Y-96934597D01*
X102277293Y-97153033D01*
X102239725Y-97340225D01*
X101893820Y-97340225D01*
X101923713Y-97218244D01*
X101932198Y-97159992D01*
X101942469Y-96977677D01*
X101918085Y-96904215D01*
X101904901Y-96907166D01*
X101792480Y-96980929D01*
X101619463Y-97126787D01*
X101423813Y-97308435D01*
X101243494Y-97489567D01*
X101116467Y-97633875D01*
X101080697Y-97705055D01*
X99866407Y-97705055D01*
X99879207Y-97645544D01*
X99885596Y-97625849D01*
X100493492Y-97625849D01*
X100530396Y-97612278D01*
X100678361Y-97519404D01*
X100910847Y-97357638D01*
X101197882Y-97147340D01*
X101383000Y-97007768D01*
X101654627Y-96798946D01*
X101857968Y-96637519D01*
X101918085Y-96585553D01*
X101959080Y-96550117D01*
X101967491Y-96535113D01*
X101904976Y-96503524D01*
X101736619Y-96498995D01*
X101509020Y-96516725D01*
X101268779Y-96551912D01*
X101062496Y-96599755D01*
X100936769Y-96655453D01*
X100890753Y-96711821D01*
X100790459Y-96884048D01*
X100677122Y-97112929D01*
X100574206Y-97347100D01*
X100505175Y-97535195D01*
X100493492Y-97625849D01*
X99885596Y-97625849D01*
X100120053Y-96903155D01*
X100475562Y-96209320D01*
X100578009Y-96083069D01*
X101367127Y-96083069D01*
X101398250Y-96123746D01*
X101542821Y-96139552D01*
X101736619Y-96141357D01*
X101828781Y-96142215D01*
X102057266Y-96137637D01*
X102308371Y-96101890D01*
X102463004Y-96035825D01*
X103084180Y-96035825D01*
X103085328Y-96263361D01*
X103090861Y-96307835D01*
X103122735Y-96491186D01*
X103151956Y-96565549D01*
X103168059Y-96551533D01*
X103245062Y-96432038D01*
X103354359Y-96230255D01*
X103396141Y-96144221D01*
X103488549Y-95915265D01*
X103525414Y-95758823D01*
X103513958Y-95688439D01*
X103447419Y-95689027D01*
X103287731Y-95791929D01*
X103173640Y-95883669D01*
X103084180Y-96035825D01*
X102463004Y-96035825D01*
X102527205Y-96008396D01*
X102758045Y-95855297D01*
X102794403Y-95831184D01*
X102901917Y-95754114D01*
X103160951Y-95562823D01*
X103287784Y-95448137D01*
X103287217Y-95394135D01*
X103164052Y-95384897D01*
X102923091Y-95404502D01*
X102832892Y-95415089D01*
X102424098Y-95501588D01*
X102019844Y-95638913D01*
X101674890Y-95805732D01*
X101443995Y-95980711D01*
X101421513Y-96005795D01*
X101367127Y-96083069D01*
X100578009Y-96083069D01*
X100923849Y-95656872D01*
X101466353Y-95244746D01*
X101707542Y-95141617D01*
X107589482Y-95141617D01*
X107646876Y-95222947D01*
X107827629Y-95364661D01*
X108101164Y-95539260D01*
X108436080Y-95725102D01*
X108595758Y-95800246D01*
X108838329Y-95875893D01*
X109132489Y-95914459D01*
X109536747Y-95926658D01*
X109943089Y-95911041D01*
X109978197Y-95905443D01*
X112796414Y-95905443D01*
X113408719Y-95859550D01*
X113950990Y-95776601D01*
X114070853Y-95733991D01*
X117821195Y-95733991D01*
X117909698Y-95820220D01*
X118101953Y-95965773D01*
X118373212Y-96151044D01*
X118671416Y-96354158D01*
X118937364Y-96564229D01*
X119070692Y-96722858D01*
X119082065Y-96843884D01*
X118982148Y-96941144D01*
X118847162Y-97029407D01*
X118649542Y-97175841D01*
X118591716Y-97222825D01*
X118535466Y-97282409D01*
X118600493Y-97282410D01*
X118807747Y-97230000D01*
X118851460Y-97217880D01*
X119138859Y-97122165D01*
X119379247Y-97019700D01*
X119383439Y-97017533D01*
X119544279Y-96915978D01*
X119609462Y-96838541D01*
X119558586Y-96763815D01*
X119389255Y-96619652D01*
X119135125Y-96436823D01*
X118831486Y-96237504D01*
X118513632Y-96043873D01*
X118216854Y-95878107D01*
X117976444Y-95762384D01*
X117827694Y-95718882D01*
X117821195Y-95733991D01*
X114070853Y-95733991D01*
X114432545Y-95605414D01*
X116059419Y-95605414D01*
X116145379Y-95593152D01*
X116160719Y-95588421D01*
X116201802Y-95571390D01*
X119038508Y-95571390D01*
X119089818Y-95653819D01*
X119178092Y-95700308D01*
X119325262Y-95674359D01*
X119567658Y-95559913D01*
X119682213Y-95495273D01*
X119927021Y-95333213D01*
X120094154Y-95190380D01*
X120127953Y-95149420D01*
X120131749Y-95109725D01*
X120018209Y-95153430D01*
X119774568Y-95284287D01*
X119540408Y-95405806D01*
X119298148Y-95509627D01*
X119143801Y-95549549D01*
X119138548Y-95549562D01*
X119038508Y-95571390D01*
X116201802Y-95571390D01*
X116635616Y-95391553D01*
X117117769Y-95117109D01*
X117155403Y-95095687D01*
X117664981Y-94735791D01*
X117827694Y-94593335D01*
X118109247Y-94346834D01*
X118163997Y-94291829D01*
X118470077Y-93958641D01*
X118641393Y-93716594D01*
X118676740Y-93567841D01*
X118574914Y-93514533D01*
X118487962Y-93502970D01*
X118269713Y-93460198D01*
X117991265Y-93397266D01*
X117513450Y-93283015D01*
X117171093Y-93971782D01*
X117140763Y-94031399D01*
X116909782Y-94431826D01*
X116639947Y-94833728D01*
X116383540Y-95158335D01*
X116362940Y-95181401D01*
X116158059Y-95418054D01*
X116060266Y-95553219D01*
X116059419Y-95605414D01*
X114432545Y-95605414D01*
X114575064Y-95554750D01*
X115001196Y-95293306D01*
X115170470Y-95189451D01*
X115761592Y-94668361D01*
X116075790Y-94325043D01*
X116379913Y-93931374D01*
X116587092Y-93586378D01*
X116694389Y-93353679D01*
X116783755Y-93139005D01*
X116818080Y-93026441D01*
X116771372Y-92965540D01*
X116594973Y-92856930D01*
X116321814Y-92728337D01*
X115988756Y-92595383D01*
X115632659Y-92473694D01*
X115290386Y-92378893D01*
X115070813Y-92337489D01*
X114935576Y-92322021D01*
X117115432Y-92322021D01*
X117146164Y-92389994D01*
X117260556Y-92460154D01*
X117425984Y-92601453D01*
X117513450Y-92665599D01*
X117534559Y-92681080D01*
X117818718Y-92808772D01*
X118190027Y-92921992D01*
X118597448Y-93008551D01*
X118989943Y-93056262D01*
X119316476Y-93052935D01*
X119462444Y-93032571D01*
X119704757Y-92984578D01*
X119847077Y-92936627D01*
X119863203Y-92914735D01*
X119814933Y-92811335D01*
X119659035Y-92659402D01*
X119426052Y-92481103D01*
X119146524Y-92298606D01*
X118850990Y-92134077D01*
X118569993Y-92009684D01*
X118396598Y-91946368D01*
X118073511Y-91837875D01*
X117849690Y-91792101D01*
X117683715Y-91810161D01*
X117534166Y-91893168D01*
X117359625Y-92042238D01*
X117212692Y-92184959D01*
X117115432Y-92322021D01*
X114935576Y-92322021D01*
X114662908Y-92290834D01*
X114209361Y-92264304D01*
X113763417Y-92259340D01*
X113378324Y-92277379D01*
X113107328Y-92319863D01*
X113038470Y-92340153D01*
X112971452Y-92381187D01*
X113018366Y-92449994D01*
X113190635Y-92582602D01*
X113349350Y-92686287D01*
X113521129Y-92749133D01*
X113748259Y-92772145D01*
X113944632Y-92769139D01*
X114087326Y-92766954D01*
X114424507Y-92768680D01*
X114866469Y-92805553D01*
X115300290Y-92873765D01*
X115693766Y-92965530D01*
X116014693Y-93073063D01*
X116230866Y-93188579D01*
X116310080Y-93304292D01*
X116274302Y-93400443D01*
X116117182Y-93584610D01*
X115865872Y-93803932D01*
X115554293Y-94035274D01*
X115216366Y-94255502D01*
X114886009Y-94441480D01*
X114597145Y-94570074D01*
X114383693Y-94618148D01*
X114314690Y-94647579D01*
X114154080Y-94774668D01*
X113961557Y-94968081D01*
X113824723Y-95108450D01*
X113523283Y-95378431D01*
X113220944Y-95611695D01*
X112796414Y-95905443D01*
X109978197Y-95905443D01*
X110453424Y-95829668D01*
X110618588Y-95803332D01*
X111331887Y-95585392D01*
X112118874Y-95247785D01*
X112304110Y-95148166D01*
X112460968Y-95063809D01*
X112804805Y-94844936D01*
X113067658Y-94642755D01*
X113423570Y-94321882D01*
X112919622Y-93898549D01*
X112635920Y-93672008D01*
X112272581Y-93411897D01*
X111937443Y-93202290D01*
X111663584Y-93063522D01*
X111484080Y-93015930D01*
X111461995Y-93021882D01*
X111328782Y-93118081D01*
X111135259Y-93307030D01*
X110915188Y-93556639D01*
X110473296Y-94092348D01*
X110762355Y-94146576D01*
X110951512Y-94158684D01*
X111270944Y-94149216D01*
X111660360Y-94120728D01*
X112069304Y-94077795D01*
X112447320Y-94024993D01*
X112743952Y-93966896D01*
X112796469Y-93955282D01*
X112923868Y-93953815D01*
X112928915Y-94009949D01*
X112831596Y-94102835D01*
X112651895Y-94211626D01*
X112409798Y-94315475D01*
X112191992Y-94381048D01*
X111870208Y-94440228D01*
X111465006Y-94474719D01*
X110933747Y-94489550D01*
X110549875Y-94499222D01*
X110220243Y-94519475D01*
X110003713Y-94547457D01*
X109928389Y-94580623D01*
X109940750Y-94599033D01*
X110067686Y-94682859D01*
X110301745Y-94800914D01*
X110605722Y-94933800D01*
X111272414Y-95207052D01*
X110891702Y-95208967D01*
X110857398Y-95208343D01*
X110572192Y-95173165D01*
X110209934Y-95094672D01*
X109840426Y-94987563D01*
X109557378Y-94895171D01*
X109316308Y-94829404D01*
X109141168Y-94811241D01*
X108980239Y-94836443D01*
X108781804Y-94900769D01*
X108696975Y-94928270D01*
X108336716Y-95014370D01*
X107991648Y-95060588D01*
X107858790Y-95071542D01*
X107665497Y-95103543D01*
X107589482Y-95141617D01*
X101707542Y-95141617D01*
X102104516Y-94971877D01*
X102839778Y-94837198D01*
X103164052Y-94838150D01*
X103513958Y-94839177D01*
X103673580Y-94839645D01*
X103789932Y-94848252D01*
X104087218Y-94862965D01*
X104294332Y-94862190D01*
X104372080Y-94845593D01*
X104337876Y-94801618D01*
X104197091Y-94683522D01*
X103984480Y-94529007D01*
X103916400Y-94482516D01*
X103729291Y-94368704D01*
X103565871Y-94316222D01*
X103380706Y-94324936D01*
X103128365Y-94394714D01*
X102763414Y-94525421D01*
X102618116Y-94574826D01*
X101938059Y-94699993D01*
X101246862Y-94659805D01*
X100562575Y-94454840D01*
X100225775Y-94325823D01*
X99864534Y-94212249D01*
X99575517Y-94146189D01*
X99171350Y-94085580D01*
X99282993Y-93984503D01*
X100672242Y-93984503D01*
X100708547Y-94024872D01*
X100892214Y-94093684D01*
X101049345Y-94133222D01*
X101361822Y-94174190D01*
X101696548Y-94186754D01*
X101910232Y-94177069D01*
X102301542Y-94136720D01*
X102636414Y-94077516D01*
X102783956Y-94040918D01*
X102943143Y-93988410D01*
X102971054Y-93941567D01*
X102890414Y-93882985D01*
X102790740Y-93834568D01*
X102488487Y-93722984D01*
X102133061Y-93621740D01*
X101794176Y-93549368D01*
X101541546Y-93524402D01*
X101281747Y-93531256D01*
X101620414Y-93691515D01*
X101959080Y-93851775D01*
X101493414Y-93862434D01*
X101315127Y-93870073D01*
X101022177Y-93896621D01*
X100816080Y-93932791D01*
X100770604Y-93945747D01*
X100672242Y-93984503D01*
X99282993Y-93984503D01*
X99565999Y-93728282D01*
X99858490Y-93488763D01*
X100454354Y-93144416D01*
X101075157Y-92966907D01*
X101541546Y-92959437D01*
X101716037Y-92956642D01*
X102372132Y-93114025D01*
X103038580Y-93439459D01*
X103209614Y-93538172D01*
X103375076Y-93617175D01*
X103437930Y-93622599D01*
X103416402Y-93549907D01*
X103275460Y-93374363D01*
X103038071Y-93189028D01*
X102745054Y-93028876D01*
X102740052Y-93026659D01*
X102501760Y-92902250D01*
X102316427Y-92749181D01*
X102159441Y-92533839D01*
X102006196Y-92222610D01*
X101832080Y-91781882D01*
X101810233Y-91723958D01*
X101788002Y-91668757D01*
X102514775Y-91668757D01*
X102606022Y-91783341D01*
X102626230Y-91808485D01*
X102770786Y-92009946D01*
X102923206Y-92247549D01*
X102970703Y-92323443D01*
X103064264Y-92449003D01*
X103101447Y-92459215D01*
X103059331Y-92324255D01*
X102939290Y-92113049D01*
X102782071Y-91897709D01*
X102628968Y-91741008D01*
X102538741Y-91672532D01*
X102514775Y-91668757D01*
X101788002Y-91668757D01*
X101719713Y-91499196D01*
X102279683Y-91499196D01*
X102289662Y-91557133D01*
X102315798Y-91594745D01*
X102387410Y-91654882D01*
X102399246Y-91654058D01*
X102417892Y-91605047D01*
X102326998Y-91519797D01*
X102279683Y-91499196D01*
X101719713Y-91499196D01*
X101676329Y-91391473D01*
X101548337Y-91105895D01*
X101451303Y-90923672D01*
X101449587Y-90921047D01*
X101362832Y-90759594D01*
X101349173Y-90670234D01*
X101409787Y-90659346D01*
X101592499Y-90705926D01*
X101848830Y-90810224D01*
X102137139Y-90952782D01*
X102279683Y-91035328D01*
X102415785Y-91114144D01*
X102514775Y-91184120D01*
X102643124Y-91274850D01*
X103030990Y-91677434D01*
X103273134Y-92125782D01*
X103356080Y-92598444D01*
X103392765Y-92917320D01*
X103571460Y-93397817D01*
X103878888Y-93860646D01*
X104292911Y-94274792D01*
X104791391Y-94609240D01*
X104795346Y-94611345D01*
X105068281Y-94743765D01*
X105289578Y-94828117D01*
X105411660Y-94846225D01*
X105417825Y-94843558D01*
X105412700Y-94788723D01*
X105279910Y-94714181D01*
X105060617Y-94589700D01*
X104760144Y-94348978D01*
X104452406Y-94046825D01*
X104181751Y-93727325D01*
X103992529Y-93434559D01*
X103771692Y-92851118D01*
X103633717Y-92109896D01*
X103622724Y-91886966D01*
X104139645Y-91886966D01*
X104164496Y-92120549D01*
X104171519Y-92166801D01*
X104256555Y-92555845D01*
X104381296Y-92958942D01*
X104524713Y-93315506D01*
X104665779Y-93564946D01*
X104723722Y-93633690D01*
X104767141Y-93637462D01*
X104784897Y-93522501D01*
X104785261Y-93480893D01*
X105388080Y-93480893D01*
X105395061Y-93656870D01*
X105454220Y-94001296D01*
X105561633Y-94264046D01*
X105612069Y-94318359D01*
X105702664Y-94415919D01*
X105734736Y-94418283D01*
X105862674Y-94427715D01*
X105880005Y-94375009D01*
X105898740Y-94215035D01*
X106942083Y-94215035D01*
X106979814Y-94293907D01*
X107007416Y-94317070D01*
X107217796Y-94391058D01*
X107529645Y-94413736D01*
X107894674Y-94387870D01*
X108264596Y-94316228D01*
X108591122Y-94201576D01*
X108812512Y-94087931D01*
X108987710Y-93967039D01*
X109028256Y-93885878D01*
X108922914Y-93856148D01*
X108797822Y-93822089D01*
X108570006Y-93732324D01*
X108289231Y-93606367D01*
X107761383Y-93356652D01*
X107315565Y-93768959D01*
X107130870Y-93945069D01*
X106986375Y-94108231D01*
X106942083Y-94215035D01*
X105898740Y-94215035D01*
X105902477Y-94183125D01*
X105921768Y-93885273D01*
X105930977Y-93629532D01*
X106670346Y-93629532D01*
X106680282Y-93808340D01*
X106746915Y-93834606D01*
X106794402Y-93786105D01*
X106871725Y-93707132D01*
X107056194Y-93424721D01*
X107213953Y-93143033D01*
X107525342Y-93143033D01*
X107525483Y-93143165D01*
X107536814Y-93138988D01*
X108266747Y-93138988D01*
X108312766Y-93195297D01*
X108470310Y-93304895D01*
X108691821Y-93433131D01*
X108926758Y-93552882D01*
X109124577Y-93637026D01*
X109234739Y-93658442D01*
X109264657Y-93638870D01*
X109392261Y-93504601D01*
X109551228Y-93302523D01*
X110248678Y-93302523D01*
X110277991Y-93318523D01*
X110280513Y-93316893D01*
X110381946Y-93212387D01*
X110541042Y-93010000D01*
X110724502Y-92751982D01*
X110833474Y-92590161D01*
X110912055Y-92467379D01*
X111799803Y-92467379D01*
X111827241Y-92541328D01*
X111963744Y-92669016D01*
X112202615Y-92831975D01*
X112225626Y-92846156D01*
X112521861Y-93055341D01*
X112858046Y-93328701D01*
X113165799Y-93610935D01*
X113271550Y-93713177D01*
X113505160Y-93916576D01*
X113662149Y-94020519D01*
X113729889Y-94021904D01*
X113695756Y-93917630D01*
X113547123Y-93704597D01*
X113387771Y-93530376D01*
X113095360Y-93264746D01*
X112988554Y-93178882D01*
X113944632Y-93178882D01*
X114292879Y-93644549D01*
X114297797Y-93651118D01*
X114478728Y-93882642D01*
X114621712Y-94047439D01*
X114696181Y-94110215D01*
X114775348Y-94078003D01*
X114961518Y-93978462D01*
X115207373Y-93835049D01*
X115421760Y-93696846D01*
X115610128Y-93555035D01*
X115694392Y-93463424D01*
X115671238Y-93422992D01*
X115521586Y-93356691D01*
X115269328Y-93291038D01*
X114954265Y-93234124D01*
X114616196Y-93194041D01*
X114294921Y-93178882D01*
X113944632Y-93178882D01*
X112988554Y-93178882D01*
X112749348Y-92986578D01*
X112401285Y-92736847D01*
X112102718Y-92556523D01*
X112098915Y-92554571D01*
X111888129Y-92465638D01*
X111799803Y-92467379D01*
X110912055Y-92467379D01*
X111007570Y-92318137D01*
X111099833Y-92142071D01*
X111123188Y-92034240D01*
X111090564Y-91966921D01*
X111025027Y-92002687D01*
X110908750Y-92156360D01*
X110767558Y-92394677D01*
X110636647Y-92631801D01*
X110468999Y-92921801D01*
X110338207Y-93133274D01*
X110307336Y-93181649D01*
X110248678Y-93302523D01*
X109551228Y-93302523D01*
X109570913Y-93277500D01*
X109771760Y-92993304D01*
X109989899Y-92667050D01*
X110195719Y-92345971D01*
X110307216Y-92139017D01*
X110325409Y-92031768D01*
X110251316Y-92009804D01*
X110085957Y-92058705D01*
X109830351Y-92164052D01*
X109820695Y-92168252D01*
X109623698Y-92267499D01*
X109358570Y-92417175D01*
X109061191Y-92594908D01*
X108767441Y-92778327D01*
X108513197Y-92945061D01*
X108334339Y-93072738D01*
X108266747Y-93138988D01*
X107536814Y-93138988D01*
X107607296Y-93113007D01*
X107761383Y-93025740D01*
X107799717Y-93004030D01*
X108074162Y-92833348D01*
X108402050Y-92618075D01*
X108703222Y-92421313D01*
X109086948Y-92184338D01*
X109430600Y-91986109D01*
X109684914Y-91855894D01*
X109876528Y-91767116D01*
X110058940Y-91674250D01*
X110129414Y-91626024D01*
X110121472Y-91619230D01*
X110002831Y-91585716D01*
X109778862Y-91540426D01*
X109497226Y-91491329D01*
X109205581Y-91446393D01*
X108951587Y-91413588D01*
X108782902Y-91400882D01*
X108637008Y-91439739D01*
X108457774Y-91566434D01*
X108430241Y-91598196D01*
X108301632Y-91774051D01*
X108137140Y-92025152D01*
X107958162Y-92315317D01*
X107786095Y-92608368D01*
X107642338Y-92868125D01*
X107548288Y-93058406D01*
X107525342Y-93143033D01*
X107213953Y-93143033D01*
X107301800Y-92986177D01*
X107433636Y-92746270D01*
X107650335Y-92374320D01*
X107851834Y-92052438D01*
X108007334Y-91831049D01*
X108276765Y-91490865D01*
X108027142Y-91577884D01*
X107807654Y-91676824D01*
X107410290Y-91981018D01*
X107076194Y-92404542D01*
X106827430Y-92916032D01*
X106686064Y-93484125D01*
X106670346Y-93629532D01*
X105930977Y-93629532D01*
X105935009Y-93517549D01*
X105943243Y-93253346D01*
X105961491Y-92883511D01*
X105984016Y-92589028D01*
X106007714Y-92416882D01*
X106025014Y-92251232D01*
X105991457Y-92039050D01*
X105943633Y-91940807D01*
X105888118Y-91943155D01*
X105790559Y-92081383D01*
X105723673Y-92197845D01*
X105554282Y-92606849D01*
X105433893Y-93064174D01*
X105388080Y-93480893D01*
X104785261Y-93480893D01*
X104787164Y-93263549D01*
X104775166Y-93034420D01*
X104698273Y-92697280D01*
X104527951Y-92332215D01*
X104490322Y-92266111D01*
X104723164Y-92266111D01*
X104795414Y-92332215D01*
X104801917Y-92331401D01*
X104855436Y-92244212D01*
X104874129Y-92057049D01*
X104867486Y-91914812D01*
X104844736Y-91862129D01*
X104795414Y-91951215D01*
X104746453Y-92083001D01*
X104723164Y-92266111D01*
X104490322Y-92266111D01*
X104343182Y-92007630D01*
X104220857Y-91825772D01*
X104155722Y-91787129D01*
X104139645Y-91886966D01*
X103622724Y-91886966D01*
X103615279Y-91735976D01*
X104545590Y-91735976D01*
X104584270Y-91784851D01*
X104703160Y-91704081D01*
X104719852Y-91686598D01*
X104823170Y-91511233D01*
X104844736Y-91458776D01*
X104937786Y-91232442D01*
X105041826Y-90902027D01*
X105125779Y-90566621D01*
X105181903Y-90294999D01*
X105208358Y-90108149D01*
X105203527Y-90026236D01*
X105165789Y-90069426D01*
X105093527Y-90257882D01*
X105025589Y-90447130D01*
X104899081Y-90773349D01*
X104762534Y-91104549D01*
X104711082Y-91226829D01*
X104587675Y-91551841D01*
X104545590Y-91735976D01*
X103615279Y-91735976D01*
X103590406Y-91231549D01*
X103639374Y-90485696D01*
X104240636Y-90485696D01*
X104246051Y-90776178D01*
X104286911Y-90976088D01*
X104340683Y-91206678D01*
X104389768Y-91296264D01*
X104451665Y-91241038D01*
X104543871Y-91037193D01*
X104683887Y-90680923D01*
X104732314Y-90555482D01*
X104889501Y-90128861D01*
X105035074Y-89708321D01*
X105142702Y-89369151D01*
X105203527Y-89120862D01*
X105210125Y-89093929D01*
X105276224Y-88695129D01*
X105300721Y-88353151D01*
X105297046Y-88122912D01*
X105281089Y-87986702D01*
X105241777Y-87973022D01*
X105167759Y-88056549D01*
X105017044Y-88279296D01*
X104800926Y-88684509D01*
X104601338Y-89148735D01*
X104432168Y-89630995D01*
X104307305Y-90090308D01*
X104240636Y-90485696D01*
X103639374Y-90485696D01*
X103648694Y-90343737D01*
X103837224Y-89470718D01*
X104155722Y-88657894D01*
X104165429Y-88633121D01*
X104328779Y-88328232D01*
X104573227Y-87929342D01*
X104854572Y-87509619D01*
X105143207Y-87111375D01*
X105241777Y-86987589D01*
X105409528Y-86776923D01*
X105623931Y-86548576D01*
X105637243Y-86536596D01*
X105703326Y-86485175D01*
X105749783Y-86485904D01*
G37*
D12*
%TO.C,U4*%
X155520000Y-92820000D02*
X155520000Y-96420000D01*
X151070000Y-94620000D02*
G75*
G02*
X155508478Y-92781522I2600000J0D01*
G01*
X155508478Y-96458478D02*
G75*
G02*
X151070000Y-94620000I-1838478J1838478D01*
G01*
%TO.C,U1*%
X54080000Y-105500000D02*
X54080000Y-83890000D01*
X81640000Y-81760000D02*
X56210000Y-81760000D01*
X81640000Y-81760000D02*
X81640000Y-84300000D01*
X81640000Y-84300000D02*
X88540000Y-84300000D01*
X88540000Y-84300000D02*
X88540000Y-107620000D01*
X88540000Y-107620000D02*
X56210000Y-107620000D01*
D10*
X61150000Y-81990000D02*
X73850000Y-81990000D01*
X73850000Y-84530000D01*
X61150000Y-84530000D01*
X61150000Y-81990000D01*
X71310000Y-104850000D02*
X81470000Y-104850000D01*
X81470000Y-107390000D01*
X71310000Y-107390000D01*
X71310000Y-104850000D01*
D12*
X54080000Y-83890000D02*
G75*
G02*
X56210000Y-81760000I2130002J-2D01*
G01*
X56210000Y-107620000D02*
G75*
G02*
X54080000Y-105490000I0J2130000D01*
G01*
D13*
X62420000Y-81355000D02*
X61785000Y-80720000D01*
X63055000Y-80720000D01*
X62420000Y-81355000D01*
G36*
X62420000Y-81355000D02*
G01*
X61785000Y-80720000D01*
X63055000Y-80720000D01*
X62420000Y-81355000D01*
G37*
%TO.C,U3*%
X128270000Y-86804500D02*
X128270000Y-102425500D01*
X128270000Y-102425500D02*
X148590000Y-102425500D01*
X148590000Y-86804500D02*
X128270000Y-86804500D01*
X148590000Y-102425500D02*
X148590000Y-86804500D01*
X132080000Y-99695000D02*
G75*
G02*
X129540000Y-99695000I-1270000J0D01*
G01*
X129540000Y-99695000D02*
G75*
G02*
X132080000Y-99695000I1270000J0D01*
G01*
X147320000Y-99695000D02*
G75*
G02*
X144780000Y-99695000I-1270000J0D01*
G01*
X144780000Y-99695000D02*
G75*
G02*
X147320000Y-99695000I1270000J0D01*
G01*
%TD*%
M02*
